<svg width="25" height="25" viewBox="0 0 25 25" fill="none" xmlns="http://www.w3.org/2000/svg">
<path d="M19.5417 8.25H1.76392V21.4265C1.76392 22.4618 2.56392 23.3088 3.54169 23.3088H17.7639C18.7417 23.3088 19.5417 22.4618 19.5417 21.4265V8.25Z" fill="#FFDB41"/>
<path d="M17.3195 15.3086C21.0014 15.3086 23.9862 12.1482 23.9862 8.24974C23.9862 4.35126 21.0014 1.19092 17.3195 1.19092C13.6376 1.19092 10.6528 4.35126 10.6528 8.24974C10.6528 12.1482 13.6376 15.3086 17.3195 15.3086Z" fill="#1C94F9"/>
<path d="M24.875 8.25C24.875 3.82647 21.4972 0.25 17.3194 0.25C15.4972 0.25 13.7639 0.955883 12.4306 2.17941V1.19118C12.4306 0.673529 12.0306 0.25 11.5417 0.25C11.0528 0.25 10.6528 0.673529 10.6528 1.19118V4.48529C10.6528 5.00294 11.0528 5.42647 11.5417 5.42647H11.675H14.6528C15.1417 5.42647 15.5417 5.00294 15.5417 4.48529C15.5417 3.96765 15.1417 3.54412 14.6528 3.54412H13.6306C14.6528 2.65 15.9417 2.13235 17.3194 2.13235C20.5194 2.13235 23.0972 4.86176 23.0972 8.25C23.0972 11.6382 20.5194 14.3676 17.3194 14.3676C14.1194 14.3676 11.5417 11.6382 11.5417 8.25C11.5417 7.73235 11.1417 7.30882 10.6528 7.30882H2.65278V6.69706C2.65278 5.99118 3.18611 5.42647 3.85278 5.42647H7.98611C8.475 5.42647 8.875 5.00294 8.875 4.48529C8.875 3.96765 8.475 3.54412 7.98611 3.54412H3.85278C2.20833 3.54412 0.875 4.95588 0.875 6.69706V21.0971C0.875 22.8382 2.20833 24.25 3.85278 24.25H17.4528C19.0972 24.25 20.4306 22.8382 20.4306 21.0971V15.5441C23.0528 14.2735 24.875 11.4971 24.875 8.25ZM18.6528 21.0971C18.6528 21.8029 18.1194 22.3676 17.4528 22.3676H3.85278C3.18611 22.3676 2.65278 21.8029 2.65278 21.0971V9.19118H9.80833C10.0306 11.2618 11.0083 13.0971 12.4306 14.3676H12.3861C11.8972 14.3676 11.4972 14.7912 11.4972 15.3088V15.7794C11.4972 16.2971 11.8972 16.7206 12.3861 16.7206C12.875 16.7206 13.275 16.2971 13.275 15.7794V15.3088C13.275 15.2147 13.275 15.0735 13.2306 14.9794C13.8083 15.3559 14.4306 15.6853 15.0972 15.8735C15.1417 16.3441 15.5417 16.6735 15.9861 16.6735C16.3417 16.6735 16.6083 16.4853 16.7861 16.1559C16.9639 16.1559 17.1417 16.2029 17.3194 16.2029C17.7639 16.2029 18.2083 16.1559 18.6528 16.0618V21.0971Z" fill="url(#paint0_linear_202_209)"/>
<path d="M5.31931 10.603C4.83042 10.603 4.43042 11.0266 4.43042 11.5442V12.0148C4.43042 12.5324 4.83042 12.956 5.31931 12.956C5.8082 12.956 6.2082 12.5324 6.2082 12.0148V11.5442C6.2082 11.0266 5.8082 10.603 5.31931 10.603Z" fill="url(#paint1_linear_202_209)"/>
<path d="M8.87497 10.603C8.38608 10.603 7.98608 11.0266 7.98608 11.5442V12.0148C7.98608 12.5324 8.38608 12.956 8.87497 12.956C9.36386 12.956 9.76386 12.5324 9.76386 12.0148V11.5442C9.76386 11.0266 9.36386 10.603 8.87497 10.603Z" fill="url(#paint2_linear_202_209)"/>
<path d="M5.31931 14.3677C4.83042 14.3677 4.43042 14.7912 4.43042 15.3089V15.7794C4.43042 16.2971 4.83042 16.7206 5.31931 16.7206C5.8082 16.7206 6.2082 16.2971 6.2082 15.7794V15.3089C6.2082 14.7912 5.8082 14.3677 5.31931 14.3677Z" fill="url(#paint3_linear_202_209)"/>
<path d="M8.87497 14.3677C8.38608 14.3677 7.98608 14.7912 7.98608 15.3089V15.7794C7.98608 16.2971 8.38608 16.7206 8.87497 16.7206C9.36386 16.7206 9.76386 16.2971 9.76386 15.7794V15.3089C9.76386 14.7912 9.36386 14.3677 8.87497 14.3677Z" fill="url(#paint4_linear_202_209)"/>
<path d="M5.31931 18.1323C4.83042 18.1323 4.43042 18.5559 4.43042 19.0735V19.5441C4.43042 20.0617 4.83042 20.4853 5.31931 20.4853C5.8082 20.4853 6.2082 20.0617 6.2082 19.5441V19.0735C6.2082 18.5559 5.8082 18.1323 5.31931 18.1323Z" fill="url(#paint5_linear_202_209)"/>
<path d="M8.87497 18.1323C8.38608 18.1323 7.98608 18.5559 7.98608 19.0735V19.5441C7.98608 20.0617 8.38608 20.4853 8.87497 20.4853C9.36386 20.4853 9.76386 20.0617 9.76386 19.5441V19.0735C9.76386 18.5559 9.36386 18.1323 8.87497 18.1323Z" fill="url(#paint6_linear_202_209)"/>
<path d="M12.4306 18.1323C11.9417 18.1323 11.5417 18.5559 11.5417 19.0735V19.5441C11.5417 20.0617 11.9417 20.4853 12.4306 20.4853C12.9195 20.4853 13.3195 20.0617 13.3195 19.5441V19.0735C13.3195 18.5559 12.9195 18.1323 12.4306 18.1323Z" fill="url(#paint7_linear_202_209)"/>
<path d="M15.9862 18.1323C15.4973 18.1323 15.0973 18.5559 15.0973 19.0735V19.5441C15.0973 20.0617 15.4973 20.4853 15.9862 20.4853C16.4751 20.4853 16.8751 20.0617 16.8751 19.5441V19.0735C16.8751 18.5559 16.4751 18.1323 15.9862 18.1323Z" fill="url(#paint8_linear_202_209)"/>
<path d="M17.3193 3.07324C16.8304 3.07324 16.4304 3.49677 16.4304 4.01442V8.24971C16.4304 8.76736 16.8304 9.19089 17.3193 9.19089H19.986C20.4749 9.19089 20.8749 8.76736 20.8749 8.24971C20.8749 7.73207 20.4749 7.30854 19.986 7.30854H18.2082V4.01442C18.2082 3.49677 17.8082 3.07324 17.3193 3.07324Z" fill="url(#paint9_linear_202_209)"/>
<defs>
<linearGradient id="paint0_linear_202_209" x1="0.875" y1="12.25" x2="24.875" y2="12.25" gradientUnits="userSpaceOnUse">
<stop offset="0.002" stop-color="#034A7A"/>
<stop offset="1" stop-color="#002F49"/>
</linearGradient>
<linearGradient id="paint1_linear_202_209" x1="4.43042" y1="11.7795" x2="6.2082" y2="11.7795" gradientUnits="userSpaceOnUse">
<stop offset="0.002" stop-color="#034A7A"/>
<stop offset="1" stop-color="#002F49"/>
</linearGradient>
<linearGradient id="paint2_linear_202_209" x1="7.98608" y1="11.7795" x2="9.76386" y2="11.7795" gradientUnits="userSpaceOnUse">
<stop offset="0.002" stop-color="#034A7A"/>
<stop offset="1" stop-color="#002F49"/>
</linearGradient>
<linearGradient id="paint3_linear_202_209" x1="4.43042" y1="15.5441" x2="6.2082" y2="15.5441" gradientUnits="userSpaceOnUse">
<stop offset="0.002" stop-color="#034A7A"/>
<stop offset="1" stop-color="#002F49"/>
</linearGradient>
<linearGradient id="paint4_linear_202_209" x1="7.98608" y1="15.5441" x2="9.76386" y2="15.5441" gradientUnits="userSpaceOnUse">
<stop offset="0.002" stop-color="#034A7A"/>
<stop offset="1" stop-color="#002F49"/>
</linearGradient>
<linearGradient id="paint5_linear_202_209" x1="4.43042" y1="19.3088" x2="6.2082" y2="19.3088" gradientUnits="userSpaceOnUse">
<stop offset="0.002" stop-color="#034A7A"/>
<stop offset="1" stop-color="#002F49"/>
</linearGradient>
<linearGradient id="paint6_linear_202_209" x1="7.98608" y1="19.3088" x2="9.76386" y2="19.3088" gradientUnits="userSpaceOnUse">
<stop offset="0.002" stop-color="#034A7A"/>
<stop offset="1" stop-color="#002F49"/>
</linearGradient>
<linearGradient id="paint7_linear_202_209" x1="11.5417" y1="19.3088" x2="13.3195" y2="19.3088" gradientUnits="userSpaceOnUse">
<stop offset="0.002" stop-color="#034A7A"/>
<stop offset="1" stop-color="#002F49"/>
</linearGradient>
<linearGradient id="paint8_linear_202_209" x1="15.0973" y1="19.3088" x2="16.8751" y2="19.3088" gradientUnits="userSpaceOnUse">
<stop offset="0.002" stop-color="#034A7A"/>
<stop offset="1" stop-color="#002F49"/>
</linearGradient>
<linearGradient id="paint9_linear_202_209" x1="16.4304" y1="6.13207" x2="20.8749" y2="6.13207" gradientUnits="userSpaceOnUse">
<stop offset="0.002" stop-color="#034A7A"/>
<stop offset="1" stop-color="#002F49"/>
</linearGradient>
</defs>
</svg>
