<svg width="24" height="24" viewBox="0 0 24 24" fill="none" xmlns="http://www.w3.org/2000/svg">
<g clip-path="url(#clip0_172_139)">
<path d="M14.0475 3.98257C14.2112 3.67291 14.424 3.39178 14.6775 3.15007C15.2939 2.65329 16.0477 2.3575 16.8375 2.30257C16.6952 3.08536 16.3155 3.80542 15.75 4.36507C15.4125 4.65995 15.0163 4.8798 14.5875 5.01007C14.3588 4.91794 14.1194 4.85495 13.875 4.82257C13.875 4.74007 13.875 4.65007 13.8375 4.56757C13.8 4.48507 13.8375 4.50007 13.8375 4.46257C13.8964 4.29797 13.9666 4.13759 14.0475 3.98257ZM14.4525 5.73007C14.9114 5.94737 15.2764 6.32305 15.4804 6.78802C15.6845 7.25298 15.7138 7.77598 15.5629 8.26082C15.4121 8.74566 15.0913 9.15975 14.6595 9.42694C14.2278 9.69413 13.714 9.79645 13.2128 9.71509C12.7116 9.63372 12.2567 9.37415 11.9316 8.98409C11.6065 8.59404 11.4332 8.09973 11.4435 7.59208C11.4538 7.08442 11.647 6.59755 11.9876 6.221C12.3283 5.84445 12.7934 5.60354 13.2975 5.54257H13.56C13.8679 5.53613 14.1732 5.60027 14.4525 5.73007ZM11.715 0.877569C12.3065 1.18825 12.7941 1.66539 13.1175 2.25007C13.2957 2.65362 13.3828 3.09152 13.3725 3.53257C12.9932 2.97863 12.4254 2.58147 11.775 2.41507C11.6489 1.91223 11.6285 1.38871 11.715 0.877569ZM8.84998 6.18757C9.19477 6.02114 9.57804 5.95072 9.95947 5.98371C10.3409 6.01671 10.7064 6.1519 11.0175 6.37507C10.8131 6.77154 10.7076 7.21154 10.71 7.65757C10.7114 8.32916 10.9475 8.97913 11.3775 9.49507C11.1821 9.72717 10.9388 9.91433 10.6644 10.0438C10.39 10.1732 10.0909 10.2419 9.78748 10.2451C9.22318 10.2431 8.68255 10.018 8.28353 9.61902C7.8845 9.22 7.65946 8.67937 7.65748 8.11507C7.65288 7.71375 7.76257 7.3194 7.97373 6.97809C8.18489 6.63678 8.48881 6.3626 8.84998 6.18757ZM2.99998 9.15007C3.59362 8.61687 4.28695 8.20648 5.03998 7.94257C5.68945 7.69968 6.3532 7.4968 7.02748 7.33507C6.95865 7.57915 6.92332 7.83147 6.92248 8.08507C6.92396 8.66318 7.10076 9.22724 7.42952 9.70277C7.75829 10.1783 8.22356 10.5429 8.76388 10.7485C9.30421 10.9541 9.89418 10.9909 10.4559 10.8542C11.0176 10.7174 11.5246 10.4135 11.91 9.98257C12.3925 10.3173 12.9652 10.4977 13.5525 10.5001C14.309 10.5001 15.0347 10.2 15.5704 9.66578C16.1061 9.13152 16.408 8.40662 16.41 7.65007C16.4061 7.4917 16.3911 7.33381 16.365 7.17757C17.7686 7.41154 19.112 7.92136 20.3175 8.67757C20.8787 9.00558 21.3401 9.48 21.6525 10.0501C21.7625 10.2862 21.8286 10.5403 21.8475 10.8001C21.8747 11.1293 21.7873 11.4579 21.6 11.7301L21.4275 11.9326C21.2925 12.0526 21.1425 12.1651 20.97 12.2926C20.5004 12.5689 20.1363 12.9938 19.935 13.5001C19.876 13.7456 19.8483 13.9976 19.8525 14.2501C19.8525 14.5951 19.8525 14.8051 19.695 14.9176C19.5375 15.0301 19.155 14.9176 18.945 14.7076L18.8775 14.6176C18.7095 14.4059 18.4782 14.2535 18.2175 14.1826C18.1032 14.1622 17.986 14.1664 17.8735 14.1948C17.761 14.2233 17.6558 14.2753 17.565 14.3476C17.4168 14.4809 17.2968 14.6425 17.2118 14.8227C17.1268 15.003 17.0786 15.1984 17.07 15.3976V16.0651C17.1191 16.4513 17.0936 16.8434 16.995 17.2201C16.9781 17.264 16.958 17.3066 16.935 17.3476C16.875 17.4601 16.8075 17.5351 16.7475 17.5426C16.6875 17.5501 16.56 17.5051 16.38 17.3401C16.1291 17.0862 15.9348 16.782 15.81 16.4476C15.555 15.4876 15.0075 14.9476 14.3625 15.0226C14.1415 15.0556 13.9337 15.1485 13.7618 15.2913C13.5899 15.4341 13.4604 15.6213 13.3875 15.8326C13.2771 16.166 13.2288 16.5168 13.245 16.8676V20.2501C13.2761 20.4654 13.2601 20.6849 13.1979 20.8935C13.1358 21.102 13.029 21.2945 12.885 21.4576C12.835 21.4974 12.7766 21.5254 12.7143 21.5397C12.652 21.554 12.5873 21.5541 12.525 21.5401C12.4363 21.5213 12.3527 21.4834 12.2801 21.429C12.2076 21.3746 12.1478 21.305 12.105 21.2251C11.9716 20.9167 11.8978 20.5859 11.8875 20.2501C11.835 19.5001 11.7975 18.7501 11.7525 17.9551C11.7525 17.4226 11.7075 16.9051 11.7 16.3876C11.7189 16.0134 11.6468 15.6403 11.49 15.3001C11.3858 15.0782 11.2073 14.8997 10.9854 14.7956C10.7635 14.6915 10.5122 14.6683 10.275 14.7301C10.0099 14.8361 9.79351 15.0364 9.66748 15.2926C9.48376 15.6703 9.3767 16.0807 9.35248 16.5001C9.33774 16.6768 9.31017 16.8523 9.26998 17.0251C9.18748 17.4451 8.90998 17.9026 8.56498 17.8726C8.21998 17.8426 7.99498 17.4676 7.93498 17.1226C7.90992 16.8732 7.90992 16.6219 7.93498 16.3726C7.96094 16.0882 7.96094 15.802 7.93498 15.5176C7.90953 15.1662 7.76477 14.8341 7.52469 14.5763C7.28461 14.3185 6.96364 14.1505 6.61498 14.1001C6.18523 14.1278 5.77663 14.2966 5.45248 14.5801L5.33998 14.6626C5.10748 14.8276 4.79998 14.9551 4.63498 14.8426C4.46998 14.7301 4.47748 14.5726 4.42498 14.2576C4.40288 14.0901 4.36777 13.9246 4.31998 13.7626C4.0854 13.2056 3.68805 12.7324 3.17998 12.4051L2.99998 12.3076C2.78075 12.1473 2.59979 11.9404 2.4701 11.7017C2.34042 11.4631 2.26524 11.1987 2.24998 10.9276C2.24383 10.5953 2.3074 10.2655 2.43658 9.95933C2.56576 9.65316 2.75769 9.37748 2.99998 9.15007ZM15.48 17.3251H15.4425L15.1575 17.3701H14.865L14.25 17.4376H13.9725V16.7701C13.9634 16.5169 13.9938 16.2639 14.0625 16.0201C14.0917 15.9366 14.1402 15.8611 14.2041 15.7999C14.2679 15.7386 14.3453 15.6933 14.43 15.6676C14.7375 15.6676 14.985 16.0951 15.1125 16.5601C15.1956 16.8322 15.3195 17.0901 15.48 17.3251ZM10.98 17.5651H9.89248C9.92998 17.4601 9.95998 17.3551 9.98998 17.2576C10.02 17.1601 10.05 16.8526 10.0725 16.6576C10.0939 16.3241 10.1725 15.9968 10.305 15.6901C10.3478 15.598 10.4187 15.5218 10.5075 15.4726C10.6125 15.4726 10.77 15.5476 10.8525 15.6901C10.9422 15.9295 10.983 16.1846 10.9725 16.4401C10.98 16.7776 11.0025 17.1676 11.01 17.5651H10.98ZM2.39248 12.7501L2.54998 12.8851L2.67748 12.9901C3.06997 13.2257 3.38331 13.573 3.57748 13.9876C3.61238 14.1159 3.63992 14.2461 3.65998 14.3776C3.66227 14.5834 3.70982 14.7861 3.79925 14.9715C3.88869 15.1568 4.01782 15.3202 4.17748 15.4501C4.41742 15.5731 4.68884 15.621 4.95638 15.5875C5.22392 15.5541 5.4752 15.4408 5.67748 15.2626L5.80498 15.1726C6.01225 14.9812 6.27481 14.8604 6.55498 14.8276C6.87748 14.8276 7.12498 15.2476 7.17748 15.6226C7.19777 15.8722 7.19777 16.123 7.17748 16.3726V17.1226C6.21751 16.9093 5.28427 16.5898 4.39498 16.1701C3.71164 15.8443 3.1076 15.3733 2.62498 14.7901C2.32618 14.463 2.15339 14.0403 2.13748 13.5976C2.14557 13.2974 2.23359 13.0049 2.39248 12.7501ZM2.39248 15.6151L2.69248 15.8851L2.76748 15.9376C2.86869 16.0234 2.97653 16.1012 3.08998 16.1701L3.14248 16.2151C3.26248 16.2976 3.39748 16.3801 3.53998 16.4626L3.63748 16.5151C3.77998 16.5976 3.92998 16.6801 4.08748 16.7551C5.15192 17.2677 6.27905 17.6383 7.43998 17.8576C7.54304 18.0659 7.69785 18.2442 7.88957 18.3755C8.0813 18.5068 8.30353 18.5867 8.53498 18.6076C8.70698 18.6036 8.87633 18.5643 9.03246 18.4921C9.1886 18.4198 9.32817 18.3162 9.44248 18.1876H10.2975L10.83 18.2251H11.01C11.01 18.9226 11.085 19.5826 11.13 20.2051V20.3551H10.125C9.94498 20.3551 9.76498 20.3401 9.58498 20.3101L8.83498 20.2276L8.47498 20.1676C8.3565 20.1574 8.23877 20.1399 8.12248 20.1151L7.86748 20.0626C7.61248 20.0176 7.36498 19.9726 7.11748 19.9051L6.79498 19.8226C6.69862 19.8063 6.60341 19.7837 6.50998 19.7551L6.23248 19.6726L5.87998 19.5676L5.66248 19.5001C5.43748 19.4251 5.21998 19.3426 5.00998 19.2526L4.88248 19.2001H4.74748L4.67248 19.1626C4.65268 19.1666 4.63228 19.1666 4.61248 19.1626L4.41748 19.0651L4.16998 18.9376L3.95248 18.8176C3.80248 18.7351 3.66748 18.6376 3.53248 18.5476L3.37498 18.4426L3.15748 18.2626C3.09777 18.1796 3.04509 18.0918 2.99998 18.0001C2.96219 17.9795 2.92901 17.9514 2.90248 17.9176C2.8093 17.8302 2.72398 17.7348 2.64748 17.6326C2.35088 17.3041 2.17844 16.8823 2.15998 16.4401C2.15793 16.1483 2.23296 15.8611 2.37748 15.6076L2.39248 15.6151ZM12 23.2501C6.65998 23.2501 2.13748 21.4426 2.13748 19.2751C2.14332 18.9814 2.22607 18.6943 2.37748 18.4426L2.42248 18.4801C2.44554 18.4937 2.46589 18.5115 2.48248 18.5326L2.66248 18.6826C2.73748 18.7501 2.81998 18.8101 2.88748 18.8626L3.04498 18.9751C3.19498 19.0801 3.34498 19.1776 3.50998 19.2751C3.58846 19.3271 3.67126 19.3722 3.75748 19.4101C3.84271 19.464 3.93317 19.5093 4.02748 19.5451C4.09 19.5845 4.15515 19.6196 4.22248 19.6501L4.31998 19.6951L4.41748 19.7401H4.46248L4.57498 19.7851L4.69498 19.8376C4.91248 19.9351 5.15248 20.0251 5.38498 20.1076L5.68498 20.2051C5.80498 20.2501 5.92498 20.2801 6.05248 20.3176L6.34498 20.4001C6.44802 20.4346 6.55326 20.4621 6.65998 20.4826L6.98248 20.5651L7.77748 20.7301L8.03248 20.7751C8.15379 20.8018 8.27647 20.8218 8.39998 20.8351C8.52141 20.8594 8.6441 20.8769 8.76748 20.8876C9.02248 20.9326 9.27748 20.9551 9.51748 20.9851L10.08 21.0301H11.25C11.2817 21.1547 11.3269 21.2754 11.385 21.3901C11.4745 21.5689 11.6033 21.7252 11.7618 21.8473C11.9202 21.9694 12.1042 22.0541 12.3 22.0951C12.3848 22.1029 12.4702 22.1029 12.555 22.0951C12.8277 22.1045 13.0945 22.0138 13.305 21.8401C13.5808 21.606 13.7708 21.2867 13.845 20.9326H14.6175L15 21.0001L15.345 20.9476L15.7875 20.8876L16.23 20.8051C16.605 20.7301 16.98 20.6551 17.2875 20.5726L17.565 20.4901L17.8575 20.4151C18.27 20.2951 18.66 20.1601 19.005 20.0251C19.1053 19.9923 19.2031 19.9522 19.2975 19.9051L19.8525 19.6576L20.1075 19.5301L20.355 19.3951C20.5125 19.3051 20.655 19.2151 20.79 19.1251C20.8309 19.1025 20.8687 19.0748 20.9025 19.0426L21.1875 18.8401L21.2925 18.7576C21.4001 18.6709 21.5028 18.5783 21.6 18.4801C21.7524 18.7314 21.8352 19.0187 21.84 19.3126C21.8625 21.4426 17.3475 23.2501 12 23.2501ZM21.3825 17.6101C20.9992 18.0715 20.5339 18.458 20.01 18.7501L19.7925 18.8776L19.5525 18.9901L19.035 19.2301L18.7575 19.3351C18.4019 19.4793 18.0389 19.6045 17.67 19.7101L17.3775 19.7851C17.2951 19.8164 17.2096 19.839 17.1225 19.8526C16.8075 19.9426 16.4625 20.0176 16.1025 20.0851L15.69 20.1526L15.255 20.2201L14.9325 20.2726L14.55 20.3176H14.25L13.9425 20.3551V18.2701L14.325 18.2326C14.535 18.2326 14.73 18.1951 14.9325 18.1651L15.2325 18.1276L15.5475 18.0751H16.065C16.1759 18.175 16.3069 18.25 16.4492 18.2953C16.5914 18.3406 16.7417 18.355 16.89 18.3376C17.0447 18.3037 17.1892 18.2337 17.3117 18.1333C17.4342 18.033 17.5313 17.9051 17.595 17.7601C18.3922 17.5547 19.1662 17.2682 19.905 16.9051C20.5299 16.6085 21.1065 16.2191 21.615 15.7501C21.7648 16.0025 21.8474 16.2891 21.855 16.5826C21.8091 16.9728 21.6441 17.3394 21.3825 17.6326V17.6101ZM21.3825 14.7751C20.8823 15.3338 20.272 15.7832 19.59 16.0951C19.0172 16.371 18.4227 16.5993 17.8125 16.7776C17.8276 16.5078 17.8276 16.2374 17.8125 15.9676V15.3676C17.8131 15.1781 17.8855 14.9959 18.015 14.8576H18.09C18.105 14.8576 18.255 14.9776 18.3375 15.0676L18.435 15.1651C18.6426 15.4194 18.938 15.5866 19.2629 15.6338C19.5878 15.681 19.9186 15.6048 20.19 15.4201C20.3342 15.2638 20.4435 15.0787 20.5108 14.877C20.578 14.6753 20.6016 14.4616 20.58 14.2501C20.5733 14.0685 20.5909 13.8869 20.6325 13.7101C20.7944 13.3701 21.056 13.0876 21.3825 12.9001L21.6075 12.7351C21.7691 12.9996 21.8572 13.3026 21.8625 13.6126C21.8414 14.0505 21.6721 14.4684 21.3825 14.7976V14.7751ZM22.1325 15.0001C22.4307 14.5839 22.5954 14.087 22.605 13.5751C22.5987 13.0777 22.4418 12.5939 22.155 12.1876C22.1788 12.1688 22.1992 12.146 22.215 12.1201C22.5091 11.7148 22.6451 11.2161 22.5975 10.7176C22.5686 10.3792 22.4717 10.0501 22.3125 9.75007C21.9417 9.0667 21.3955 8.49455 20.73 8.09257C19.3297 7.20903 17.7573 6.63377 16.1175 6.40507C15.9366 6.04519 15.6809 5.72811 15.3675 5.47507C15.6825 5.3264 15.9754 5.13456 16.2375 4.90507C17.0318 4.09715 17.5152 3.03467 17.6025 1.90507C17.6074 1.8574 17.602 1.80923 17.5864 1.7639C17.5709 1.71857 17.5456 1.67716 17.5125 1.64257C17.4773 1.61021 17.4359 1.58551 17.3907 1.57001C17.3455 1.55452 17.2976 1.54858 17.25 1.55257C16.1307 1.53544 15.0405 1.90944 14.1675 2.61007L14.0175 2.76007C13.9683 2.46039 13.8748 2.16971 13.74 1.89757C13.2636 1.03228 12.4994 0.360976 11.58 6.89337e-05C11.5365 -0.0200802 11.4892 -0.0305176 11.4412 -0.0305176C11.3933 -0.0305176 11.346 -0.0200802 11.3025 6.89337e-05C11.2559 0.0183292 11.2145 0.0476847 11.1818 0.0855875C11.1491 0.12349 11.1262 0.168795 11.115 0.217569C10.9963 0.639888 10.9358 1.0764 10.935 1.51507V1.85257C10.9449 1.9963 10.965 2.13915 10.995 2.28007C10.4991 2.29047 10.015 2.43286 9.59248 2.69257C9.36853 2.82314 9.16613 2.98759 8.99248 3.18007C8.5007 3.70924 8.23205 4.40774 8.24248 5.13007C8.24473 5.30378 8.2623 5.47695 8.29498 5.64757C7.94259 5.86383 7.64282 6.15591 7.41748 6.50257C6.52065 6.67892 5.6401 6.92979 4.78498 7.25257C3.95077 7.55154 3.18549 8.01581 2.53498 8.61757C2.2042 8.91336 1.94067 9.27661 1.76213 9.68284C1.58359 10.0891 1.4942 10.5289 1.49998 10.9726C1.52771 11.4 1.66457 11.8131 1.89748 12.1726C1.59489 12.587 1.42729 13.0845 1.41748 13.5976C1.43287 14.1015 1.5973 14.5896 1.88998 15.0001C1.59322 15.4142 1.42853 15.9082 1.41748 16.4176C1.42934 16.9291 1.59389 17.4253 1.88998 17.8426C1.59339 18.2539 1.42863 18.7456 1.41748 19.2526C1.41748 21.9226 6.05998 24.0001 12 24.0001C17.94 24.0001 22.5825 21.9226 22.5825 19.2751C22.5728 18.7678 22.4079 18.2757 22.11 17.8651C22.4061 17.4478 22.5706 16.9516 22.5825 16.4401C22.576 15.923 22.4111 15.4204 22.11 15.0001H22.1325ZM11.43 5.76757C10.9489 5.42983 10.3752 5.24907 9.78748 5.25007C9.5076 5.25038 9.2294 5.29337 8.96248 5.37757C8.95876 5.31012 8.95876 5.24252 8.96248 5.17507C8.96248 4.61215 9.1861 4.07228 9.58415 3.67423C9.98219 3.27619 10.5221 3.05257 11.085 3.05257H11.445C11.8345 3.12513 12.1966 3.30345 12.4916 3.56802C12.7866 3.83258 13.0031 4.17319 13.1175 4.55257C13.1379 4.60026 13.1505 4.65089 13.155 4.70257C13.1579 4.74252 13.1579 4.78262 13.155 4.82257C12.4858 4.92226 11.8742 5.25733 11.43 5.76757Z" fill="#2B2E63"/>
<path d="M11.1825 20.4224H10.1775C9.99753 20.4224 9.81753 20.4074 9.63753 20.3774L8.88753 20.2949L8.52753 20.2349C8.40905 20.2248 8.29133 20.2072 8.17503 20.1824L7.92003 20.1299C7.66503 20.0849 7.41753 20.0399 7.17003 19.9724L6.84753 19.8899C6.75117 19.8736 6.65597 19.8511 6.56253 19.8224L6.28503 19.7399L5.93253 19.6349L5.66253 19.4999C5.43753 19.4249 5.22003 19.3424 5.01003 19.2524L4.88253 19.1999H4.74753L4.67253 19.1624C4.65274 19.1665 4.63233 19.1665 4.61253 19.1624L4.41753 19.0649L4.17003 18.9374L3.95253 18.8174C3.80253 18.7349 3.66753 18.6374 3.53253 18.5474L3.37503 18.4424L3.15753 18.2624C3.09782 18.1795 3.04514 18.0917 3.00003 17.9999C2.96224 17.9794 2.92906 17.9513 2.90253 17.9174C2.80936 17.8301 2.72403 17.7347 2.64753 17.6324C2.35094 17.3039 2.17849 16.8821 2.16003 16.4399C2.16481 16.1461 2.24764 15.8587 2.40003 15.6074L2.70003 15.8774L2.77503 15.9299C2.87624 16.0158 2.98408 16.0935 3.09753 16.1624L3.15003 16.2074C3.27003 16.2899 3.40503 16.3724 3.54753 16.4549L3.64503 16.5074C3.78753 16.5899 3.93753 16.6724 4.09503 16.7474C5.15948 17.26 6.28661 17.6307 7.44753 17.8499C7.55059 18.0582 7.7054 18.2365 7.89713 18.3679C8.08885 18.4992 8.31108 18.5791 8.54253 18.5999C8.71453 18.596 8.88388 18.5567 9.04002 18.4844C9.19615 18.4122 9.33572 18.3085 9.45003 18.1799H10.305L10.8375 18.2174H11.0175C11.0175 18.9149 11.0925 19.5749 11.1375 20.1974C11.175 20.3174 11.175 20.3699 11.1825 20.4224ZM21.8625 16.4399C21.8449 16.8809 21.6753 17.3022 21.3825 17.6324C20.9973 18.0858 20.5321 18.4646 20.01 18.7499L19.7925 18.8774L19.5525 18.9899L19.035 19.2299L18.7575 19.3349C18.402 19.4792 18.0389 19.6043 17.67 19.7099L17.3775 19.7849C17.2951 19.8162 17.2096 19.8389 17.1225 19.8524C16.8075 19.9424 16.4625 20.0174 16.1025 20.0849L15.69 20.1524L15.255 20.2199L14.9325 20.2724L14.55 20.3174H14.25L13.9425 20.3549V18.2699L14.325 18.2324C14.535 18.2324 14.73 18.1949 14.9325 18.1649L15.2325 18.1274L15.5475 18.0749H16.065C16.176 18.1748 16.307 18.2499 16.4492 18.2952C16.5915 18.3404 16.7418 18.3548 16.89 18.3374C17.0447 18.3035 17.1892 18.2335 17.3118 18.1332C17.4343 18.0328 17.5313 17.9049 17.595 17.7599C18.3922 17.5546 19.1662 17.2681 19.905 16.9049C20.53 16.6083 21.1065 16.2189 21.615 15.7499C21.7462 15.9594 21.8306 16.1948 21.8625 16.4399Z" fill="#51BF9F"/>
<path d="M21.8625 16.4399C21.8449 16.8809 21.6753 17.3022 21.3825 17.6324C20.9973 18.0858 20.532 18.4646 20.01 18.7499L19.7925 18.8774L19.5525 18.9899L19.035 19.2299L18.7575 19.3349C18.4019 19.4792 18.0389 19.6043 17.67 19.7099L17.3775 19.7849C17.2951 19.8162 17.2096 19.8389 17.1225 19.8524C16.8075 19.9424 16.4625 20.0174 16.1025 20.0849L15.69 20.1524L15.255 20.2199L14.9325 20.2724L14.55 20.3174H14.25L13.9425 20.3549V19.9799L14.505 19.9199L14.8875 19.8749L15.2025 19.8299C15.3437 19.8154 15.4839 19.7929 15.6225 19.7624L16.035 19.6874C16.3875 19.6274 16.725 19.5524 17.04 19.4699L17.295 19.4024L17.565 19.3274C17.9267 19.2251 18.2822 19.1024 18.63 18.9599C18.717 18.9328 18.8021 18.9002 18.885 18.8624C19.0725 18.7874 19.2375 18.7049 19.38 18.6374L19.62 18.5174L19.8225 18.3974C20.3041 18.1446 20.7341 17.8037 21.09 17.3924C21.331 17.1319 21.4718 16.7944 21.4875 16.4399C21.4875 16.3949 21.4125 16.0724 21.36 15.8399L21.6225 15.6074C21.7723 15.8599 21.855 16.1465 21.8625 16.4399Z" fill="#3DA580"/>
<path d="M21.8625 19.2751C21.8625 21.4426 17.3625 23.2726 12 23.2726C6.63745 23.2726 2.13745 21.4426 2.13745 19.2751C2.14329 18.9814 2.22604 18.6944 2.37745 18.4426L2.42245 18.4801C2.44552 18.4938 2.46586 18.5116 2.48245 18.5326L2.66245 18.6826C2.73745 18.7501 2.81995 18.8101 2.88745 18.8626L3.04495 18.9751C3.19495 19.0801 3.34495 19.1776 3.50995 19.2751C3.58843 19.3271 3.67123 19.3723 3.75745 19.4101C3.84268 19.4641 3.93314 19.5093 4.02745 19.5451C4.08997 19.5845 4.15512 19.6196 4.22245 19.6501L4.31995 19.6951L4.41745 19.7401H4.46245L4.57495 19.7851L4.69495 19.8376C4.91245 19.9351 5.15245 20.0251 5.38495 20.1076L5.68495 20.2051C5.80495 20.2501 5.92495 20.2801 6.05245 20.3176L6.34495 20.4001C6.448 20.4346 6.55323 20.4622 6.65995 20.4826L6.98245 20.5651L7.77745 20.7301L8.03245 20.7751C8.15376 20.8018 8.27645 20.8218 8.39995 20.8351C8.52138 20.8594 8.64407 20.877 8.76745 20.8876C9.02245 20.9326 9.27745 20.9551 9.51745 20.9851L10.08 21.0301H11.25C11.2816 21.1547 11.3269 21.2754 11.385 21.3901C11.4745 21.569 11.6033 21.7253 11.7618 21.8473C11.9202 21.9694 12.1042 22.0541 12.3 22.0951C12.3848 22.1029 12.4701 22.1029 12.555 22.0951C12.8277 22.1045 13.0945 22.0138 13.305 21.8401C13.5808 21.606 13.7708 21.2867 13.845 20.9326H14.6175L15 21.0001L15.345 20.9476L15.7875 20.8876L16.23 20.8051C16.605 20.7301 16.98 20.6551 17.2875 20.5726L17.565 20.4901L17.8575 20.4151C18.27 20.2951 18.66 20.1601 19.005 20.0251C19.1053 19.9923 19.203 19.9522 19.2975 19.9051L19.8525 19.6576L20.1075 19.5301L20.355 19.3951C20.5125 19.3051 20.655 19.2151 20.79 19.1251C20.8309 19.1026 20.8687 19.0749 20.9025 19.0426L21.1875 18.8401L21.2925 18.7576C21.4001 18.671 21.5028 18.5783 21.6 18.4801C21.754 18.7183 21.8444 18.992 21.8625 19.2751ZM7.19995 17.0701C6.23999 16.8568 5.30674 16.5374 4.41745 16.1176C3.73104 15.8098 3.1195 15.3569 2.62495 14.7901C2.32615 14.463 2.15336 14.0403 2.13745 13.5976C2.14554 13.2975 2.23357 13.0049 2.39245 12.7501L2.54995 12.8851L2.67745 12.9901C3.06994 13.2257 3.38329 13.573 3.57745 13.9876C3.61235 14.1159 3.63989 14.2461 3.65995 14.3776C3.66224 14.5834 3.70979 14.7862 3.79922 14.9715C3.88866 15.1569 4.01779 15.3203 4.17745 15.4501C4.41739 15.5731 4.68881 15.621 4.95635 15.5875C5.22389 15.5541 5.47517 15.4409 5.67745 15.2626L5.80495 15.1726C6.01222 14.9813 6.27478 14.8605 6.55495 14.8276C6.87745 14.8276 7.12495 15.2476 7.17745 15.6226C7.19774 15.8722 7.19774 16.123 7.17745 16.3726C7.17745 16.5751 7.18495 16.8226 7.19995 17.0701ZM11.01 17.5651H9.89245C9.92995 17.4601 9.95995 17.3551 9.98995 17.2576C10.02 17.1601 10.05 16.8526 10.0725 16.6576C10.0938 16.3242 10.1725 15.9969 10.305 15.6901C10.3477 15.598 10.4186 15.5219 10.5075 15.4726C10.6125 15.4726 10.77 15.5476 10.8525 15.6901C10.9422 15.9296 10.983 16.1846 10.9725 16.4401C10.98 16.7776 11.0025 17.1676 11.01 17.5651ZM15.48 17.3251H15.4425L15.1575 17.3701H14.865L14.25 17.4376H13.9725V16.7701C13.9634 16.517 13.9938 16.2639 14.0625 16.0201C14.0917 15.9366 14.1402 15.8611 14.204 15.7999C14.2679 15.7386 14.3453 15.6933 14.43 15.6676C14.7375 15.6676 14.985 16.0951 15.1125 16.5601C15.1956 16.8322 15.3195 17.0902 15.48 17.3251ZM21.8625 13.5976C21.8447 14.0408 21.6753 14.4644 21.3825 14.7976C20.8822 15.3564 20.272 15.8057 19.59 16.1176C19.0172 16.3935 18.4227 16.6218 17.8125 16.8001C17.8276 16.5303 17.8276 16.2599 17.8125 15.9901V15.3901C17.8131 15.2006 17.8855 15.0184 18.015 14.8801H18.09C18.105 14.8801 18.255 15.0001 18.3375 15.0901L18.435 15.1876C18.6426 15.4419 18.938 15.6091 19.2629 15.6564C19.5878 15.7036 19.9185 15.6273 20.19 15.4426C20.3372 15.2838 20.4483 15.0949 20.5156 14.8891C20.5829 14.6832 20.6049 14.4652 20.58 14.2501C20.5732 14.0686 20.5909 13.887 20.6325 13.7101C20.7943 13.3702 21.0559 13.0876 21.3825 12.9001L21.6075 12.7351C21.7666 12.9953 21.8545 13.2927 21.8625 13.5976Z" fill="#F26E61"/>
<path d="M13.3725 3.50244C12.988 2.95976 12.4209 2.5737 11.775 2.41494C11.649 1.9121 11.6285 1.38858 11.715 0.877441C12.3066 1.18812 12.7941 1.66526 13.1175 2.24994C13.2915 2.64428 13.3785 3.07147 13.3725 3.50244ZM16.8375 2.30244C16.6952 3.08523 16.3155 3.80529 15.75 4.36494C15.4126 4.65982 15.0163 4.87967 14.5875 5.00994C14.3588 4.91781 14.1195 4.85482 13.875 4.82244C13.875 4.73994 13.875 4.64994 13.8375 4.56744C13.8 4.48494 13.8375 4.49994 13.8375 4.46244C13.8992 4.3002 13.9719 4.14233 14.055 3.98994C14.2188 3.68028 14.4315 3.39915 14.685 3.15744C15.2984 2.65939 16.0496 2.36102 16.8375 2.30244Z" fill="#51BF9F"/>
<path d="M13.3725 3.50244C13.2901 3.38431 13.1972 3.27387 13.095 3.17244L13.0275 2.75244C12.9933 2.60728 12.943 2.4664 12.8775 2.33244C12.6544 1.91756 12.3292 1.56648 11.9325 1.31244C11.9193 1.70119 11.9419 2.09033 12 2.47494C11.9296 2.44803 11.8567 2.42793 11.7825 2.41494C11.6564 1.9121 11.636 1.38858 11.7225 0.877441C12.3112 1.18929 12.7961 1.66633 13.1175 2.24994C13.2915 2.64428 13.3784 3.07147 13.3725 3.50244ZM16.845 2.30244C16.7128 3.10333 16.3294 3.84142 15.75 4.40994C15.4521 4.65314 15.1147 4.8434 14.7525 4.97244C14.7133 4.98369 14.6717 4.98369 14.6325 4.97244H14.5575L14.25 4.89744C14.7398 4.7271 15.1966 4.47337 15.6 4.14744C16.0249 3.73893 16.3264 3.21914 16.47 2.64744C15.7379 2.75064 15.0658 3.10925 14.5725 3.65994C14.3074 4.04003 14.0789 4.44433 13.89 4.86744C13.89 4.77744 13.8525 4.68744 13.83 4.59744C13.8161 4.51549 13.8292 4.43124 13.8675 4.35744C13.9299 4.20644 13.9999 4.05875 14.0775 3.91494C14.2423 3.63455 14.4498 3.38152 14.6925 3.16494C15.3029 2.66078 16.0553 2.35931 16.845 2.30244Z" fill="#3DA580"/>
<path d="M14.4525 5.7301C14.1738 5.59771 13.8685 5.531 13.56 5.5351H13.2975C12.9949 5.57478 12.7044 5.67903 12.4456 5.84078C12.1868 6.00252 11.9658 6.21799 11.7975 6.4726C11.5553 6.83464 11.43 7.26222 11.4383 7.6977C11.4467 8.13318 11.5884 8.55563 11.8443 8.90811C12.1001 9.26059 12.4579 9.52615 12.8694 9.669C13.2809 9.81185 13.7262 9.82512 14.1455 9.70702C14.5647 9.58892 14.9377 9.34513 15.2141 9.00852C15.4905 8.6719 15.6571 8.25863 15.6914 7.82442C15.7256 7.39021 15.626 6.95593 15.4058 6.58011C15.1856 6.20429 14.8555 5.90501 14.46 5.7226L14.4525 5.7301ZM14.07 6.7501C14.0361 6.78249 13.9961 6.80779 13.9523 6.82454C13.9085 6.84128 13.8618 6.84912 13.815 6.8476C13.768 6.85 13.7211 6.84257 13.6772 6.82578C13.6333 6.80899 13.5934 6.78321 13.56 6.7501C13.4915 6.81609 13.4001 6.85296 13.305 6.85296C13.2099 6.85296 13.1185 6.81609 13.05 6.7501C13.0153 6.71653 12.9877 6.67632 12.9688 6.63187C12.95 6.58742 12.9403 6.53963 12.9403 6.49135C12.9403 6.44307 12.95 6.39528 12.9688 6.35082C12.9877 6.30637 13.0153 6.26617 13.05 6.2326C13.1133 6.15695 13.1925 6.0961 13.2819 6.05436C13.3713 6.01261 13.4688 5.99098 13.5675 5.99098C13.6662 5.99098 13.7636 6.01261 13.8531 6.05436C13.9425 6.0961 14.0216 6.15695 14.085 6.2326C14.1513 6.30338 14.1869 6.3975 14.1841 6.49444C14.1813 6.59137 14.1403 6.68327 14.07 6.7501ZM10.71 7.6576C10.7076 7.21156 10.8131 6.77157 11.0175 6.3751C10.7455 6.18011 10.4313 6.05219 10.1004 6.0018C9.76955 5.95142 9.43148 5.97998 9.11377 6.08515C8.79606 6.19033 8.50772 6.36915 8.2723 6.60701C8.03687 6.84486 7.86103 7.13502 7.75912 7.45379C7.65721 7.77257 7.63213 8.11092 7.68592 8.44123C7.7397 8.77155 7.87084 9.08446 8.06862 9.35444C8.26639 9.62441 8.52521 9.84379 8.82393 9.99467C9.12266 10.1455 9.45283 10.2236 9.78749 10.2226C10.0909 10.2194 10.39 10.1507 10.6644 10.0213C10.9388 9.89186 11.1821 9.7047 11.3775 9.4726C10.9525 8.96262 10.7166 8.32145 10.71 7.6576ZM10.0875 7.1251C10.0174 7.18786 9.92659 7.22257 9.83249 7.2226C9.7845 7.22261 9.73703 7.21262 9.69313 7.19324C9.64922 7.17387 9.60983 7.14555 9.57749 7.1101C9.51086 7.17872 9.41969 7.21807 9.32405 7.21947C9.2284 7.22088 9.13612 7.18423 9.06749 7.1176C8.99887 7.05096 8.95952 6.95979 8.95812 6.86415C8.95671 6.76851 8.99336 6.67622 9.05999 6.6076C9.12377 6.53201 9.2029 6.47086 9.29212 6.42819C9.38134 6.38551 9.47862 6.3623 9.57749 6.3601C9.77597 6.37076 9.9621 6.45978 10.095 6.6076C10.1292 6.64167 10.1562 6.68227 10.1744 6.727C10.1926 6.77172 10.2017 6.81965 10.201 6.86794C10.2003 6.91622 10.1899 6.96387 10.1704 7.00805C10.1509 7.05223 10.1227 7.09203 10.0875 7.1251ZM13.1475 4.7101C13.1431 4.65842 13.1304 4.60778 13.11 4.5601V4.5001C12.9898 4.12769 12.7708 3.79491 12.4762 3.53733C12.1816 3.27974 11.8226 3.10701 11.4375 3.0376H11.0775C10.5146 3.0376 9.9747 3.26122 9.57666 3.65926C9.17861 4.05731 8.95499 4.59718 8.95499 5.1601C8.95127 5.22755 8.95127 5.29515 8.95499 5.3626C9.2251 5.28272 9.50587 5.24478 9.78749 5.2501C10.3761 5.2513 10.9498 5.43469 11.43 5.7751C11.8792 5.26452 12.4965 4.9319 13.17 4.8376C13.1658 4.79457 13.1583 4.75194 13.1475 4.7101ZM11.58 4.1326C11.5491 4.16785 11.511 4.19612 11.4684 4.21552C11.4257 4.23492 11.3794 4.245 11.3325 4.2451C11.2341 4.24141 11.1405 4.20132 11.07 4.1326C11.0024 4.20122 10.9102 4.24017 10.8139 4.24087C10.7175 4.24158 10.6249 4.20398 10.5562 4.13635C10.4876 4.06872 10.4487 3.9766 10.448 3.88025C10.4473 3.7839 10.4849 3.69122 10.5525 3.6226C10.6854 3.47478 10.8715 3.38576 11.07 3.3751C11.2685 3.38576 11.4546 3.47478 11.5875 3.6226C11.6225 3.65545 11.6503 3.69524 11.669 3.73944C11.6878 3.78363 11.6971 3.83125 11.6964 3.87925C11.6957 3.92726 11.685 3.97458 11.6649 4.01821C11.6449 4.06183 11.616 4.10079 11.58 4.1326Z" fill="#F26E61"/>
<path d="M11.58 4.1325C11.5491 4.16776 11.5111 4.19602 11.4684 4.21542C11.4257 4.23482 11.3794 4.2449 11.3325 4.245C11.2341 4.24131 11.1406 4.20122 11.07 4.1325C11.0365 4.16648 10.9967 4.19353 10.9528 4.21211C10.9088 4.23069 10.8616 4.24043 10.8139 4.24078C10.7662 4.24112 10.7189 4.23207 10.6747 4.21414C10.6305 4.1962 10.5903 4.16974 10.5563 4.13625C10.5223 4.10276 10.4953 4.06291 10.4767 4.01897C10.4581 3.97503 10.4484 3.92786 10.448 3.88015C10.4477 3.83245 10.4567 3.78514 10.4746 3.74093C10.4926 3.69672 10.519 3.65648 10.5525 3.6225C10.6854 3.47468 10.8716 3.38567 11.07 3.375C11.2685 3.38567 11.4546 3.47468 11.5875 3.6225C11.6225 3.65535 11.6503 3.69514 11.6691 3.73934C11.6878 3.78353 11.6971 3.83115 11.6964 3.87916C11.6957 3.92716 11.685 3.97448 11.665 4.01811C11.6449 4.06173 11.616 4.10069 11.58 4.1325Z" fill="#2B2E63"/>
<path d="M14.4525 5.73009C14.1738 5.5977 13.8685 5.53099 13.56 5.53509H13.2975C12.9949 5.57478 12.7044 5.67902 12.4456 5.84077C12.1868 6.00252 11.9658 6.21799 11.7975 6.47259C11.5554 6.83463 11.43 7.26221 11.4384 7.69769C11.4467 8.13317 11.5884 8.55562 11.8443 8.9081C12.1002 9.26058 12.458 9.52614 12.8694 9.66899C13.2809 9.81184 13.7263 9.82511 14.1455 9.70701C14.5648 9.58891 14.9377 9.34513 15.2141 9.00851C15.4905 8.67189 15.6571 8.25862 15.6914 7.82441C15.7257 7.3902 15.626 6.95592 15.4058 6.5801C15.1856 6.20429 14.8555 5.905 14.46 5.72259L14.4525 5.73009ZM13.56 9.40509C13.1146 9.4056 12.6856 9.23668 12.36 8.93259C12.1232 8.70314 11.9559 8.41163 11.8771 8.09146C11.7984 7.77129 11.8114 7.43541 11.9148 7.1223C12.0181 6.80919 12.2075 6.53153 12.4614 6.32111C12.7152 6.1107 13.0232 5.97605 13.35 5.93259H13.56C13.8189 5.92606 14.0757 5.97999 14.31 6.09009C14.6751 6.25647 14.9719 6.54343 15.1504 6.90277C15.3289 7.26211 15.3784 7.67194 15.2904 8.06342C15.2024 8.4549 14.9824 8.80418 14.6673 9.05259C14.3522 9.301 13.9612 9.43342 13.56 9.42759V9.40509Z" fill="#E15E5A"/>
<path d="M15.315 7.65741C15.3139 7.99919 15.213 8.3332 15.0248 8.61845C14.8365 8.90371 14.5691 9.12779 14.2553 9.26319C13.9414 9.39859 13.5949 9.43942 13.2582 9.38066C12.9216 9.3219 12.6094 9.16611 12.36 8.93241C12.1232 8.70296 11.9558 8.41145 11.8771 8.09128C11.7983 7.77111 11.8114 7.43523 11.9147 7.12213C12.018 6.80902 12.2075 6.53135 12.4613 6.32094C12.7151 6.11052 13.0231 5.97587 13.35 5.93241H13.56C13.8188 5.92588 14.0756 5.97981 14.31 6.08991C14.6082 6.22989 14.8608 6.45132 15.0386 6.72866C15.2164 7.00601 15.3122 7.32797 15.315 7.65741Z" fill="#F26E61"/>
<path d="M11.3775 9.49489C11.1821 9.72699 10.9389 9.91416 10.6645 10.0436C10.3901 10.173 10.0909 10.2417 9.78753 10.2449C9.22323 10.2429 8.6826 10.0179 8.28357 9.61885C7.88455 9.21982 7.6595 8.6792 7.65753 8.11489C7.65464 7.72319 7.76021 7.33833 7.96255 7.00292C8.16488 6.6675 8.45609 6.39463 8.80393 6.2145C9.15177 6.03436 9.54267 5.95401 9.93336 5.98231C10.3241 6.01062 10.6993 6.1465 11.0175 6.37489C10.9585 6.49095 10.9084 6.61129 10.8675 6.73489C10.7611 6.6438 10.6425 6.56807 10.515 6.50989C10.2812 6.39816 10.024 6.34415 9.76503 6.35239H9.39003C9.00469 6.44139 8.6614 6.65954 8.41718 6.97061C8.17296 7.28168 8.04252 7.66694 8.04753 8.06239C8.04155 8.29153 8.0809 8.51959 8.16332 8.73347C8.24575 8.94735 8.36962 9.14284 8.52782 9.30871C8.68602 9.47457 8.87543 9.60755 9.08518 9.69999C9.29492 9.79244 9.52087 9.84253 9.75003 9.84739C10.0161 9.84634 10.2784 9.78506 10.5174 9.66816C10.7564 9.55126 10.9659 9.38176 11.13 9.17239C11.2033 9.28664 11.2861 9.39452 11.3775 9.49489ZM13.17 4.82989L12.81 4.90489C12.7682 4.6178 12.655 4.3458 12.4807 4.11385C12.3064 3.88191 12.0767 3.69745 11.8125 3.57739C11.6614 3.50398 11.4992 3.45585 11.3325 3.43489C11.2505 3.39598 11.1609 3.3755 11.07 3.37489C10.9817 3.37635 10.8947 3.39681 10.815 3.43489C10.5747 3.46896 10.3442 3.55337 10.1387 3.68261C9.93324 3.81185 9.75734 3.98301 9.62253 4.18489C9.43286 4.4748 9.33126 4.81346 9.33003 5.15989V5.24989C9.20571 5.27191 9.08295 5.30197 8.96253 5.33989C8.95881 5.27244 8.95881 5.20484 8.96253 5.13739C8.96253 4.57447 9.18615 4.0346 9.58419 3.63656C9.98224 3.23851 10.5221 3.01489 11.085 3.01489H11.445C11.8346 3.08746 12.1967 3.26578 12.4916 3.53034C12.7866 3.7949 13.0032 4.13551 13.1175 4.51489C13.1379 4.56258 13.1506 4.61322 13.155 4.66489C13.1656 4.71925 13.1706 4.77453 13.17 4.82989Z" fill="#E15E5A"/>
<path d="M21.6075 11.715L21.435 11.9175C21.3 12.0375 21.15 12.15 20.9775 12.2775C20.5026 12.5564 20.1354 12.987 19.935 13.5C19.8761 13.7455 19.8484 13.9975 19.8525 14.25C19.8525 14.595 19.8525 14.805 19.695 14.9175C19.5375 15.03 19.155 14.9175 18.945 14.7075L18.8775 14.6175C18.7095 14.4058 18.4783 14.2534 18.2175 14.1825C18.1033 14.1621 17.986 14.1663 17.8735 14.1947C17.761 14.2232 17.6559 14.2753 17.565 14.3475C17.4169 14.4808 17.2968 14.6424 17.2118 14.8227C17.1269 15.003 17.0786 15.1984 17.07 15.3975V16.065C17.1191 16.4512 17.0937 16.8433 16.995 17.22C16.9781 17.2639 16.9581 17.3065 16.935 17.3475C16.875 17.46 16.8075 17.535 16.7475 17.5425C16.6875 17.55 16.56 17.505 16.38 17.34C16.1291 17.0861 15.9349 16.7819 15.81 16.4475C15.555 15.4875 15.0075 14.9475 14.3625 15.0225C14.1415 15.0555 13.9338 15.1484 13.7619 15.2913C13.59 15.4341 13.4605 15.6213 13.3875 15.8325C13.2772 16.1659 13.2289 16.5167 13.245 16.8675V20.25C13.2762 20.4653 13.2601 20.6849 13.198 20.8934C13.1358 21.1019 13.029 21.2944 12.885 21.4575C12.835 21.4973 12.7767 21.5253 12.7144 21.5396C12.6521 21.5539 12.5874 21.554 12.525 21.54C12.4363 21.5212 12.3528 21.4833 12.2802 21.4289C12.2077 21.3745 12.1479 21.3049 12.105 21.225C11.9717 20.9166 11.8979 20.5858 11.8875 20.25C11.835 19.5 11.7975 18.75 11.7525 17.955C11.7525 17.4225 11.7075 16.905 11.7 16.3875C11.719 16.0133 11.6469 15.6402 11.49 15.3C11.3859 15.0781 11.2074 14.8996 10.9855 14.7955C10.7636 14.6914 10.5122 14.6682 10.275 14.73C10.01 14.836 9.79357 15.0364 9.66754 15.2925C9.48382 15.6702 9.37676 16.0806 9.35254 16.5C9.3378 16.6768 9.31023 16.8522 9.27004 17.025C9.18754 17.445 8.91004 17.9025 8.56504 17.8725C8.22004 17.8425 7.99504 17.4675 7.93504 17.1225C7.90998 16.8731 7.90998 16.6219 7.93504 16.3725C7.961 16.0881 7.961 15.8019 7.93504 15.5175C7.90959 15.1661 7.76483 14.834 7.52475 14.5762C7.28467 14.3184 6.9637 14.1504 6.61504 14.1C6.18529 14.1278 5.77669 14.2965 5.45254 14.58L5.34004 14.6625C5.10754 14.8275 4.80004 14.955 4.63504 14.8425C4.47004 14.73 4.47754 14.5725 4.42504 14.2575C4.40294 14.09 4.36783 13.9245 4.32004 13.7625C4.08546 13.2055 3.68811 12.7323 3.18004 12.405L3.00004 12.3075C2.78081 12.1472 2.59985 11.9403 2.47016 11.7017C2.34048 11.463 2.2653 11.1986 2.25004 10.9275C2.24389 10.5952 2.30746 10.2654 2.43664 9.95925C2.56582 9.65309 2.75775 9.37741 3.00004 9.14999C3.59368 8.6168 4.28701 8.20641 5.04004 7.94249C5.68951 7.6996 6.35326 7.49672 7.02754 7.33499C6.95871 7.57908 6.92338 7.83139 6.92254 8.08499C6.92402 8.6631 7.10082 9.22716 7.42958 9.70269C7.75835 10.1782 8.22362 10.5428 8.76394 10.7484C9.30427 10.954 9.89424 10.9908 10.4559 10.8541C11.0177 10.7173 11.5247 10.4134 11.91 9.98249C12.3926 10.3172 12.9653 10.4976 13.5525 10.5C14.3091 10.5 15.0348 10.2 15.5704 9.6657C16.1061 9.13144 16.4081 8.40655 16.41 7.64999C16.4062 7.49163 16.3912 7.33373 16.365 7.17749C17.7687 7.41146 19.1121 7.92128 20.3175 8.67749C20.8787 9.0055 21.3402 9.47992 21.6525 10.05C21.7625 10.2861 21.8286 10.5402 21.8475 10.8C21.8735 11.1234 21.7888 11.446 21.6075 11.715Z" fill="#FFDC7C"/>
<path d="M11.1825 20.4224H10.1775C9.99753 20.4224 9.81753 20.4074 9.63753 20.3774L8.88753 20.2949L8.52753 20.2349C8.40906 20.2248 8.29133 20.2072 8.17503 20.1824L7.92003 20.1299C7.66503 20.0849 7.41753 20.0399 7.17003 19.9724L6.84753 19.8899C6.75117 19.8736 6.65597 19.8511 6.56253 19.8224L6.28503 19.7399L5.93253 19.6349L5.66253 19.4999C5.43753 19.4249 5.22003 19.3424 5.01003 19.2524L4.88253 19.1999H4.74753L4.67253 19.1624C4.65274 19.1665 4.63233 19.1665 4.61253 19.1624L4.41753 19.0649L4.17003 18.9374L3.95253 18.8174C3.80253 18.7349 3.66753 18.6374 3.53253 18.5474L3.37503 18.4424L3.15753 18.2624C3.09782 18.1795 3.04514 18.0917 3.00003 17.9999C2.96224 17.9794 2.92906 17.9513 2.90253 17.9174C2.80936 17.8301 2.72403 17.7347 2.64753 17.6324C2.35094 17.3039 2.17849 16.8821 2.16003 16.4399C2.16481 16.1461 2.24764 15.8587 2.40003 15.6074L2.64003 15.8174C2.58753 16.0424 2.51253 16.3724 2.51253 16.4249C2.53169 16.7823 2.67492 17.1218 2.91753 17.3849C2.99091 17.4783 3.07113 17.566 3.15753 17.6474L3.22503 17.7074C3.27019 17.7501 3.31777 17.7902 3.36753 17.8274L3.41253 17.8724L3.56253 17.9849L3.71253 18.0899C3.84291 18.1844 3.9781 18.272 4.11753 18.3524L4.32003 18.4649L4.56003 18.5924L4.73253 18.6749L4.84503 18.7274L4.93503 18.7724L5.14503 18.8549C5.29503 18.9149 5.52753 19.0124 5.78253 19.1024L6.06003 19.1924L6.31503 19.2674H6.39753L6.66753 19.3499L6.94503 19.4174L7.25253 19.4999C7.50753 19.5599 7.74753 19.6049 8.00253 19.6499L8.26503 19.7024L8.59503 19.7549H8.95503C9.18753 19.7924 9.42753 19.8149 9.70503 19.8449L10.2675 19.8899H11.175V20.1449C11.175 20.3174 11.175 20.3699 11.1825 20.4224Z" fill="#3DA580"/>
<path d="M21.8625 19.2749C21.8625 21.4424 17.3625 23.2724 12 23.2724C6.63745 23.2724 2.13745 21.4424 2.13745 19.2749C2.14329 18.9812 2.22604 18.6941 2.37745 18.4424L2.42245 18.4799C2.44552 18.4935 2.46586 18.5113 2.48245 18.5324L2.60995 18.6449C2.55745 18.8699 2.49745 19.2074 2.49745 19.2524C2.49745 20.9624 6.39745 22.8749 11.985 22.8749C17.5725 22.8749 21.4875 20.9999 21.4875 19.2749C21.4948 19.2076 21.4948 19.1397 21.4875 19.0724C21.4875 19.0724 21.4275 18.8774 21.375 18.6899L21.645 18.4424C21.7895 18.6959 21.8645 18.9831 21.8625 19.2749Z" fill="#E15E5A"/>
<path d="M21.6075 11.715L21.435 11.9175C21.3 12.0375 21.15 12.15 20.9775 12.2775C20.5026 12.5564 20.1354 12.987 19.935 13.5C19.8761 13.7455 19.8484 13.9975 19.8525 14.25C19.8525 14.595 19.8525 14.805 19.695 14.9175C19.5375 15.03 19.155 14.9175 18.945 14.7075L18.8775 14.6175C18.7095 14.4058 18.4783 14.2534 18.2175 14.1825C18.1033 14.1621 17.986 14.1663 17.8735 14.1947C17.761 14.2232 17.6559 14.2753 17.565 14.3475C17.4169 14.4808 17.2968 14.6424 17.2119 14.8227C17.1269 15.003 17.0787 15.1984 17.07 15.3975V16.065C17.1191 16.4512 17.0937 16.8433 16.995 17.22C16.9781 17.2639 16.9581 17.3065 16.935 17.3475C16.875 17.46 16.8075 17.535 16.7475 17.5425C16.6875 17.55 16.56 17.505 16.38 17.34C16.1291 17.0861 15.9349 16.7819 15.81 16.4475C15.555 15.4875 15.0075 14.9475 14.3625 15.0225C14.1415 15.0555 13.9338 15.1484 13.7619 15.2913C13.59 15.4341 13.4605 15.6213 13.3875 15.8325C13.2772 16.1659 13.2289 16.5167 13.245 16.8675V20.25C13.2762 20.4653 13.2601 20.6849 13.198 20.8934C13.1358 21.1019 13.029 21.2944 12.885 21.4575C12.835 21.4973 12.7767 21.5253 12.7144 21.5396C12.6521 21.5539 12.5874 21.554 12.525 21.54C12.4363 21.5212 12.3528 21.4833 12.2802 21.4289C12.2077 21.3745 12.1479 21.3049 12.105 21.225C11.9717 20.9166 11.8979 20.5858 11.8875 20.25C11.835 19.5 11.7975 18.75 11.7525 17.955C11.7525 17.4225 11.7075 16.905 11.7 16.3875C11.719 16.0133 11.6469 15.6402 11.49 15.3C11.3859 15.0781 11.2074 14.8996 10.9855 14.7955C10.7636 14.6914 10.5122 14.6682 10.275 14.73C10.01 14.836 9.79357 15.0364 9.66754 15.2925C9.48382 15.6702 9.37676 16.0806 9.35254 16.5C9.3378 16.6768 9.31023 16.8522 9.27004 17.025C9.18754 17.445 8.91004 17.9025 8.56504 17.8725C8.22004 17.8425 7.99504 17.4675 7.93504 17.1225C7.90998 16.8731 7.90998 16.6219 7.93504 16.3725C7.961 16.0881 7.961 15.8019 7.93504 15.5175C7.90959 15.1661 7.76483 14.834 7.52475 14.5762C7.28467 14.3184 6.9637 14.1504 6.61504 14.1C6.18529 14.1278 5.77669 14.2965 5.45254 14.58L5.34004 14.6625C5.10754 14.8275 4.80004 14.955 4.63504 14.8425C4.47004 14.73 4.47754 14.5725 4.42504 14.2575C4.40294 14.09 4.36783 13.9245 4.32004 13.7625C4.08546 13.2055 3.68811 12.7323 3.18004 12.405L3.00004 12.3075C2.78081 12.1472 2.59985 11.9403 2.47016 11.7017C2.34048 11.463 2.2653 11.1986 2.25004 10.9275C2.24389 10.5952 2.30746 10.2654 2.43664 9.95925C2.56582 9.65309 2.75775 9.37741 3.00004 9.14999C3.59368 8.6168 4.28701 8.20641 5.04004 7.94249C5.68951 7.6996 6.35326 7.49672 7.02754 7.33499C6.99213 7.46826 6.96458 7.60349 6.94504 7.73999L6.55504 7.83749C6.09004 7.97249 5.62504 8.12249 5.17504 8.29499C4.46831 8.53744 3.81782 8.92008 3.26254 9.41999C3.05106 9.60779 2.88261 9.83903 2.76871 10.0979C2.6548 10.3568 2.59812 10.6372 2.60254 10.92C2.62281 11.1341 2.68888 11.3414 2.79629 11.5277C2.90369 11.7141 3.04992 11.8751 3.22504 12L3.36004 12.0975C3.93087 12.4671 4.37356 13.0041 4.62754 13.635C4.68151 13.8167 4.72162 14.0022 4.74754 14.19C4.7584 14.2886 4.77594 14.3863 4.80004 14.4825C4.89459 14.4528 4.98337 14.4071 5.06254 14.3475L5.25004 14.25C5.61465 13.9457 6.0662 13.7645 6.54004 13.7325H6.60004C7.02939 13.7916 7.42612 13.9942 7.7257 14.3074C8.02527 14.6206 8.21007 15.0259 8.25004 15.4575C8.292 15.7606 8.30456 16.067 8.28754 16.3725C8.26426 16.5919 8.26426 16.8131 8.28754 17.0325C8.32504 17.31 8.49004 17.4975 8.56504 17.4975C8.64004 17.4975 8.80504 17.3025 8.88754 16.9425C8.88754 16.8075 8.93254 16.665 8.95504 16.5V16.4475C8.98063 15.9769 9.09782 15.5157 9.30004 15.09C9.47024 14.7418 9.76858 14.4731 10.1325 14.34C10.2581 14.2976 10.3901 14.2773 10.5225 14.28C10.7857 14.2907 11.0413 14.3705 11.2638 14.5114C11.4863 14.6523 11.6678 14.8492 11.79 15.0825C11.9785 15.4748 12.0661 15.9078 12.045 16.3425C12.045 16.86 12.045 17.37 12.0975 17.895C12.1425 18.7125 12.18 19.4775 12.2325 20.1825C12.2456 20.4648 12.3118 20.7422 12.4275 21C12.4394 21.0303 12.4586 21.0571 12.4835 21.0781C12.5084 21.0991 12.5382 21.1135 12.57 21.12H12.6225C12.8175 20.97 12.84 20.565 12.8475 20.1975V16.815C12.8308 16.4176 12.8894 16.0206 13.02 15.645C13.1186 15.3723 13.2891 15.1313 13.5136 14.9477C13.7381 14.7642 14.0082 14.6449 14.295 14.6025H14.445C15.195 14.6025 15.8625 15.24 16.155 16.3125C16.2578 16.5785 16.4134 16.8209 16.6125 17.025C16.6901 16.6984 16.7079 16.3604 16.665 16.0275V15.9525C16.6536 15.7426 16.6536 15.5323 16.665 15.3225C16.6769 15.0705 16.7387 14.8234 16.8469 14.5956C16.955 14.3677 17.1074 14.1635 17.295 13.995C17.5109 13.8311 17.774 13.7416 18.045 13.74C18.1174 13.7326 18.1902 13.7326 18.2625 13.74C18.6063 13.8179 18.9117 14.0144 19.125 14.295L19.2 14.37C19.2628 14.4433 19.3466 14.4957 19.44 14.52C19.4472 14.4001 19.4472 14.2799 19.44 14.16V14.1225C19.4437 13.8696 19.4764 13.6179 19.5375 13.3725C19.7639 12.7906 20.1854 12.3054 20.73 12L21.1125 11.6925L21.1575 11.61H21.225C21.2565 11.581 21.2842 11.5483 21.3075 11.5125C21.4442 11.3127 21.5054 11.0708 21.48 10.83C21.4638 10.6318 21.4104 10.4384 21.3225 10.26C21.0431 9.73976 20.6285 9.30449 20.1225 8.99999C19.1022 8.35447 17.9743 7.89723 16.7925 7.64999L16.41 7.58249C16.4053 7.44688 16.3928 7.31166 16.3725 7.17749C17.7762 7.41146 19.1196 7.92128 20.325 8.67749C20.8862 9.0055 21.3477 9.47992 21.66 10.05C21.77 10.2861 21.8361 10.5402 21.855 10.8C21.8788 11.1242 21.7915 11.4469 21.6075 11.715Z" fill="#ECC25D"/>
<path d="M14.07 6.75009C14.0362 6.78248 13.9962 6.80778 13.9524 6.82453C13.9086 6.84127 13.8619 6.84911 13.815 6.84759C13.7681 6.84999 13.7212 6.84256 13.6772 6.82577C13.6333 6.80898 13.5934 6.7832 13.56 6.75009C13.4916 6.81608 13.4002 6.85295 13.305 6.85295C13.2099 6.85295 13.1185 6.81608 13.05 6.75009C13.0153 6.71652 12.9877 6.67631 12.9689 6.63186C12.9501 6.58741 12.9403 6.53962 12.9403 6.49134C12.9403 6.44305 12.9501 6.39527 12.9689 6.35081C12.9877 6.30636 13.0153 6.26616 13.05 6.23259C13.1134 6.15693 13.1926 6.09609 13.282 6.05435C13.3714 6.0126 13.4689 5.99097 13.5675 5.99097C13.6662 5.99097 13.7637 6.0126 13.8531 6.05435C13.9425 6.09609 14.0217 6.15693 14.085 6.23259C14.1513 6.30337 14.1869 6.39749 14.1841 6.49443C14.1813 6.59136 14.1403 6.68326 14.07 6.75009ZM10.0875 7.12509C10.0174 7.18785 9.92664 7.22256 9.83254 7.22259C9.78455 7.2226 9.73709 7.2126 9.69318 7.19323C9.64927 7.17386 9.60989 7.14554 9.57754 7.11009C9.54455 7.14407 9.50518 7.17121 9.4617 7.18998C9.41821 7.20875 9.37145 7.21876 9.3241 7.21946C9.27674 7.22016 9.22971 7.21152 9.18569 7.19404C9.14167 7.17656 9.10152 7.15058 9.06754 7.11759C9.03356 7.08459 9.00642 7.04523 8.98765 7.00174C8.96888 6.95825 8.95887 6.9115 8.95817 6.86414C8.95747 6.81678 8.96611 6.76975 8.98359 6.72573C9.00107 6.68171 9.02705 6.64157 9.06004 6.60759C9.12383 6.532 9.20295 6.47084 9.29217 6.42817C9.38139 6.3855 9.47867 6.36229 9.57754 6.36009C9.77603 6.37075 9.96216 6.45977 10.095 6.60759C10.1293 6.64166 10.1563 6.68226 10.1745 6.72699C10.1927 6.77171 10.2017 6.81964 10.201 6.86793C10.2003 6.91621 10.1899 6.96386 10.1704 7.00804C10.1509 7.05222 10.1227 7.09202 10.0875 7.12509Z" fill="#2B2E63"/>
</g>
<defs>
<clipPath id="clip0_172_139">
<rect width="24" height="24" fill="white"/>
</clipPath>
</defs>
</svg>
