<svg width="13" height="13" viewBox="0 0 13 13" fill="none" xmlns="http://www.w3.org/2000/svg">
<path fill-rule="evenodd" clip-rule="evenodd" d="M0.08011 7.03036C0.266661 7.68231 0.769115 8.18412 1.77337 9.18837L2.96288 10.3779C4.71139 12.127 5.585 13 6.6705 13C7.75666 13 8.63027 12.1257 10.3781 10.3779C12.1273 8.63002 13.0002 7.75641 13.0002 6.67026C13.0002 5.58475 12.126 4.71049 10.3781 2.96263L9.18862 1.77312C8.18436 0.768868 7.68256 0.266415 7.03061 0.0798636C6.37865 -0.107338 5.6864 0.0525634 4.30254 0.372366L3.50433 0.556317C2.33953 0.824769 1.75712 0.95932 1.35802 1.35777C0.959566 1.75687 0.825015 2.33928 0.556563 3.50409L0.371962 4.30229C0.0528099 5.6868 -0.106441 6.37841 0.08011 7.03036ZM5.28014 3.42609C5.40551 3.54699 5.50554 3.69166 5.57437 3.85166C5.6432 4.01165 5.67947 4.18375 5.68105 4.35791C5.68263 4.53208 5.64949 4.70481 5.58357 4.86602C5.51764 5.02724 5.42026 5.1737 5.2971 5.29686C5.17395 5.42001 5.02748 5.5174 4.86627 5.58332C4.70506 5.64924 4.53232 5.68238 4.35816 5.6808C4.184 5.67922 4.01189 5.64296 3.8519 5.57412C3.69191 5.50529 3.54724 5.40527 3.42633 5.2799C3.18782 5.03257 3.05593 4.7015 3.05904 4.35791C3.06215 4.01433 3.20003 3.6857 3.44299 3.44274C3.68595 3.19978 4.01458 3.06191 4.35816 3.05879C4.70174 3.05568 5.03282 3.18757 5.28014 3.42609ZM11.0834 6.53311L6.547 11.0701C6.45502 11.1589 6.33185 11.208 6.20403 11.2068C6.07621 11.2056 5.95396 11.1543 5.86361 11.0639C5.77327 10.9734 5.72206 10.8512 5.72101 10.7233C5.71996 10.5955 5.76915 10.4724 5.858 10.3805L10.3937 5.84345C10.4852 5.752 10.6092 5.70062 10.7386 5.70062C10.8679 5.70062 10.9919 5.752 11.0834 5.84345C11.1748 5.93491 11.2262 6.05894 11.2262 6.18828C11.2262 6.31761 11.1748 6.44165 11.0834 6.53311Z" fill="#23CF96"/>
</svg>
