<svg width="24" height="24" viewBox="0 0 24 24" fill="none" xmlns="http://www.w3.org/2000/svg">
<g clip-path="url(#clip0_172_178)">
<path d="M2.6825 22.669H4.18034V12.3749C4.18034 11.2744 5.07824 10.3765 6.17876 10.3765H17.8356C18.9361 10.3765 19.834 11.2744 19.834 12.3749V22.669H21.3001V8.47729H2.6825V22.669Z" fill="#FFC10D"/>
<path d="M17.768 18.2392V22.6691H18.499V12.375C18.499 12.0095 18.2011 11.7075 17.8315 11.7075H6.17872C5.81323 11.7075 5.51123 12.0055 5.51123 12.375V22.6691H6.27804V18.2392C6.27804 17.8737 6.57598 17.5717 6.94553 17.5717H17.1363C17.47 17.5717 17.768 17.8736 17.768 18.2392Z" fill="white"/>
<path d="M10.1438 19.4707C10.1438 19.8362 9.84588 20.1382 9.47634 20.1382C9.10685 20.1382 8.80885 19.8402 8.80885 19.4707V18.9026H7.60901V22.665H11.3714V18.9026H10.1716V19.4707H10.1438Z" fill="#FFC10D"/>
<path d="M15.2055 19.4707C15.2055 19.8362 14.9075 20.1382 14.538 20.1382C14.1725 20.1382 13.8705 19.8402 13.8705 19.4707V18.9026H12.6707V22.665H16.4331V18.9026H15.2333V19.4707H15.2055Z" fill="#FFC10D"/>
<path d="M1.34753 5.48171V7.14641H22.6668V5.48171L12.0072 1.3855L1.34753 5.48171Z" fill="#56ACE0"/>
<path d="M23.544 4.41704L12.221 0.0506564C12.0541 -0.0168855 11.8873 -0.0168855 11.7561 0.0506564L0.43303 4.41304C0.166857 4.51236 0 4.74675 0 5.04476V7.80999C0 8.17547 0.297947 8.47748 0.667491 8.47748H1.33498V23.3326C1.33498 23.6981 1.63293 24.0001 2.00247 24.0001H21.955C22.3205 24.0001 22.6225 23.7021 22.6225 23.3326V8.47742H23.29C23.6555 8.47742 23.9575 8.17947 23.9575 7.80993V5.04476C23.9771 4.74675 23.8103 4.51635 23.544 4.41704ZM22.6461 7.14649H1.32693V5.51356L11.9865 1.41735L22.6461 5.51356V7.14649H22.6461ZM16.4165 22.6691H12.6541V18.9066H13.8539V19.4748C13.8539 19.8403 14.1518 20.1423 14.5214 20.1423C14.8869 20.1423 15.1889 19.8442 15.1889 19.4748V18.9066H16.3887V22.6691H16.4165ZM11.3191 22.6691H7.55664V18.9066H8.75648V19.4748C8.75648 19.8403 9.05443 20.1423 9.42397 20.1423C9.79346 20.1423 10.0915 19.8442 10.0915 19.4748V18.9066H11.2913V22.6691H11.3191ZM6.22572 18.2392V22.6691H5.49468V12.375C5.49468 12.0095 5.79263 11.7075 6.16217 11.7075H17.819C18.1846 11.7075 18.4865 12.0055 18.4865 12.375V22.6691H17.7197V18.2392C17.7197 17.8737 17.4218 17.5717 17.0522 17.5717H6.88915C6.52366 17.5717 6.22572 17.8736 6.22572 18.2392ZM21.3112 22.6691H19.8134V12.375C19.8134 11.2745 18.9155 10.3766 17.815 10.3766H6.15818C5.05766 10.3766 4.15976 11.2745 4.15976 12.375V22.6691H2.66191V8.47742H21.2795V22.6651H21.3112V22.6691Z" fill="#194F82"/>
</g>
<defs>
<clipPath id="clip0_172_178">
<rect width="24" height="24" fill="white"/>
</clipPath>
</defs>
</svg>
