<svg width="34" height="34" viewBox="0 0 34 34" fill="none" xmlns="http://www.w3.org/2000/svg">
<g clip-path="url(#clip0_144_362)">
<path d="M17 33.0556C25.8673 33.0556 33.0556 25.8673 33.0556 17C33.0556 8.13278 25.8673 0.944458 17 0.944458C8.13278 0.944458 0.944458 8.13278 0.944458 17C0.944458 25.8673 8.13278 33.0556 17 33.0556Z" fill="#E5A157"/>
<path d="M17 31.6389C25.6064 31.6389 32.5833 24.662 32.5833 16.0556C32.5833 7.44912 25.6064 0.472229 17 0.472229C8.39352 0.472229 1.41663 7.44912 1.41663 16.0556C1.41663 24.662 8.39352 31.6389 17 31.6389Z" fill="#EDB97F"/>
<path d="M15.6399 26.4274C16.1094 26.4274 16.4899 26.0469 16.4899 25.5774C16.4899 25.108 16.1094 24.7274 15.6399 24.7274C15.1705 24.7274 14.7899 25.108 14.7899 25.5774C14.7899 26.0469 15.1705 26.4274 15.6399 26.4274Z" fill="#FFD983"/>
<path d="M7.34403 21.4729C7.96995 21.4729 8.47736 20.9655 8.47736 20.3395C8.47736 19.7136 7.96995 19.2062 7.34403 19.2062C6.7181 19.2062 6.21069 19.7136 6.21069 20.3395C6.21069 20.9655 6.7181 21.4729 7.34403 21.4729Z" fill="#FFD983"/>
<path d="M5.07353 16.4135C5.85593 16.4135 6.49019 15.7792 6.49019 14.9968C6.49019 14.2144 5.85593 13.5802 5.07353 13.5802C4.29112 13.5802 3.65686 14.2144 3.65686 14.9968C3.65686 15.7792 4.29112 16.4135 5.07353 16.4135Z" fill="#FFD983"/>
<path d="M9.74852 10.5985C10.2701 10.5985 10.693 10.1757 10.693 9.6541C10.693 9.1325 10.2701 8.70966 9.74852 8.70966C9.22692 8.70966 8.80408 9.1325 8.80408 9.6541C8.80408 10.1757 9.22692 10.5985 9.74852 10.5985Z" fill="#FFD983"/>
<path d="M15.0912 11.8556C15.7171 11.8556 16.2246 11.3482 16.2246 10.7223C16.2246 10.0963 15.7171 9.58893 15.0912 9.58893C14.4653 9.58893 13.9579 10.0963 13.9579 10.7223C13.9579 11.3482 14.4653 11.8556 15.0912 11.8556Z" fill="#FFD983"/>
<path d="M26.4435 16.3153C27.3564 16.3153 28.0963 15.5753 28.0963 14.6625C28.0963 13.7497 27.3564 13.0097 26.4435 13.0097C25.5307 13.0097 24.7908 13.7497 24.7908 14.6625C24.7908 15.5753 25.5307 16.3153 26.4435 16.3153Z" fill="#E5A157"/>
<path d="M20.9544 20.0185C21.4238 20.0185 21.8044 19.6379 21.8044 19.1685C21.8044 18.699 21.4238 18.3185 20.9544 18.3185C20.4849 18.3185 20.1044 18.699 20.1044 19.1685C20.1044 19.6379 20.4849 20.0185 20.9544 20.0185Z" fill="#E5A157"/>
<path d="M9.89308 26.3727C10.5451 26.3727 11.0736 25.8441 11.0736 25.1921C11.0736 24.5401 10.5451 24.0116 9.89308 24.0116C9.24108 24.0116 8.71252 24.5401 8.71252 25.1921C8.71252 25.8441 9.24108 26.3727 9.89308 26.3727Z" fill="#E5A157"/>
<path d="M26.1375 23.0114C26.9199 23.0114 27.5542 22.3771 27.5542 21.5947C27.5542 20.8123 26.9199 20.178 26.1375 20.178C25.3551 20.178 24.7208 20.8123 24.7208 21.5947C24.7208 22.3771 25.3551 23.0114 26.1375 23.0114Z" fill="#E5A157"/>
<path d="M24.4403 7.82943C25.0923 7.82943 25.6209 7.30088 25.6209 6.64888C25.6209 5.99688 25.0923 5.46832 24.4403 5.46832C23.7883 5.46832 23.2598 5.99688 23.2598 6.64888C23.2598 7.30088 23.7883 7.82943 24.4403 7.82943Z" fill="#E5A157"/>
<path d="M13.7549 18.6122C14.2765 18.6122 14.6993 18.1893 14.6993 17.6677C14.6993 17.1461 14.2765 16.7233 13.7549 16.7233C13.2333 16.7233 12.8104 17.1461 12.8104 17.6677C12.8104 18.1893 13.2333 18.6122 13.7549 18.6122Z" fill="#E5A157"/>
<path d="M16.6685 5.09244C17.0858 5.09244 17.4241 4.75417 17.4241 4.33688C17.4241 3.9196 17.0858 3.58133 16.6685 3.58133C16.2512 3.58133 15.913 3.9196 15.913 4.33688C15.913 4.75417 16.2512 5.09244 16.6685 5.09244Z" fill="#E5A157"/>
<path d="M4.52203 18.5385C4.78283 18.5385 4.99425 18.3271 4.99425 18.0663C4.99425 17.8055 4.78283 17.5941 4.52203 17.5941C4.26123 17.5941 4.0498 17.8055 4.0498 18.0663C4.0498 18.3271 4.26123 18.5385 4.52203 18.5385Z" fill="#C1694F"/>
<path d="M21.726 8.61333C21.9868 8.61333 22.1982 8.40191 22.1982 8.14111C22.1982 7.88031 21.9868 7.66888 21.726 7.66888C21.4652 7.66888 21.2538 7.88031 21.2538 8.14111C21.2538 8.40191 21.4652 8.61333 21.726 8.61333Z" fill="#C1694F"/>
<path d="M13.1363 22.882C13.3971 22.882 13.6085 22.6706 13.6085 22.4098C13.6085 22.149 13.3971 21.9376 13.1363 21.9376C12.8755 21.9376 12.6641 22.149 12.6641 22.4098C12.6641 22.6706 12.8755 22.882 13.1363 22.882Z" fill="#C1694F"/>
<path d="M26.4435 12.7972C26.7043 12.7972 26.9158 12.5858 26.9158 12.325C26.9158 12.0642 26.7043 11.8528 26.4435 11.8528C26.1827 11.8528 25.9713 12.0642 25.9713 12.325C25.9713 12.5858 26.1827 12.7972 26.4435 12.7972Z" fill="#C1694F"/>
<path d="M16.4267 29.4931C16.6875 29.4931 16.8989 29.2817 16.8989 29.0209C16.8989 28.7601 16.6875 28.5487 16.4267 28.5487C16.1659 28.5487 15.9545 28.7601 15.9545 29.0209C15.9545 29.2817 16.1659 29.4931 16.4267 29.4931Z" fill="#C1694F"/>
<path d="M15.9913 7.13621C16.2281 7.13621 16.4201 6.94424 16.4201 6.70743C16.4201 6.47063 16.2281 6.27866 15.9913 6.27866C15.7545 6.27866 15.5625 6.47063 15.5625 6.70743C15.5625 6.94424 15.7545 7.13621 15.9913 7.13621Z" fill="#EDB97F"/>
<path d="M9.92609 18.4393C10.1629 18.4393 10.3549 18.2473 10.3549 18.0105C10.3549 17.7737 10.1629 17.5818 9.92609 17.5818C9.68929 17.5818 9.49731 17.7737 9.49731 18.0105C9.49731 18.2473 9.68929 18.4393 9.92609 18.4393Z" fill="#EDB97F"/>
<path d="M17.3702 16.6987C17.6503 16.6987 17.8774 16.4717 17.8774 16.1916C17.8774 15.9115 17.6503 15.6844 17.3702 15.6844C17.0901 15.6844 16.863 15.9115 16.863 16.1916C16.863 16.4717 17.0901 16.6987 17.3702 16.6987Z" fill="#EDB97F"/>
<path d="M23.4911 15.8062C23.8573 15.8062 24.1541 15.5094 24.1541 15.1432C24.1541 14.7771 23.8573 14.4802 23.4911 14.4802C23.125 14.4802 22.8281 14.7771 22.8281 15.1432C22.8281 15.5094 23.125 15.8062 23.4911 15.8062Z" fill="#EDB97F"/>
<path d="M17.425 23.5743C17.7265 23.5743 17.9709 23.3299 17.9709 23.0284C17.9709 22.7269 17.7265 22.4825 17.425 22.4825C17.1236 22.4825 16.8792 22.7269 16.8792 23.0284C16.8792 23.3299 17.1236 23.5743 17.425 23.5743Z" fill="#EDB97F"/>
<path d="M18.6386 25.874C18.9614 25.874 19.2232 25.6123 19.2232 25.2894C19.2232 24.9665 18.9614 24.7048 18.6386 24.7048C18.3157 24.7048 18.054 24.9665 18.054 25.2894C18.054 25.6123 18.3157 25.874 18.6386 25.874Z" fill="#EDB97F"/>
<path d="M27.4059 18.5564C27.7074 18.5564 27.9518 18.312 27.9518 18.0105C27.9518 17.7091 27.7074 17.4647 27.4059 17.4647C27.1044 17.4647 26.86 17.7091 26.86 18.0105C26.86 18.312 27.1044 18.5564 27.4059 18.5564Z" fill="#EDB97F"/>
<path d="M3.28284 15.1479C5.354 12.818 7.47617 10.5409 9.60589 8.27144C10.6741 7.14 11.6572 5.92166 12.8416 4.90922C14.0193 3.89016 15.2376 2.91172 16.6222 2.10422L16.7213 2.20527C15.8827 3.57094 14.8778 4.76755 13.8323 5.92261C12.7934 7.08427 11.5533 8.03911 10.3983 9.08272C8.08156 11.1614 5.75728 13.2317 3.382 15.2509L3.28284 15.1479ZM17.2276 29.3174C19.4602 27.3955 21.64 25.4216 23.8132 23.4411C24.8955 22.4466 26.0647 21.539 27.0309 20.4274C28.0027 19.3224 28.9349 18.1768 29.698 16.8621L29.5979 16.762C28.2832 17.5242 27.1357 18.4535 26.0298 19.4244C24.9172 20.3887 24.0077 21.5569 23.0123 22.6383C21.028 24.8087 19.0522 26.9866 17.1274 29.2164L17.2276 29.3174ZM6.15017 25.8438C7.90306 24.3676 9.61062 22.8471 11.3427 21.3501L16.4522 16.7724C18.1446 15.2358 19.9806 13.8437 21.4785 12.1116C22.9868 10.3889 24.4289 8.60105 25.5897 6.52894L25.4244 6.36177C23.3457 7.50927 21.5474 8.94011 19.8153 10.4371C18.0728 11.9236 16.6694 13.7511 15.1214 15.4332L10.5116 20.5133C9.00334 22.236 7.47145 23.9332 5.98395 25.6766L6.15017 25.8438ZM4.40861 20.9884C6.24178 19.9032 7.84923 18.5904 9.40473 17.2257C10.9678 15.8686 12.2607 14.2394 13.6689 12.7264L17.8669 8.16C19.243 6.61488 20.6389 5.08866 21.9979 3.52655L21.8648 3.39244C20.2923 4.74016 18.7566 6.12472 17.2011 7.49038L12.6045 11.6554C11.0811 13.0522 9.4425 14.3338 8.074 15.8874C6.69795 17.4326 5.37384 19.0315 4.27545 20.8562L4.40861 20.9884ZM10.9725 28.3938C12.8057 27.3086 14.4131 25.9958 15.9686 24.6311C17.5317 23.2739 18.8246 21.6448 20.2328 20.1318L24.4308 15.5654C25.8069 14.0203 27.2028 12.4941 28.5618 10.9319L28.4287 10.7978C26.8562 12.1456 25.3205 13.5301 23.765 14.8958L19.1684 19.0608C17.645 20.4576 16.0064 21.7392 14.6379 23.2928C13.2618 24.8379 11.9377 26.4369 10.8393 28.2616L10.9725 28.3938Z" fill="#964F45"/>
</g>
<defs>
<clipPath id="clip0_144_362">
<rect width="34" height="34" fill="white"/>
</clipPath>
</defs>
</svg>
