<svg width="34" height="34" viewBox="0 0 34 34" fill="none" xmlns="http://www.w3.org/2000/svg">
<g clip-path="url(#clip0_144_415)">
<path d="M17 34C26.3888 34 34 29.7716 34 24.5556C34 19.3395 26.3888 15.1111 17 15.1111C7.61116 15.1111 0 19.3395 0 24.5556C0 29.7716 7.61116 34 17 34Z" fill="#8899A6"/>
<path d="M17 32.3472C26.3888 32.3472 34 28.1188 34 22.9028C34 17.6867 26.3888 13.4583 17 13.4583C7.61116 13.4583 0 17.6867 0 22.9028C0 28.1188 7.61116 32.3472 17 32.3472Z" fill="#CCD6DD"/>
<path d="M30.8597 22.3692C30.8597 26.3925 24.6547 29.6527 17 29.6527C9.34526 29.6527 3.14026 26.3925 3.14026 22.3692C3.14026 18.3477 9.34526 15.0865 17 15.0865C24.6538 15.0865 30.8597 18.3477 30.8597 22.3692Z" fill="#DD2E44"/>
<path d="M30.4423 21.2906C30.4423 30.5972 3.55774 30.5972 3.55774 21.2906V13.0182H30.4423V21.2906Z" fill="#F4ABBA"/>
<path d="M16.9848 17.1568C8.49996 17.1568 3.55674 13.2543 3.55674 13.2543C3.55674 13.2543 3.54163 14.127 3.54163 14.8457C3.54163 14.8457 3.57185 19.4716 5.97074 19.4716C8.29313 19.4716 8.12407 21.6892 9.59174 21.9187C11.0471 22.1463 11.2086 21.0328 13.0153 21.0328C14.8221 21.0328 15.1403 23.0218 16.9848 23.0218C19.1467 23.0218 19.3242 21.0328 21.13 21.0328C22.9358 21.0328 23.1436 22.1888 24.3279 21.8686C25.7512 21.4833 25.0967 19.4726 27.999 19.4726C30.3978 19.4726 30.4573 15.0828 30.4573 15.0828C30.4573 14.365 30.4413 13.2553 30.4413 13.2553C30.4413 13.2553 25.4707 17.1568 16.9848 17.1568Z" fill="#DD2E44"/>
<path d="M30.8597 12.0294C30.8597 16.0518 24.6547 19.3129 17 19.3129C9.34526 19.3129 3.14026 16.0518 3.14026 12.0294C3.14026 8.007 9.34526 4.74583 17 4.74583C24.6538 4.74583 30.8597 8.007 30.8597 12.0294Z" fill="#EA596E"/>
<path d="M24.2383 13.0182C23.6669 13.0182 23.2041 12.5554 23.2041 11.9841V4.74584C23.2041 4.47156 23.3131 4.20851 23.507 4.01457C23.7009 3.82063 23.964 3.71167 24.2383 3.71167C24.5125 3.71167 24.7756 3.82063 24.9695 4.01457C25.1635 4.20851 25.2724 4.47156 25.2724 4.74584V11.9841C25.2724 12.5554 24.8097 13.0182 24.2383 13.0182Z" fill="#FFF8E8"/>
<path d="M24.2382 6.29661C23.1407 6.29661 22.2775 5.79416 21.929 4.95266C21.6268 4.22261 21.4766 2.63877 23.8727 0.243661C23.9207 0.195629 23.9776 0.157525 24.0404 0.131527C24.1031 0.105529 24.1703 0.0921478 24.2382 0.0921478C24.3061 0.0921478 24.3733 0.105529 24.436 0.131527C24.4987 0.157525 24.5557 0.195629 24.6037 0.243661C26.9997 2.63972 26.8496 4.22261 26.5473 4.95266C26.1988 5.79416 25.3356 6.29661 24.2382 6.29661Z" fill="#FAAA35"/>
<path d="M17 16.1198C16.4286 16.1198 15.9658 15.657 15.9658 15.0856V7.84833C15.9658 7.71252 15.9926 7.57804 16.0445 7.45257C16.0965 7.3271 16.1727 7.21309 16.2687 7.11706C16.3648 7.02103 16.4788 6.94486 16.6042 6.89288C16.7297 6.84091 16.8642 6.81416 17 6.81416C17.1358 6.81416 17.2703 6.84091 17.3957 6.89288C17.5212 6.94486 17.6352 7.02103 17.7313 7.11706C17.8273 7.21309 17.9035 7.3271 17.9554 7.45257C18.0074 7.57804 18.0342 7.71252 18.0342 7.84833V15.0866C18.0342 15.657 17.5714 16.1198 17 16.1198Z" fill="#FFF8E8"/>
<path d="M17 9.39911C15.9025 9.39911 15.0393 8.89667 14.6908 8.05517C14.3876 7.32511 14.2384 5.74128 16.6345 3.34617C16.6824 3.29814 16.7394 3.26003 16.8021 3.23404C16.8648 3.20804 16.9321 3.19466 17 3.19466C17.0678 3.19466 17.1351 3.20804 17.1978 3.23404C17.2605 3.26003 17.3175 3.29814 17.3654 3.34617C19.7615 5.74222 19.6113 7.32511 19.3091 8.05517C18.9606 8.89667 18.0974 9.39911 17 9.39911Z" fill="#FAAA35"/>
<path d="M9.76183 13.0182C9.19044 13.0182 8.72766 12.5554 8.72766 11.9841V4.74584C8.72766 4.61003 8.75441 4.47555 8.80638 4.35008C8.85835 4.22461 8.93453 4.1106 9.03056 4.01457C9.12659 3.91854 9.2406 3.84236 9.36607 3.79039C9.49154 3.73842 9.62602 3.71167 9.76183 3.71167C9.89764 3.71167 10.0321 3.73842 10.1576 3.79039C10.2831 3.84236 10.3971 3.91854 10.4931 4.01457C10.5891 4.1106 10.6653 4.22461 10.7173 4.35008C10.7692 4.47555 10.796 4.61003 10.796 4.74584V11.9841C10.796 12.5554 10.3332 13.0182 9.76183 13.0182Z" fill="#FFF8E8"/>
<path d="M9.76179 6.29661C8.66435 6.29661 7.80112 5.79416 7.45262 4.95266C7.14946 4.22261 7.00024 2.63877 9.39629 0.243661C9.44427 0.195629 9.50125 0.157525 9.56396 0.131527C9.62668 0.105529 9.6939 0.0921478 9.76179 0.0921478C9.82968 0.0921478 9.89691 0.105529 9.95962 0.131527C10.0223 0.157525 10.0793 0.195629 10.1273 0.243661C12.5233 2.63972 12.3732 4.22261 12.071 4.95266C11.7225 5.79416 10.8592 6.29661 9.76179 6.29661Z" fill="#FAAA35"/>
</g>
<defs>
<clipPath id="clip0_144_415">
<rect width="34" height="34" fill="white"/>
</clipPath>
</defs>
</svg>
