<svg width="34" height="34" viewBox="0 0 34 34" fill="none" xmlns="http://www.w3.org/2000/svg">
<g clip-path="url(#clip0_144_428)">
<path d="M31.9175 8.12016C30.8921 7.33656 31.1817 5.75344 30.1803 4.98047C29.4843 4.44125 28.4378 4.49438 27.8268 3.83563C27.0406 2.98562 27.2026 1.41313 26.0339 0.8925C24.7323 0.313437 23.4865 1.74516 22.9712 2.80766C22.6312 3.50359 22.4054 4.26063 22.177 4.99906C21.9512 5.73219 21.7653 6.48125 21.6404 7.23828C21.5634 7.71109 21.6404 8.84531 21.165 9.1375C20.7107 9.41641 19.9457 9.03391 19.4835 8.96484C18.2776 8.78688 17.0159 8.85594 15.8179 9.06578C14.2985 9.33141 12.6543 10.1867 11.5626 11.3103C10.7843 12.1098 10.115 13.0263 9.6687 14.0675C8.95151 15.7383 8.66198 17.6242 8.9648 19.4252C9.00464 19.6695 9.18792 20.0361 8.98339 20.2327C8.6487 20.5567 7.8412 20.2884 7.44011 20.2513C6.81589 20.1928 6.18901 20.153 5.56214 20.145C4.3562 20.1317 3.11042 20.2327 1.97354 20.6789C1.25901 20.9605 0.289483 21.7653 0.17792 22.6259C-0.100986 24.7908 2.80761 24.7828 2.66417 26.775C2.54729 28.4059 4.06667 29.0063 5.3337 29.1789C6.75745 29.3755 6.70698 32.4541 8.36714 33.1341C9.70855 33.6866 10.856 31.96 11.4829 31.0091C12.0646 30.1166 12.5693 29.1656 12.9571 28.1642C13.159 27.6409 13.329 27.1017 13.4459 26.5519C13.5017 26.2916 13.5495 26.0259 13.5734 25.7603C13.592 25.5292 13.5628 25.3167 13.8098 25.2052C14.0196 25.1095 14.3729 25.2848 14.5854 25.3459C14.8537 25.423 15.13 25.4894 15.4035 25.5425C18.7398 26.1933 23.0509 25.0219 24.804 21.8902C25.816 20.0786 26.2118 18.182 25.901 16.1234C25.816 15.5736 25.7098 15.0105 25.5292 14.4819C25.3353 13.9055 25.917 13.9214 26.3234 13.8922C26.7882 13.8603 27.2504 13.8019 27.71 13.7222C28.5759 13.5734 29.4339 13.3556 30.2759 13.09C31.4925 12.7022 33.0357 12.232 33.6653 10.9916C34.3639 9.62094 32.7542 8.75766 31.9175 8.12016V8.12016Z" fill="#ED6C30"/>
<mask id="mask0_144_428" style="mask-type:luminance" maskUnits="userSpaceOnUse" x="0" y="0" width="34" height="34">
<path d="M31.9175 8.12016C30.8921 7.33656 31.1817 5.75344 30.1803 4.98047C29.4843 4.44125 28.4378 4.49438 27.8268 3.83563C27.0406 2.98562 27.2026 1.41313 26.0339 0.8925C24.7323 0.313437 23.4865 1.74516 22.9712 2.80766C22.6312 3.50359 22.4054 4.26063 22.177 4.99906C21.9512 5.73219 21.7653 6.48125 21.6404 7.23828C21.5634 7.71109 21.6404 8.84531 21.165 9.1375C20.7107 9.41641 19.9457 9.03391 19.4835 8.96484C18.2776 8.78688 17.0159 8.85594 15.8179 9.06578C14.2985 9.33141 12.6543 10.1867 11.5626 11.3103C10.7843 12.1098 10.115 13.0263 9.6687 14.0675C8.95151 15.7383 8.66198 17.6242 8.9648 19.4252C9.00464 19.6695 9.18792 20.0361 8.98339 20.2327C8.6487 20.5567 7.8412 20.2884 7.44011 20.2513C6.81589 20.1928 6.18901 20.153 5.56214 20.145C4.3562 20.1317 3.11042 20.2327 1.97354 20.6789C1.25901 20.9605 0.289483 21.7653 0.17792 22.6259C-0.100986 24.7908 2.80761 24.7828 2.66417 26.775C2.54729 28.4059 4.06667 29.0063 5.3337 29.1789C6.75745 29.3755 6.70698 32.4541 8.36714 33.1341C9.70855 33.6866 10.856 31.96 11.4829 31.0091C12.0646 30.1166 12.5693 29.1656 12.9571 28.1642C13.159 27.6409 13.329 27.1017 13.4459 26.5519C13.5017 26.2916 13.5495 26.0259 13.5734 25.7603C13.592 25.5292 13.5628 25.3167 13.8098 25.2052C14.0196 25.1095 14.3729 25.2848 14.5854 25.3459C14.8537 25.423 15.13 25.4894 15.4035 25.5425C18.7398 26.1933 23.0509 25.0219 24.804 21.8902C25.816 20.0786 26.2118 18.182 25.901 16.1234C25.816 15.5736 25.7098 15.0105 25.5292 14.4819C25.3353 13.9055 25.917 13.9214 26.3234 13.8922C26.7882 13.8603 27.2504 13.8019 27.71 13.7222C28.5759 13.5734 29.4339 13.3556 30.2759 13.09C31.4925 12.7022 33.0357 12.232 33.6653 10.9916C34.3639 9.62094 32.7542 8.75766 31.9175 8.12016V8.12016Z" fill="white"/>
</mask>
<g mask="url(#mask0_144_428)">
<path d="M19.4569 12.3967C19.5605 12.4445 19.6641 12.495 19.7598 12.5508C19.8341 12.5933 19.9244 12.6916 20.0174 12.6252C20.1715 12.5163 20.0812 12.2666 20.0493 12.1258C20.0068 11.9452 19.9563 11.7592 19.9351 11.5733C19.8819 11.1191 19.3613 10.3833 20.0015 10.1628C20.1662 10.107 20.3335 10.0406 20.5009 9.99016C20.6416 9.94766 20.7877 9.90516 20.9152 9.84406C20.9604 9.82281 21.0507 9.79094 21.0719 9.74578C21.1251 9.62094 21.0029 9.57047 20.9152 9.52531C20.8515 9.49344 20.7851 9.46953 20.724 9.43234C20.2432 9.12688 19.688 8.93031 19.1541 8.73109C18.6627 8.54781 18.158 8.39641 17.6401 8.31672C17.2443 8.25563 16.7794 8.26625 16.381 8.32203C15.871 8.39375 15.5151 8.74969 15.0502 8.93563C14.7766 9.04453 14.4844 9.11625 14.2135 9.23578C14.1126 9.28094 13.9479 9.33141 13.8682 9.41375C13.8124 9.47219 13.8416 9.56516 13.9054 9.60766C13.9638 9.64484 14.0621 9.63688 14.1312 9.65547C14.4074 9.7325 14.6969 9.75375 14.9759 9.83344C15.4221 9.96359 15.3929 10.1097 15.3159 10.548C15.2787 10.7578 15.2627 10.9703 15.2202 11.1775C15.1405 11.5813 15.0077 11.9531 14.9812 12.3702C14.9785 12.4259 14.9944 12.4605 15.0502 12.4738C15.1884 12.5083 15.3265 12.4313 15.4407 12.3648C15.5469 12.3064 15.6559 12.2559 15.7648 12.1948C15.9055 12.1178 16.0516 12.0514 16.2004 11.9903C16.4554 11.8867 16.6998 11.7566 16.9494 11.6503C17.1699 11.5547 17.4568 11.4298 17.7012 11.4591C17.8074 11.4697 17.9455 11.5334 18.0465 11.5813C18.1182 11.6131 18.174 11.6663 18.2351 11.7114C18.3068 11.7619 18.3865 11.807 18.4635 11.8548C18.6229 11.9558 18.7823 12.0541 18.9469 12.1497C19.1116 12.2373 19.2869 12.3144 19.4569 12.3967ZM19.0426 22.5038C19.0027 22.2089 18.9894 21.9619 19.0984 21.9088C19.2498 21.8317 19.6269 21.9938 19.7677 22.0469C20.2219 22.2142 20.6469 22.4878 21.1251 22.5808C21.4598 22.6445 21.8104 22.4772 22.1079 22.3497C22.4346 22.2089 22.756 22.0761 23.1119 22.0177C23.258 21.9938 23.3563 21.9911 23.3855 22.1638C23.4068 22.2886 23.3723 22.4188 23.3484 22.5409C23.3244 22.6578 23.2793 22.772 23.2607 22.8916C23.2421 23.0244 23.2208 23.1519 23.181 23.2847C23.1624 23.3484 23.1598 23.4095 23.1385 23.4759C23.1146 23.5503 23.0854 23.6194 23.0694 23.6964C23.0455 23.8159 23.0004 23.9275 22.9712 24.0444C22.9154 24.2595 22.8198 24.472 22.6843 24.6473C22.5515 24.82 22.4585 24.998 22.2832 25.1361C22.1212 25.2636 21.9432 25.3672 21.7519 25.4442C21.5634 25.5213 21.3588 25.5478 21.1755 25.6302C21.0401 25.6913 20.9338 25.755 20.7798 25.7656C20.2405 25.8002 19.7066 25.7019 19.1913 25.5611C18.9337 25.492 18.6813 25.4097 18.4263 25.33C18.2643 25.2795 17.8898 25.2423 17.7729 25.1202C17.5418 24.8838 18.0837 24.6686 18.2271 24.5677C18.328 24.4959 18.4396 24.4242 18.5379 24.3419C18.676 24.225 18.8354 24.1373 18.9735 24.0152C19.1701 23.8425 19.1887 23.5981 19.1674 23.3511C19.1409 23.0642 19.0824 22.7853 19.0426 22.5038ZM22.918 16.6202C22.8649 16.5192 22.671 16.3253 22.7215 16.2058C22.7826 16.0623 22.9898 16.0836 23.1119 16.0916C23.2926 16.1022 23.4732 16.1367 23.6538 16.1713C23.9912 16.235 24.363 16.3227 24.7004 16.2164C25.0988 16.0916 25.3113 15.4594 25.6619 15.215C25.8559 15.0795 26.6076 17.0638 26.6341 17.2577C26.6793 17.6003 26.658 18.012 26.6182 18.3467C26.5757 18.7053 26.3552 18.9603 26.2277 19.2897C26.1666 19.4411 26.1215 19.5952 26.0604 19.7492C26.0099 19.8767 25.9621 20.0095 25.9037 20.1344C25.8665 20.2114 25.8346 20.2911 25.7948 20.3681C25.7788 20.4 25.7549 20.4877 25.7284 20.5116C25.6115 20.6045 25.4813 20.2141 25.4335 20.1477C25.3113 19.9723 25.2476 19.7811 25.1466 19.5952C25.1201 19.5447 25.1015 19.4783 25.0537 19.4464C24.9262 19.3588 24.6393 19.4464 24.4932 19.4677C24.1691 19.5128 23.8477 19.5739 23.5263 19.627C23.2899 19.6642 23.0509 19.7014 22.8118 19.7253C22.7401 19.7306 22.6684 19.728 22.6285 19.6563C22.586 19.5819 22.6338 19.4889 22.663 19.4198C22.7348 19.2525 22.7959 19.0798 22.8729 18.9125C22.9313 18.7823 22.9924 18.6522 23.0562 18.5247C23.1093 18.4158 23.1783 18.3175 23.2288 18.2059C23.2607 18.1369 23.2899 18.0705 23.3138 17.9988C23.3457 17.9164 23.4148 17.8234 23.4041 17.7358C23.3882 17.5764 23.3032 17.3878 23.2262 17.2364C23.1226 17.0239 23.0296 16.8247 22.918 16.6202ZM15.9773 16.0013C16.0277 15.7967 16.0038 15.5709 16.0304 15.3664C16.0809 14.9839 16.1526 14.6041 16.2349 14.2269C16.2641 14.0967 16.3199 13.8922 16.4979 13.9905C16.6493 14.0728 16.7874 14.2348 16.8937 14.365C17.0716 14.5828 17.324 14.7608 17.5126 14.9813C17.7463 15.2548 17.988 15.4992 18.3759 15.4063C18.5618 15.3638 18.7477 15.3186 18.9337 15.2761C19.0718 15.2469 19.2073 15.215 19.3454 15.1884C19.4676 15.1645 19.6004 15.122 19.7252 15.1247C19.7969 15.1247 19.8926 15.0769 19.9537 15.1247C20.1582 15.2841 19.8766 15.7595 19.7916 15.9163C19.6323 16.2164 19.5579 16.5378 19.4808 16.8645C19.4516 16.992 19.4012 17.0638 19.4755 17.1913C19.5393 17.3028 19.6455 17.3852 19.7199 17.4914C19.8102 17.6216 19.9218 17.7305 20.0174 17.8527C20.1024 17.9589 20.1848 18.0652 20.2644 18.1794C20.3787 18.3494 20.5858 18.4955 20.639 18.6973C20.639 18.8355 20.6629 18.9045 20.4982 18.947C20.2458 19.0108 19.951 18.9603 19.6934 18.947C19.1754 18.9205 18.6787 18.8833 18.1713 18.7691C18.0651 18.7452 17.9694 18.7372 17.8791 18.8063C17.563 19.048 17.3373 19.3827 17.1062 19.7014C16.968 19.89 16.7104 20.3788 16.4474 20.392C16.3385 20.3973 16.2402 20.2406 16.2057 20.1503C15.9348 19.4491 16.2774 18.3998 15.608 17.8925C15.276 17.6402 14.8749 17.5286 14.5137 17.3294C14.3596 17.2444 14.2268 17.1753 14.418 17.0372C14.5269 16.9575 14.6704 16.8911 14.7899 16.83C14.9599 16.7423 15.1405 16.668 15.3079 16.5723C15.4248 16.5059 15.5469 16.4475 15.6612 16.3758C15.7462 16.3227 15.8604 16.2748 15.9109 16.1819C15.9427 16.1181 15.964 16.0597 15.9773 16.0013ZM11.4988 23.035C11.4377 22.8916 11.4404 22.7481 11.5652 22.5356C11.6741 22.355 11.9026 22.27 12.0619 22.1425C12.1655 22.0602 12.2744 21.9938 12.3807 21.9194C12.5321 21.8105 12.6782 21.6856 12.8269 21.5714C12.8827 21.5289 12.9438 21.4891 12.9996 21.4492C13.0448 21.4173 13.1165 21.3828 13.1723 21.3988C13.2652 21.4227 13.3077 21.5528 13.3582 21.6272C13.4273 21.7334 13.4751 21.845 13.5468 21.9513C13.6291 22.0708 13.7062 22.193 13.754 22.3258C13.8018 22.4586 13.8762 22.5781 13.9346 22.7056C14.0701 23.0031 14.1365 23.1014 14.4473 23.2183C14.8563 23.3723 15.276 23.5238 15.6904 23.6672C15.7993 23.7044 15.9507 23.7309 15.9294 23.8903C15.9135 24.0072 15.7382 24.0417 15.6479 24.0895C15.4062 24.2223 15.1591 24.3233 14.928 24.48C14.6677 24.658 14.333 24.7855 14.0329 24.8838C13.7699 24.9688 13.483 24.8253 13.236 24.7191C12.9013 24.5756 12.564 24.3366 12.3063 24.0736C12.0991 23.8638 11.8813 23.6353 11.7193 23.3909C11.629 23.2528 11.544 23.1439 11.4988 23.035ZM8.52116 14.2056C8.86913 13.7408 9.51991 13.4008 10.0299 13.1219C10.2477 13.0023 10.431 12.835 10.6196 12.6783C10.7657 12.5588 11.0685 12.2188 11.2093 12.4844C11.2996 12.657 11.2013 12.9917 11.1748 13.1723C11.111 13.6319 11.0313 14.0941 11.1535 14.5509C11.1854 14.6625 11.2571 14.7209 11.3421 14.7927C11.4457 14.8803 11.5546 14.968 11.6688 15.0397C11.7405 15.0822 11.8255 15.1008 11.8999 15.138C11.9663 15.1725 12.0221 15.2283 12.0858 15.2602C12.224 15.3292 12.3834 15.393 12.4816 15.5152C12.5666 15.6214 12.5719 15.8153 12.4471 15.8923C12.378 15.9348 12.3116 15.9402 12.2399 15.9641C12.0726 16.0225 11.8893 16.0677 11.7166 16.1341C11.5174 16.2111 11.3129 16.2722 11.119 16.3598C10.9277 16.4422 10.6621 16.4794 10.5744 16.6945C10.4735 16.9416 10.3646 17.2045 10.3035 17.4622C10.2637 17.6242 10.1946 17.773 10.1574 17.9323C10.1362 18.02 10.1176 18.1077 10.083 18.1927C10.0405 18.3069 10.0379 18.4025 9.92897 18.4689C9.67397 18.6256 9.23304 17.603 9.14272 17.4356C9.06038 17.2816 9.03913 17.0584 8.94085 16.9097C8.76288 16.6467 8.49194 16.5192 8.33257 16.2217C8.15726 15.9003 8.08022 15.5763 8.11476 15.2097C8.14663 14.8591 8.29272 14.5058 8.52116 14.2056Z" fill="#FCC21B"/>
</g>
<path d="M8.00334 24.5305C7.68724 24.4853 7.34193 24.1586 7.30209 23.8292C7.25162 23.4388 7.53053 23.0669 7.83334 22.8491C8.38849 22.4453 9.22787 22.3338 9.8999 22.3497C10.1522 22.355 10.3249 22.3922 10.4365 22.4506C11.3688 22.9367 8.67537 24.6261 8.00334 24.5305ZM11.228 26.0897C10.7897 26.5891 10.3276 26.5413 10.0619 26.2517C9.79099 25.9542 9.7299 25.3991 10.1177 24.905C10.3249 24.6394 11.0394 23.6672 11.3901 23.7203C12.4101 23.8691 11.576 25.6886 11.228 26.0897ZM23.3458 10.8747C22.2701 11.4538 22.8146 8.88516 22.9208 8.57172C23.2741 7.53313 24.0391 7.46141 24.4747 7.88375C24.7962 8.19188 24.9316 8.77094 24.5837 9.41906C24.2941 9.96625 23.909 10.5692 23.3458 10.8747ZM26.9637 11.7141C26.6051 12.0408 26.0738 12.0806 25.6276 12.2002C25.3938 12.2613 25.1415 12.2692 24.9024 12.2639C24.1905 12.2453 24.0258 12.0169 24.1533 11.722C24.3924 11.1642 25.6807 10.3647 26.281 10.3116C26.5572 10.2877 26.9052 10.3195 27.0513 10.5905C27.2479 10.9597 27.2851 11.4166 26.9637 11.7141Z" fill="#855C52"/>
<path d="M13.3583 13.1033C12.8908 12.9439 12.2028 13.3662 11.8363 13.855C11.3821 14.4606 11.1589 15.2548 11.1297 16.0039C11.1031 16.6467 11.2492 17.858 12.0408 18.0359C12.4286 18.1209 12.6411 17.842 12.8085 17.5366C13.1166 16.9841 13.0528 16.2748 13.2255 15.6745C13.4035 15.0583 14.4367 13.4672 13.3583 13.1033Z" fill="white"/>
</g>
<defs>
<clipPath id="clip0_144_428">
<rect width="34" height="34" fill="white"/>
</clipPath>
</defs>
</svg>
