<svg width="34" height="34" viewBox="0 0 34 34" fill="none" xmlns="http://www.w3.org/2000/svg">
<path d="M4.2473 9.49875L3.11574 9.75907C3.11574 9.75907 1.5459 12.1816 1.20324 14.7581C0.988084 16.3758 0.980115 18.4875 1.12887 19.5394C1.28027 20.5913 1.82215 22.8305 2.6748 24.4083C3.49558 25.9277 4.29511 26.5253 5.16902 27.0539C5.54355 27.2797 5.87824 28.0527 6.46261 28.4272C7.0098 28.7778 7.7323 28.8469 7.7323 28.8469C7.7323 28.8469 9.7298 31.9839 14.0515 32.5284C19.1223 33.1659 21.6032 30.8763 21.6032 30.8763C21.6032 30.8763 23.6326 30.8709 25.5478 30.0502C27.6967 29.1284 28.8442 27.2106 28.8442 27.2106C28.8442 27.2106 31.535 24.8944 32.3876 22.1213C33.0729 19.8953 33.0915 15.6639 32.5656 13.6717C32.0396 11.6795 31.0223 9.99282 30.2148 8.91172C29.572 8.0511 22.3948 4.23672 21.5289 3.89672C20.6656 3.55938 12.6251 3.03344 12.325 3.25922C12.0248 3.48766 4.2473 9.49875 4.2473 9.49875Z" fill="#AC5811"/>
<path d="M7.04707 5.24609C5.17442 6.77078 4.20489 7.56765 3.2327 9.47484C2.26051 11.382 2.57395 13.9134 2.74926 14.8484C2.92192 15.7834 3.23535 17.587 3.40801 18.4875C3.58067 19.3906 4.0402 21.5316 5.31254 22.857C7.09489 24.7137 8.70989 25.3539 8.70989 25.3539C8.70989 25.3539 10.0194 27.3833 13.183 28.5441C17.3427 30.0687 19.2154 27.8508 20.8091 27.2611C22.4029 26.6714 24.31 26.6369 25.941 25.492C27.5693 24.3472 29.3729 22.9606 30.5522 20.0494C31.7316 17.1381 31.4872 15.8552 31.5218 15.1273C31.5563 14.3995 31.4527 10.8986 30.1007 8.74969C28.7486 6.60078 27.123 5.30984 26.4961 4.90078C25.1096 4.00031 20.1583 1.84609 18.9125 1.60437C17.6641 1.36265 13.2122 1.73984 11.4458 2.46765C9.67942 3.19547 7.04707 5.24609 7.04707 5.24609Z" fill="url(#paint0_radial_144_394)"/>
<path d="M14.9494 18.9816C14.6546 18.8886 14.3438 18.4503 14.2694 17.5127C14.1658 16.1766 15.1513 15.8073 15.1513 15.8073C15.1513 15.8073 16.3253 15.4966 17.1514 15.2017C17.9191 14.9281 18.4716 14.5775 18.4716 14.5775C18.4716 14.5775 18.546 13.1458 19.0214 12.7234C19.4996 12.3011 20.3416 12.3383 21.2793 12.4472C22.2142 12.5561 23.7203 13.1803 23.4999 13.7487C23.2794 14.3172 23.0217 14.8856 22.1239 15.4009C21.2261 15.9136 20.5833 16.3917 20.1238 16.7955C19.6643 17.2019 18.8222 17.7119 17.4277 18.2272C16.0332 18.7425 15.3744 19.1144 14.9494 18.9816ZM7.05238 7.03109C6.17051 6.85047 4.92473 8.76031 4.69363 9.3925C4.45988 10.0247 4.22082 11.5653 4.19426 12.2692C4.15973 13.1431 4.14379 13.9639 4.51035 14.6306C4.79191 15.1459 5.47457 15.4355 6.08816 14.9042C6.70176 14.373 7.76691 12.9173 8.04848 12.7128C8.33004 12.5083 9.15348 12.2373 8.82941 10.8986C8.6966 10.3514 7.34988 9.21984 7.28348 9.06578C7.21973 8.91437 7.55176 7.13468 7.05238 7.03109ZM13.2866 4.6325C13.3211 5.14515 13.7408 5.96593 14.195 6.40953C14.875 7.07093 17.9935 9.3075 18.801 9.18C19.6085 9.0525 20.4877 7.60218 20.7453 7.19843C21.003 6.79468 21.5157 6.22625 21.7175 5.96859C21.9194 5.71093 22.4507 5.1239 22.0124 4.53687C21.5714 3.94984 20.4718 3.56469 19.7386 3.5089C19.0055 3.45312 17.866 2.97765 16.8938 3.01484C15.9216 3.05203 13.1963 3.30969 13.2866 4.6325ZM26.1216 11.4723C26.1827 12.0302 26.9663 12.1523 27.5905 12.5561C28.2147 12.9598 28.6371 13.3822 29.0036 13.2706C29.3702 13.1617 29.8696 12.5747 29.7553 11.5467C29.6092 10.2266 28.7832 8.53718 27.6277 8.59297C26.9291 8.6275 27.0247 9.8414 27.0247 9.8414C27.0247 9.8414 26.0844 11.143 26.1216 11.4723Z" fill="#FFC86E"/>
<path d="M11.0155 8.02984C11.0155 8.02984 8.51062 8.0139 8.55577 8.26359C8.60358 8.51328 8.8214 9.33672 9.47483 9.36859C10.1283 9.40047 10.9703 9.46156 11.3741 9.33672C11.7778 9.21187 12.8987 8.30875 12.8987 7.905C12.8987 7.50125 12.4472 6.90891 12.4472 6.90891L11.0155 8.02984ZM14.5934 12.6225C14.5934 12.6225 14.5642 12.6411 14.5217 12.6756C14.3969 12.7792 14.1578 13.0209 14.2508 13.2919C14.3756 13.6505 15.1061 14.3198 15.8233 14.3198C16.5405 14.3198 16.9283 13.6505 17.0531 13.2148C17.178 12.7792 17.1142 12.5136 17.1142 12.5136L14.5934 12.6225ZM9.00733 14.6625C9.00733 14.6625 8.57171 14.8192 8.58765 15.0981C8.60359 15.377 8.71249 15.8923 9.27296 16.4369C9.83874 16.9867 10.6595 17.1381 11.4059 16.9362C12.1523 16.7344 12.6969 16.1739 12.6358 15.4275C12.5747 14.6811 11.8575 14.1047 11.8575 14.1047L9.00733 14.6625ZM5.7853 18.7877C5.7853 18.7877 5.3178 18.8966 5.36562 19.2073C5.41343 19.5181 5.94202 20.4983 6.7814 20.3894C7.62077 20.2805 8.94624 19.3162 8.94624 18.9417C8.94624 18.5672 8.27687 18.0705 8.27687 18.0705L5.7853 18.7877ZM11.5122 22.6791C11.5122 22.6791 11.3395 23.6831 12.6942 24.0497C14.952 24.658 15.1858 23.2873 15.1858 23.2873L11.5122 22.6791ZM20.3814 23.1439C20.3814 23.1439 19.7758 23.7495 20.4637 24.225C21.1517 24.7005 21.9353 24.8625 22.6737 24.7801C23.4122 24.6978 23.9169 24.1081 23.9169 24.1081L20.3814 23.1439ZM26.0339 16.4183C26.0339 16.4183 24.8917 16.9947 25.7762 17.9908C26.4483 18.7505 27.9862 18.5964 28.6158 18.1687C29.0275 17.8898 29.1497 17.3958 28.9956 17.1461C28.8389 16.8964 26.0339 16.4183 26.0339 16.4183ZM21.6139 9.82015C21.6139 9.82015 21.5528 11.1244 23.3112 11.0819C25.7709 11.0208 25.4602 9.49344 25.4602 9.49344L21.6139 9.82015Z" fill="#CF701E"/>
<path d="M22.7508 8.18656C22.7508 8.18656 21.598 8.90374 21.4731 9.19859C21.3483 9.49343 21.0827 10.4284 22.4214 10.3673C23.7602 10.3062 25.0989 10.2584 25.5505 9.7139C26.002 9.16937 25.8931 8.66999 25.7072 8.26624C25.5213 7.86249 24.4747 6.33515 23.6433 6.35374C23.0988 6.36437 22.7508 8.18656 22.7508 8.18656Z" fill="#593329"/>
<path d="M23.638 6.34844C23.638 6.34844 22.9076 6.25547 22.2674 7.39235C21.6299 8.52922 21.4652 9.20657 21.4652 9.20657C21.4652 9.20657 22.7641 9.21188 23.5424 9.11891C24.3207 9.02594 24.8493 8.5425 24.8493 8.5425C24.8493 8.5425 24.2144 6.48922 23.638 6.34844Z" fill="#925849"/>
<path d="M14.7979 11.6583C14.7979 11.6583 14.1604 11.6158 14.1126 11.8628C14.0648 12.1125 14.2056 12.7473 14.4234 13.0262C14.6412 13.3051 15.2946 13.9294 15.9481 13.8045C16.6015 13.6797 16.9893 13.0395 17.0982 12.8191C17.1965 12.6119 17.3028 12.3887 17.1168 12.1098C16.9282 11.8283 14.7979 11.6583 14.7979 11.6583Z" fill="#593329"/>
<path d="M15.7462 10.6622C15.2043 10.6038 13.8975 11.6423 14.1312 11.9983C14.3915 12.3888 14.4367 12.1417 15.1539 12.5003C15.7462 12.7952 16.0039 13.0688 16.3758 13.0209C16.7476 12.9731 17.1912 12.3595 17.1142 12.1098C17.0372 11.8602 16.4793 10.7392 15.7462 10.6622Z" fill="#925849"/>
<path d="M9.61294 6.45735L8.33794 7.33922C8.33794 7.33922 8.29013 7.93688 8.55576 8.2636C8.82138 8.59032 8.89841 8.79219 10.1442 8.79219C11.39 8.79219 12.5561 8.62219 12.7739 7.73501C12.9917 6.84782 12.6092 6.27938 12.3754 5.95266C12.1417 5.62594 9.61294 6.45735 9.61294 6.45735Z" fill="#593329"/>
<path d="M9.62889 5.07343C9.34201 5.19562 8.66467 6.11734 8.50795 6.52109C8.35123 6.92484 8.3167 7.35515 8.33795 7.36046C8.59561 7.42421 10.1123 7.56499 10.7817 7.45609C11.4511 7.34718 11.9956 7.05234 12.2134 6.66187C12.3861 6.35109 12.3728 5.93937 12.3728 5.93937C12.3728 5.93937 11.9186 5.12124 11.2944 4.87156C10.6728 4.62187 9.7378 5.02562 9.62889 5.07343Z" fill="#925949"/>
<path d="M8.56115 14.7209C8.56115 14.7209 8.4549 14.883 8.65677 15.1938C8.85865 15.5045 9.25443 15.8764 9.84677 16.0491C10.4391 16.2191 10.8588 16.4528 11.2466 16.4077C11.6371 16.3599 12.3994 16.0491 12.4286 14.9759C12.4605 13.9028 12.2427 13.4034 11.7752 12.9359C11.3077 12.4684 10.9704 12.5481 10.9704 12.5481L8.56115 14.7209Z" fill="#593329"/>
<path d="M8.6966 13.7275C8.53191 14.0038 8.40972 14.9016 8.6116 15.1034C8.81347 15.3053 10.0274 15.3186 10.3461 15.2841C10.6675 15.2495 11.7168 14.7555 11.7327 14.3809C11.7486 14.0064 11.5468 13.5097 11.5468 13.3238C11.5468 13.1378 11.7805 12.7022 11.143 12.5455C10.5055 12.3888 9.0366 13.1511 8.6966 13.7275Z" fill="#925849"/>
<path d="M6.59278 17.7597C6.59278 17.7597 5.59137 18.0067 5.52762 18.3494C5.46653 18.692 5.60996 19.0373 5.95262 19.3641C6.29528 19.6908 6.54496 20.0334 6.80793 20.0016C7.07356 19.9697 7.77215 19.3481 7.98996 19.1462C8.20778 18.9444 8.51856 18.5858 8.48934 18.2909C8.46012 17.9961 8.33262 17.6986 8.05371 17.4648C7.77746 17.2311 6.59278 17.7597 6.59278 17.7597Z" fill="#593329"/>
<path d="M6.8425 16.8725C6.375 16.8831 6.01641 17.4489 5.86235 17.6508C5.70563 17.8527 5.44266 18.3361 5.55156 18.4131C5.66047 18.4902 6.11203 18.538 6.32985 18.6787C6.54766 18.8195 6.87438 19.0373 7.12406 18.8355C7.37375 18.6336 7.59156 18.0731 7.71641 17.8872C7.84125 17.7012 8.05906 17.4675 8.05906 17.4675C8.05906 17.4675 7.58891 16.8566 6.8425 16.8725Z" fill="#925849"/>
<path d="M12.556 20.6231C12.4631 20.732 11.1403 21.8052 11.1403 21.8052C11.1403 21.8052 11.1881 22.7402 11.4829 22.958C11.7778 23.1758 12.6968 23.4866 13.2892 23.6114C13.8815 23.7362 14.9387 23.877 15.2043 23.7681C15.4699 23.6592 15.7489 23.0828 15.7648 22.3364C15.7807 21.59 15.5151 21.0322 15.2203 20.6895C14.9254 20.3469 14.689 20.2194 14.689 20.2194L12.556 20.6231Z" fill="#593329"/>
<path d="M14.3145 22.023C14.4872 21.8291 14.689 20.2167 14.689 20.2167C14.689 20.2167 13.4911 19.2977 12.9917 19.2366C12.4923 19.1755 11.9026 19.2206 11.73 19.4066C11.56 19.5925 10.8906 20.2619 10.9517 20.6975C11.0128 21.1331 11.1376 21.8025 11.1376 21.8025C11.1376 21.8025 13.9559 22.4294 14.3145 22.023Z" fill="#925849"/>
<path d="M20.1211 22.7906C20.1211 22.7906 19.9697 23.8 21.08 23.9913C22.1903 24.1798 23.112 24.4322 23.5928 24.3313C24.0736 24.2303 24.5517 23.5875 24.6022 23.12C24.6527 22.6525 24.6792 21.9778 24.6022 21.7945C24.4003 21.3084 23.4653 19.9777 23.0111 19.8369C22.7561 19.7598 22.5144 19.8023 22.5144 19.8023L20.1211 22.7906Z" fill="#593329"/>
<path d="M20.8409 21.0216C20.3442 21.5714 20.0892 22.3656 20.1158 22.7853C20.1423 23.1811 22.0256 23.0084 22.2487 22.873C22.4719 22.7375 22.958 22.1319 22.9739 21.93C22.9898 21.7281 22.8358 21.0959 22.8092 20.7055C22.7827 20.315 22.772 19.7837 22.5569 19.797C22.3417 19.8103 21.5475 20.2406 20.8409 21.0216Z" fill="#925849"/>
<path d="M27.2106 14.1684C27.2106 14.1684 27.6489 14.2322 28.1881 14.5563C28.8176 14.9334 29.4764 15.895 29.4259 16.6786C29.3755 17.4622 28.6928 17.8155 27.8614 17.8288C27.03 17.842 26.2172 17.7969 26.0658 17.3666C25.9144 16.9363 27.2106 14.1684 27.2106 14.1684Z" fill="#593329"/>
<path d="M26.5465 14.4314C26.4164 14.612 26.079 15.1645 25.9648 15.8711C25.8506 16.5777 25.9276 17.3852 26.18 17.5259C26.4323 17.6641 27.8215 16.4661 27.8959 16.3386C27.9729 16.2111 27.4523 14.28 27.2876 14.1923C27.1229 14.1047 26.7112 14.2056 26.5465 14.4314Z" fill="#925849"/>
<defs>
<radialGradient id="paint0_radial_144_394" cx="0" cy="0" r="1" gradientUnits="userSpaceOnUse" gradientTransform="translate(17.0436 15.2989) scale(14.1318)">
<stop offset="0.507" stop-color="#F29F58"/>
<stop offset="0.715" stop-color="#F09D56"/>
<stop offset="0.826" stop-color="#EB9550"/>
<stop offset="0.914" stop-color="#E18745"/>
<stop offset="0.99" stop-color="#D47436"/>
<stop offset="1" stop-color="#D27133"/>
</radialGradient>
</defs>
</svg>
