<svg width="282" height="198" viewBox="0 0 282 198" fill="none" xmlns="http://www.w3.org/2000/svg">
<path opacity="0.14" d="M110.367 196.927C104.705 196.078 45.4501 186.302 27.2325 136.484C11.3266 92.987 33.913 38.7373 64.9825 27.9001C89.2655 19.4382 100.421 43.8696 142.179 42.9577C185.613 42.0245 195.644 15.133 224.042 22.174C256.786 30.2966 284.102 76.1268 274.092 109.126C271.992 116.061 266.966 126.623 234.433 148.149C182.665 182.421 151.468 203.056 110.367 196.927Z" fill="#FFBE55"/>
<path d="M58.2598 115.404L56.0117 119.306H60.529L58.2598 115.404Z" fill="#FFBE55"/>
<path d="M39.4694 127.323L35.7368 129.868L39.8087 131.819L39.4694 127.323Z" fill="#0B4870"/>
<path d="M220.161 128.595L216.428 131.14L220.5 133.091L220.161 128.595ZM242.28 119.73L246.013 117.185L241.941 115.213L242.28 119.73Z" fill="#FFBE55"/>
<path d="M221.708 115.489L225.441 112.944L221.369 110.971L221.708 115.489Z" fill="#2A94F4"/>
<path d="M58.8323 49.7442L62.5648 47.1993L58.4929 45.2269L58.8323 49.7442Z" fill="#FFBE55"/>
<path d="M74.738 105.945L78.4706 103.4L74.3987 101.428L74.738 105.945Z" fill="#0B4870"/>
<path d="M50.9216 78.5232L53.1697 82.4466L55.4389 78.5232H50.9216Z" fill="#2A94F4"/>
<path d="M204.679 43.5304L206.927 47.4539L209.196 43.5304H204.679Z" fill="#FFBE55"/>
<path d="M101.821 119.539H142.285V150.948H101.821V119.539Z" fill="#FFBE55"/>
<path d="M114.8 119.539H142.497V150.948H114.8V119.539Z" fill="#FFBE55"/>
<path d="M125.149 119.539H130.918V150.948H125.149V119.539Z" fill="white"/>
<path d="M110.813 100.749H134.057V119.539H110.813V100.749Z" fill="#2A94F4"/>
<path opacity="0.35" d="M116.305 100.749H134.141V119.539H116.305V100.749Z" fill="#0E538C"/>
<path d="M122.265 100.749H127.334V119.539H122.265V100.749Z" fill="white"/>
<path opacity="0.13" d="M101.799 119.476H110.919V150.863H101.799V119.476Z" fill="black"/>
<path d="M149.199 85.5219C149.199 85.5219 145.127 106.2 158.233 107.96V114.768H167.183L167.989 84.6523L149.199 85.5007" fill="#B97A59"/>
<path d="M163.027 89.0423C163.027 89.0423 150.005 92.4144 147.693 87.8971C145.382 83.3798 150.62 80.2835 155.392 80.1987C160.185 80.1138 166.547 81.5348 166.547 81.5348C166.547 81.5348 169.029 79.2231 171.149 80.1987C173.27 81.1742 174.076 83.0405 174.076 85.0765C174.076 87.1124 174.437 89.9543 177.787 92.6901C181.159 95.4471 190.024 102.615 188.773 110.505C187.543 118.394 181.075 117.418 181.075 117.418C181.075 117.418 166.547 118.033 166.547 112.541C166.547 107.048 165.847 101.11 165.847 101.11C165.847 101.11 168.774 98.0133 166.547 95.9773C164.342 93.9414 163.621 97.0377 163.621 97.0377C163.621 97.0377 162.221 91.1631 163.027 89.0423Z" fill="#0B4870"/>
<path d="M156.94 111.862C156.94 111.862 153.186 119.009 150.938 124.693C148.69 130.376 148.224 140.387 149.411 148.658C150.599 156.95 144.321 162.74 145.87 163.927C147.418 165.115 179.484 171.732 179.017 159.537C178.551 147.343 174.882 138.457 174.627 132.9C174.394 127.344 173.8 113.728 169.898 111.82C165.996 109.911 156.94 111.862 156.94 111.862ZM158 79.4776L174.309 88.1304L178.975 66.8589L158 79.4776Z" fill="#FFBE55"/>
<mask id="mask0_179_4503" style="mask-type:luminance" maskUnits="userSpaceOnUse" x="22" y="21" width="255" height="177">
<path d="M110.367 196.927C104.705 196.078 45.4501 186.302 27.2325 136.484C11.3266 92.987 33.913 38.7373 64.9825 27.9001C89.2655 19.4382 100.421 43.8696 142.179 42.9577C185.613 42.0245 195.644 15.133 224.042 22.174C256.786 30.2966 284.102 76.1268 274.092 109.126C271.992 116.061 266.966 126.623 234.433 148.149C182.665 182.421 151.468 203.056 110.367 196.927Z" fill="white"/>
</mask>
<g mask="url(#mask0_179_4503)">
<path d="M44.199 150.715H219.588V185.39H44.199V150.715Z" fill="#FEDCA7"/>
</g>
<path d="M179.951 124.608C179.951 124.608 196.959 156.017 170.895 158.477C144.83 160.937 132.36 154.235 132.36 154.235L137.302 149.994C137.302 149.994 171.446 154.511 174.733 149.167C178.021 143.822 170.895 126.665 170.895 126.665L179.951 124.608Z" fill="#B97A59"/>
<path d="M169.792 130.907L182.262 126.517C182.262 126.517 175.688 108.957 169.792 111.841C163.896 114.725 169.792 130.907 169.792 130.907Z" fill="#FFBE55"/>
<path d="M137.28 149.972C137.28 149.972 135.096 146.261 131.384 145.582C127.673 144.904 131.66 146.685 132.339 147.767C133.017 148.87 125.764 148.594 119.72 147.491C118.405 147.258 117.62 147.194 117.493 147.491C117.154 148.233 121.183 151.118 125.107 152.751C128.415 154.129 131.384 154.532 133.378 154.659C133.866 154.49 134.968 154.066 135.923 152.963C136.983 151.775 137.216 150.481 137.28 149.972Z" fill="#B97A59"/>
<path d="M98.3426 177.013C109.376 177.013 118.32 172.094 118.32 166.027C118.32 159.96 109.376 155.041 98.3426 155.041C87.3091 155.041 78.3647 159.96 78.3647 166.027C78.3647 172.094 87.3091 177.013 98.3426 177.013Z" fill="#FFE5BC"/>
<path d="M86.4023 164.097L99.021 154.235L109.18 160.131L86.4023 164.097Z" fill="white"/>
<path d="M109.18 160.131V166.706L88.0566 169.993L86.4023 164.097" fill="#FFBE55"/>
<path d="M89.7957 83.4223C87.8022 87.1761 90.3471 90.9723 92.0013 94.3019C93.1041 96.5287 93.6131 98.8192 93.2102 101.3C92.8496 103.549 91.9165 105.669 90.9621 107.726C89.0958 111.735 87.3568 115.616 86.6145 120.027C85.8722 124.375 85.8722 128.828 86.254 133.218C86.6781 138.329 87.6113 143.377 88.5656 148.403C88.6505 148.806 89.2655 148.636 89.1807 148.233C87.5052 139.411 85.8086 130.292 87.0599 121.3C87.6961 116.803 89.2655 112.795 91.1954 108.723C92.8284 105.288 94.525 101.534 93.8464 97.6315C93.0829 93.0931 87.8234 88.5334 90.3471 83.7404C90.538 83.3799 89.9866 83.0617 89.7957 83.4223Z" fill="#D3D3D3"/>
<path d="M217.999 88.5C214.628 91.0889 215.369 95.5987 215.493 99.3145C215.573 101.798 215.087 104.093 213.691 106.184C212.43 108.08 210.702 109.623 208.98 111.099C205.619 113.972 202.427 116.782 199.922 120.488C197 123.793 197 128.793 196.5 132.793C197.5 138.293 198.216 145.823 197 150.793C198.5 150.293 197.91 151.195 198 150.793C200.135 142.07 194.932 129.494 199.8 121.831C202.243 118.004 205.334 115.007 208.779 112.103C211.69 109.654 214.79 106.942 215.791 103.11C216.979 98.6632 214.084 92.3327 218.369 89.0182C218.692 88.7693 218.322 88.2511 217.999 88.5Z" fill="#D3D3D3"/>
<path d="M225.713 91.738C222.333 94.3144 223.057 98.8269 223.168 102.543C223.238 105.027 222.743 107.321 221.339 109.406C220.072 111.297 218.337 112.834 216.61 114.303C213.239 117.164 210.037 119.962 207.518 123.659C205.026 127.298 203.163 131.344 201.675 135.491C199.923 140.311 198.66 145.287 197.425 150.252C197.334 150.653 197.963 150.756 198.055 150.355C200.222 141.64 202.494 132.646 207.39 125.001C209.848 121.183 212.95 118.198 216.405 115.306C219.325 112.868 222.436 110.168 223.451 106.339C224.656 101.897 221.784 95.5562 226.081 92.2575C226.405 92.0099 226.037 91.4903 225.713 91.738Z" fill="#D3D3D3"/>
<path d="M35.7957 105.943C37.5623 109.808 42.1234 110.098 45.7724 110.81C48.2107 111.29 50.3382 112.279 52.0625 114.108C53.6274 115.762 54.743 117.793 55.7952 119.802C57.8413 123.721 59.8637 127.462 62.9133 130.735C65.9124 133.969 69.4473 136.678 73.1638 139.046C77.4785 141.818 82.0522 144.148 86.6221 146.448C86.9935 146.626 87.233 146.035 86.8615 145.857C78.84 141.82 70.57 137.619 64.1942 131.155C61.0127 127.915 58.7861 124.232 56.7283 120.223C54.9948 116.837 53.0476 113.207 49.5375 111.371C45.471 109.216 38.6525 110.617 36.3836 105.698C36.2135 105.328 35.6256 105.572 35.7957 105.943Z" fill="#D3D3D3"/>
<path d="M104.154 91.566C98.9364 96.8468 97.4731 104.291 96.3066 111.353C95.6704 115.234 95.0554 119.115 93.995 122.911C92.8286 127.153 91.2804 131.267 89.9655 135.466C88.5022 140.132 87.3145 144.883 87.1873 149.803C87.1873 150.206 87.8235 150.206 87.8235 149.803C88.0356 141.065 91.6621 132.985 94.1222 124.735C96.2854 117.503 96.6884 109.911 98.7455 102.658C99.8696 98.6919 101.651 94.9593 104.578 92.0114C104.896 91.7357 104.429 91.2691 104.154 91.566Z" fill="#D3D3D3"/>
<path d="M50.9936 99.501C52.0111 106.854 57.0292 112.544 61.9248 117.766C64.6181 120.632 67.3243 123.481 69.6923 126.632C72.3492 130.138 74.6729 133.869 77.2059 137.467C80.0188 141.467 83.0668 145.3 86.8946 148.394C87.2144 148.639 87.6014 148.134 87.2816 147.889C80.4756 142.405 76.2686 134.611 71.2173 127.64C66.7933 121.524 61.0124 116.586 56.5071 110.541C54.0432 107.236 52.1644 103.551 51.6051 99.4352C51.5798 99.015 50.9256 99.1015 50.9936 99.501Z" fill="#D3D3D3"/>
<path d="M91.5534 84.893C97.9174 82.6535 100.713 74.1205 97.7965 65.834C94.8805 57.5475 87.3575 52.6455 80.9935 54.885C74.6295 57.1245 71.8344 65.6575 74.7504 73.9439C77.6664 82.2304 85.1893 87.1325 91.5534 84.893Z" fill="#0E538C"/>
<path d="M218.488 90.7745C225.208 91.3762 231.291 84.7711 232.074 76.0215C232.858 67.2719 228.045 59.6912 221.326 59.0895C214.606 58.4878 208.524 65.0929 207.74 73.8425C206.957 82.5921 211.769 90.1728 218.488 90.7745Z" fill="#0E538C"/>
<path d="M226.695 93.8089C233.412 94.4356 239.519 87.853 240.335 79.1064C241.151 70.3598 236.367 62.7613 229.65 62.1347C222.932 61.508 216.825 68.0905 216.009 76.8371C215.193 85.5837 219.978 93.1823 226.695 93.8089Z" fill="#0E538C"/>
<path d="M38.0322 105.442C40.1261 99.0288 35.0539 91.6195 26.7031 88.8931C18.3523 86.1666 9.88525 89.1555 7.79134 95.5689C5.69744 101.982 10.7696 109.392 19.1204 112.118C27.4712 114.844 35.9383 111.856 38.0322 105.442Z" fill="#0E538C"/>
<path d="M119.921 83.6692C123.719 75.7479 121.865 66.962 115.782 64.0455C109.698 61.1289 101.688 65.186 97.8904 73.1073C94.0927 81.0286 95.9459 89.8144 102.029 92.731C108.113 95.6476 116.123 91.5905 119.921 83.6692Z" fill="#FFBE55"/>
<path d="M54.3174 82.1827C50.3405 74.3498 42.24 70.476 36.2244 73.5302C30.2087 76.5845 28.556 85.4102 32.5329 93.243C36.5098 101.076 44.6103 104.95 50.6259 101.895C56.6415 98.8412 58.2942 90.0155 54.3174 82.1827Z" fill="#FFBE55"/>
<path d="M200.289 87.9608C198.401 90.2937 197.319 93.2627 196.492 96.1046C195.517 99.413 194.881 102.849 194.69 106.306C194.478 110.25 195.39 114.131 196.302 117.949C197.489 122.869 198.677 127.747 198.91 132.837C199.165 138.52 198.444 144.183 196.853 149.633C196.747 150.036 197.341 150.185 197.468 149.803C200.183 140.599 200.098 131.182 197.913 121.893C196.895 117.503 195.432 113.007 195.305 108.49C195.199 105.16 195.75 101.788 196.514 98.5435C197.341 95.0654 198.465 91.248 200.755 88.4061C201.01 88.1092 200.564 87.6427 200.289 87.9608Z" fill="#D3D3D3"/>
<path d="M213.89 79.7257C215.536 71.0967 211.498 63.0767 204.871 61.8124C198.244 60.5481 191.537 66.5183 189.891 75.1473C188.245 83.7762 192.282 91.7963 198.909 93.0606C205.537 94.3249 212.243 88.3546 213.89 79.7257Z" fill="#FFBE55"/>
<path d="M242.938 169.693C248.16 173.683 246.503 180.831 241.925 185.233C237.346 189.635 229.722 186.969 225.703 182.788C221.684 178.608 213.612 173.605 218.19 169.203C222.769 164.801 238.919 165.513 242.938 169.693Z" fill="#FFE2B4"/>
<path d="M275.842 21C273.842 35 266 39 261.842 31.5C257.684 24 252.842 26.799 252.842 21C251 13.5 270.491 0 276.842 0C283.193 0 275.842 15.201 275.842 21Z" fill="#FFE2B4"/>
<path d="M26.2747 38.1128C40.1023 41.0789 30.3389 47.2793 22.5686 50.9071C14.7983 54.5349 23.5098 70.5195 17.7248 70.1173C10.1151 71.4347 8.88654 56.8494 9.32699 50.5134C9.76744 44.1774 20.4897 37.7107 26.2747 38.1128Z" fill="#FFE2B4"/>
<path d="M276.169 130.986C279.241 135.905 277.363 142.619 271.976 145.983C266.588 149.347 246.371 158.786 243.299 153.868C240.228 148.949 255.195 145.261 260.583 141.897C265.97 138.533 273.098 126.067 276.169 130.986Z" fill="#FFE2B4"/>
<path d="M33.7446 165.492C29.3032 171.48 20.3085 172.334 13.6546 167.399C7.0006 162.464 10.1533 143.582 14.5948 137.594C19.0362 131.605 18.9415 151.4 25.5954 156.335C32.2494 161.27 38.1861 159.503 33.7446 165.492Z" fill="#FFE2B4"/>
</svg>
