<svg width="278" height="185" viewBox="0 0 278 185" fill="none" xmlns="http://www.w3.org/2000/svg">
<path d="M59.403 50.32L26.9289 50.2682C26.9289 50.2682 28.545 48.174 30.3279 47.915C30.3279 47.915 33.8048 37.6327 39.5946 37.555C44.9804 37.4958 47.1303 43.8931 47.1303 43.8931C47.1303 43.8931 49.6323 41.0293 52.0156 42.3465C54.399 43.6637 55.7446 47.4192 55.7446 47.4192C55.7446 47.4192 58.4319 48.8622 59.403 50.32Z" fill="#EBEBEB"/>
<path d="M99.7093 57.5609L140.775 57.6238C140.775 57.6238 140.775 55.0042 135.123 54.4825C135.123 54.4825 129.974 43.0125 122.086 44.5554C117.175 45.5063 114.655 52.2329 114.655 52.2329C114.655 52.2329 110.948 46.9308 107.983 47.9483C105.017 48.9658 103.242 54.6083 103.242 54.6083C103.242 54.6083 100.191 56.0809 99.7093 57.5609Z" fill="#EBEBEB"/>
<path d="M78.0364 28.3087L105.959 28.3531C105.959 28.3531 103.327 25.9 102.156 25.9C100.984 25.9 97.578 17.6712 93.2115 18.0153C88.8451 18.3594 86.5173 24.4755 86.5173 24.4755C86.5173 24.4755 81.2093 22.8068 78.0364 28.3087Z" fill="#EBEBEB"/>
<path d="M142.38 36.8965L166.259 36.9335C166.259 36.9335 165.076 35.3906 163.768 35.1945C163.768 35.1945 161.233 27.6243 156.97 27.5651C153.008 27.5096 151.41 32.2086 151.41 32.2086C151.41 32.2086 149.575 30.0959 147.822 31.0579C146.069 32.0199 145.072 34.7801 145.072 34.7801C145.072 34.7801 143.1 35.8383 142.38 36.8965Z" fill="#EBEBEB"/>
<path d="M261.85 66.6814C261.867 77.2643 258.51 87.5781 252.265 96.1297C247.216 103.062 240.47 108.586 232.672 112.172C224.874 115.758 216.284 117.287 207.725 116.613C199.165 115.939 190.922 113.084 183.784 108.321C176.646 103.558 170.851 97.0471 166.955 89.4101C163.058 81.7731 161.189 73.2659 161.527 64.7019C161.865 56.138 164.398 47.8039 168.885 40.4966C173.372 33.1894 179.662 27.1534 187.153 22.9659C194.644 18.7785 203.087 16.5796 211.673 16.5797C213.048 16.5797 214.412 16.6315 215.75 16.7425C223.524 17.3633 231.043 19.7952 237.705 23.8428C242.846 26.9665 247.386 30.9839 251.108 35.705C258.08 44.524 261.867 55.4327 261.857 66.6666L261.85 66.6814Z" fill="#EBEBEB"/>
<path d="M222.504 90.3244C221.874 92.0079 222.926 92.0782 222.997 92.7812C223.067 93.4842 222.997 94.8125 220.958 96.8512C218.919 98.8899 215.546 98.4644 214.846 99.308C214.145 100.152 212.948 103.726 211.261 104.921C209.575 106.116 209.293 105.409 206.902 105.901C204.512 106.394 202.684 109.479 201.984 110.952C201.283 112.425 202.124 114.881 200.438 114.952C198.751 115.022 197.977 111.374 196.431 109.402C194.885 107.43 194.392 105.683 193.899 103.371C193.406 101.058 194.181 96.2148 193.899 94.3204C193.618 92.426 188.558 89.059 186.731 86.7428C184.903 84.4266 182.368 79.8016 182.516 78.2587C182.73 76.7616 183.478 75.3915 184.622 74.3996C185.467 73.7669 185.115 73.4191 185.255 72.8567C185.396 72.2943 186.101 72.1537 186.241 71.4544C186.382 70.7551 185.819 68.6461 185.129 68.2946C184.44 67.9431 183.936 69.1382 183.513 68.9273C183.091 68.7164 181.827 67.2438 181.334 67.1032C180.841 66.9626 180.985 68.0171 180.281 66.6814C179.577 65.3457 179.214 61.9824 178.661 61.42C178.109 60.8576 177.675 62.4042 176.341 61.42C175.007 60.4358 174.443 58.5451 173.883 58.2639C173.324 57.9827 172.545 58.3342 171.967 57.2131C171.389 56.092 172.475 54.0533 171.967 54.2531C171.459 54.4529 170.369 56.0772 170.088 54.5343C169.806 52.9914 171.493 47.8003 171.2 44.9957C170.907 42.1911 171.904 39.2422 173.872 36.8557C173.872 36.8557 174.15 35.3128 174.432 34.3323C174.714 33.3518 180.759 29.4187 181.475 28.2976C181.767 27.8277 181.868 27.0951 181.971 26.3033C190.578 19.9722 200.993 16.5651 211.684 16.5834C213.059 16.5834 214.423 16.6352 215.761 16.7462C215.806 16.8091 215.854 16.872 215.902 16.9312C216.51 17.7045 217.166 18.1966 218.949 18.8515C220.732 19.5064 221.147 20.3315 220.776 21.0493C220.406 21.7671 219.79 21.8892 219.09 21.9373C218.389 21.9854 217.73 21.608 216.981 22.0779C216.232 22.5478 215.498 25.0712 214.497 25.2118C213.497 25.3524 211.78 22.9659 211.402 22.2518C211.024 21.5377 212.247 20.054 211.673 19.3547C211.098 18.6554 210.094 18.7923 208.5 18.6517C206.906 18.5111 203.203 19.1216 203.344 19.7284C203.485 20.3352 208.778 19.6322 208.904 20.8384C209.03 22.0446 205.016 24.1129 204.315 23.9242C203.615 23.7355 202.684 22.57 201.643 22.4146C200.601 22.2592 199.789 23.1176 199.122 23.2101C198.455 23.3026 197.71 22.5108 196.724 22.6958C195.738 22.8808 195.504 23.7244 194.989 24.0537C194.474 24.383 193.258 24.3793 193.117 25.1267C192.976 25.8741 194.663 26.2996 195.086 26.7658C195.508 27.232 194.567 28.823 194.989 29.1486C195.412 29.4742 198.036 27.1876 198.696 26.6252C199.356 26.0628 199.912 23.6319 201.32 23.6652C202.729 23.6985 203.192 26.0961 203.663 26.3292C204.134 26.5623 205.145 25.7668 206.71 26.0961C208.274 26.4254 209.33 29.7961 209.612 30.821C209.894 31.8459 210.55 32.8782 209.983 33.3C209.416 33.7218 206.891 33.0188 206.565 32.3639C206.239 31.709 208.252 30.7248 208.111 30.4917C207.97 30.2586 206.799 29.9293 206.187 30.2956C205.575 30.6619 205.297 31.4278 204.641 31.6165C203.985 31.8052 202.254 29.8368 201.783 30.3992C201.313 30.9616 202.254 32.7376 202.721 33.1594C203.188 33.5812 204.923 33.8106 205.064 34.2694C205.205 34.7282 203.893 35.7494 202.299 35.6717C200.705 35.594 199.396 34.3619 198.785 34.8762C198.173 35.3905 198.503 36.7484 198.081 37.2146C197.658 37.6808 195.364 37.3552 194.24 38.5725C193.117 39.7898 192.602 41.6102 191.475 42.6425C190.348 43.6748 189.837 42.365 188.336 43.8154C186.835 45.2658 186.605 48.4922 186.556 49.6133C186.508 50.7344 186.556 51.6224 186.186 51.4633C185.815 51.3042 185.296 50.3533 185.155 49.7354C185.015 49.1175 185.482 48.0963 185.482 47.7226C185.482 47.3489 183.328 45.4323 182.06 45.2436C180.793 45.0549 179.673 46.0872 178.724 46.8346C177.775 47.582 176.1 47.4451 175.492 48.0519C174.884 48.6587 174.413 54.0386 174.88 55.3003C175.348 56.562 175.959 56.562 177.475 55.9071C178.991 55.2522 178.131 53.9904 179.021 54.2716C179.421 54.4219 179.765 54.6906 180.008 55.0418C180.25 55.393 180.379 55.8098 180.377 56.2364C180.377 56.9764 178.598 58.7597 178.832 59.274C179.065 59.7883 180.615 59.1815 181.363 59.4146C182.112 59.6477 182.475 60.1176 182.253 62.0342C182.031 63.9508 182.16 65.4493 183.284 66.082C184.407 66.7147 185.04 65.1681 185.533 65.379C186.026 65.5899 186.727 66.711 187.431 66.6407C188.136 66.5704 187.783 65.9414 189.118 65.5307C190.452 65.12 189.959 64.8277 190.23 63.9878C190.5 63.1479 191.342 62.4449 192.268 62.8778C193.195 63.3107 192.55 63.9323 192.639 64.6316C192.728 65.3309 194.326 65.4049 195.604 65.8267C196.883 66.2485 197.573 65.8267 200.104 66.6666C202.636 67.5065 202.773 70.0336 203.83 70.4554C204.886 70.8772 208.396 70.1742 210.928 71.9983C213.459 73.8224 212.755 77.1783 214.019 78.1736C215.283 79.1689 219.994 80.4898 221.803 80.8376C223.612 81.1854 223.909 79.9274 225.388 80.2789C226.866 80.6304 227.704 81.0485 228.197 83.0835C228.631 84.8891 223.141 88.6409 222.504 90.3244Z" fill="#DBDBDB"/>
<path d="M184.74 54.4529C184.788 54.8488 185.96 55.0153 187.365 55.8071C188.769 56.5989 189.285 58.941 190.033 58.8966C190.782 58.8522 190.549 57.7866 190.83 57.4906C191.112 57.1946 191.572 56.6026 190.83 56.0106C190.089 55.4186 189.348 54.094 187.984 53.9053C186.62 53.7166 186.379 53.1653 185.76 53.206C185.606 53.2094 185.456 53.246 185.318 53.3131C185.18 53.3802 185.059 53.4764 184.962 53.5949C184.865 53.7134 184.795 53.8515 184.757 53.9996C184.719 54.1477 184.713 54.3024 184.74 54.4529Z" fill="#DBDBDB"/>
<path d="M192.472 58.3824C192.261 58.9559 192.472 59.3629 193.955 59.7366C195.438 60.1103 196.861 59.3666 196.394 59.0595C195.927 58.7524 195.223 58.8967 195.501 58.3824C195.779 57.8681 195.686 57.117 194.47 57.2724C193.254 57.4278 192.658 57.8681 192.472 58.3824Z" fill="#DBDBDB"/>
<path d="M197.717 58.5414C197.209 58.6154 196.924 59.5034 197.439 60.0658C197.955 60.6282 197.955 60.532 198.551 60.0658C199.148 59.5996 200.097 59.3628 199.863 58.8966C199.63 58.4304 198.236 58.46 197.717 58.5414Z" fill="#DBDBDB"/>
<path d="M201.795 60.4506C202.024 59.7513 203.199 60.4506 203.715 61.1906C204.23 61.9306 203.996 63.0147 203.715 63.8102C203.433 64.6057 203.248 65.5418 202.603 65.1681C201.958 64.7944 202.651 63.6696 202.555 63.0147C202.458 62.3598 201.609 61.0241 201.795 60.4506Z" fill="#DBDBDB"/>
<path d="M221.989 21.4341C221.744 22.0224 222.878 22.2296 223.534 22.6033C224.19 22.977 224.706 23.2101 225.08 22.6033C225.454 21.9965 224.939 21.2935 224.424 21.1529C223.909 21.0123 222.222 20.8717 221.989 21.4341Z" fill="#DBDBDB"/>
<path d="M230.844 26.9064C231.277 27.3615 232.015 27.2764 232.53 27.935C233.046 28.5936 232.86 29.711 233.516 30.0403C234.172 30.3696 234.628 30.0403 234.688 29.5704C234.747 29.1005 233.75 27.935 233.842 27.7204C233.935 27.5058 235.203 28.046 235.485 28.749C235.766 29.452 235.203 30.4325 235.855 30.599C236.508 30.7655 236.37 29.9441 236.652 29.7591C236.934 29.5741 237.542 29.6629 237.494 29.1042C237.445 28.5455 236.697 27.3245 236.089 26.9064C235.481 26.4883 235.01 26.0184 233.98 25.7964C232.949 25.5744 231.967 25.752 231.448 26.1664C230.929 26.5808 230.577 26.64 230.844 26.9064Z" fill="#DBDBDB"/>
<path d="M251.116 35.7198C251.087 35.9093 250.994 36.0832 250.852 36.2119C249.866 36.9149 248.695 34.4803 247.338 34.0141C245.982 33.5479 245.381 31.82 245.088 32.19C244.796 32.56 244.899 33.078 244.477 33.67C244.054 34.262 243.446 34.1399 243.168 35.3091C242.89 36.4783 244.477 38.6391 244.106 39.331C243.736 40.0229 243.261 39.7972 242.509 39.7528C241.756 39.7084 241.901 40.3596 240.918 40.0784C239.936 39.7972 240.778 38.5984 239.232 37.1184C237.686 35.6384 237.167 35.3868 237.501 34.7319C237.835 34.077 237.356 33.1446 238.061 33.0484C238.765 32.9522 239.325 33.9845 239.792 34.2657C240.259 34.5469 240.87 33.7033 240.904 32.9559C240.937 32.2085 239.262 31.1799 238.654 30.599C238.046 30.0181 237.998 27.9054 238.231 27.4836C238.465 27.0618 239.169 27.2024 239.343 26.1738C239.451 25.5707 238.494 24.5606 237.683 23.828C242.837 26.9576 247.387 30.9854 251.116 35.7198Z" fill="#DBDBDB"/>
<path d="M258.114 77.6519C258.255 76.1534 257.506 76.0609 258.255 73.3007C259.003 70.5405 257.458 67.5953 256.894 66.9885C256.331 66.3817 255.115 66.5667 254.129 67.1735C253.143 67.7803 253.851 68.2502 253.191 68.4833C252.532 68.7164 251.883 68.3427 251.271 68.3908C250.66 68.4389 250.1 69.9781 248.788 69.9337C247.476 69.8893 246.634 68.0171 245.652 66.6814C244.67 65.3457 242.65 64.5095 241.997 62.8704C241.345 61.2313 242.605 58.7079 242.323 56.7913C242.042 54.8747 240.778 55.2928 240.544 54.2013C240.311 53.1098 240.729 53.6389 241.059 52.6103C241.389 51.5817 240.689 51.0193 241.341 49.2433C241.993 47.4673 243.168 46.5756 242.887 45.7838C242.605 44.992 241.715 43.6785 241.667 42.7461C241.619 41.8137 242.557 41.8544 244.336 40.5261C246.115 39.1978 246.586 39.3088 247.946 39.7861C248.921 40.1478 249.924 40.4299 250.945 40.6297C251.742 40.7703 252.821 42.8275 253.147 42.735C253.473 42.6425 253.517 42.032 253.662 41.144C253.752 40.7574 253.956 40.4067 254.248 40.1376C259.536 48.6035 262.172 58.4524 261.819 68.423C261.465 78.3935 258.139 88.0319 252.265 96.1038C257.046 88.8481 257.984 79.1467 258.114 77.6519Z" fill="#DBDBDB"/>
<path d="M181.538 38.247L181.456 37.9806L181.827 37.877L181.905 38.1434L181.538 38.247Z" fill="#C7C7C7"/>
<path d="M247.943 49.2877L247.405 48.7734L247.598 48.5736L248.135 49.0916L247.943 49.2877ZM246.864 48.2665L246.312 47.7707L246.497 47.5635C246.682 47.7263 246.868 47.8928 247.053 48.063L246.864 48.2665ZM245.752 47.2823L245.185 46.8013L245.363 46.5867L245.934 47.0714L245.752 47.2823ZM244.607 46.3314C244.414 46.176 244.236 46.0206 244.025 45.8689L244.195 45.6506L244.781 46.1131L244.607 46.3314ZM243.432 45.4175L242.835 44.9772L242.998 44.7515L243.598 45.1955L243.432 45.4175ZM242.231 44.5443L241.615 44.1188L241.775 43.8894L242.39 44.3149L242.231 44.5443ZM241 43.7081C240.789 43.5712 240.581 43.4343 240.374 43.3048L240.522 43.068L241.152 43.475L241 43.7081ZM239.74 42.9089L239.102 42.5389L239.247 42.2984L239.888 42.6684L239.74 42.9089ZM238.461 42.1689L237.812 41.7989L237.946 41.5547L238.598 41.9247L238.461 42.1689ZM237.153 41.44L236.493 41.0959L236.619 40.8517C236.841 40.9627 237.064 41.0774 237.282 41.1958L237.153 41.44ZM235.826 40.7629C235.603 40.6519 235.381 40.5446 235.158 40.441L235.277 40.1894L235.952 40.515L235.826 40.7629ZM234.484 40.1265L233.802 39.8194L233.917 39.5678L234.599 39.8712L234.484 40.1265ZM233.12 39.5271C232.89 39.4272 232.66 39.3347 232.43 39.2422L232.538 38.9832C232.768 39.077 232.997 39.1732 233.227 39.2718L233.12 39.5271ZM231.741 38.9647L231.048 38.702L231.148 38.443L231.845 38.7094L231.741 38.9647ZM230.355 38.4467L229.65 38.1988L229.743 37.9361L230.447 38.184L230.355 38.4467ZM228.95 37.962L228.242 37.7363L228.327 37.4699L229.035 37.6993L228.95 37.962ZM182.616 37.962L182.542 37.6956L183.265 37.4995L183.335 37.7696L182.616 37.962ZM184.058 37.592L183.992 37.3219L184.733 37.1443L184.8 37.4144L184.058 37.592ZM227.545 37.5402L226.829 37.3293L226.907 37.0629L227.623 37.2738L227.545 37.5402ZM185.511 37.2442L185.448 36.9741L186.19 36.8076L186.249 37.0777L185.511 37.2442ZM226.107 37.0999C225.866 37.037 225.629 36.9704 225.388 36.9112L225.458 36.6411L226.177 36.8335L226.107 37.0999ZM186.953 36.889L186.898 36.6189L187.639 36.4635L187.695 36.7373L186.953 36.889ZM224.668 36.7262L223.927 36.5523L223.99 36.2822C224.231 36.3414 224.476 36.3969 224.732 36.4598L224.668 36.7262ZM188.417 36.5893L188.362 36.3155L189.103 36.1749L189.155 36.4487L188.417 36.5893ZM223.223 36.3895L222.482 36.2304L222.541 35.9603L223.282 36.1194L223.223 36.3895ZM189.863 36.3118L189.815 36.038L190.556 35.9085L190.601 36.1823L189.863 36.3118ZM221.74 36.0824L220.999 35.9418L221.051 35.668C221.295 35.7161 221.54 35.7605 221.792 35.8123L221.74 36.0824ZM191.346 36.0565L191.297 35.7827L192.039 35.6606L192.079 35.9344L191.346 36.0565ZM192.828 35.8234L192.787 35.5459L193.529 35.4386L193.566 35.7124L192.828 35.8234ZM220.302 35.8234L219.561 35.7013L219.605 35.4275L220.347 35.5496L220.302 35.8234ZM194.307 35.6236L194.266 35.3498L195.008 35.2499L195.041 35.5274L194.307 35.6236ZM218.83 35.5829L218.089 35.4756L218.13 35.2018L218.871 35.3091L218.83 35.5829ZM195.786 35.4349L195.749 35.15L196.49 35.0649L196.524 35.3387L195.786 35.4349ZM217.355 35.3757L216.614 35.2832L216.647 35.0094L217.389 35.1019L217.355 35.3757ZM197.269 35.2647L197.239 34.9909L197.981 34.9132L198.006 35.1907L197.269 35.2647ZM215.876 35.1981L215.135 35.1204L215.161 34.8429L215.902 34.9206L215.876 35.1981ZM198.751 35.1204L198.729 34.8429L199.471 34.78L199.493 35.0538L198.751 35.1204ZM214.39 35.0501L213.649 34.9872L213.671 34.7097L214.412 34.7726L214.39 35.0501ZM200.238 34.9946L200.219 34.7208L200.961 34.6653L200.979 34.9428L200.238 34.9946ZM212.904 34.9317L212.162 34.8836V34.6061L212.904 34.6542V34.9317ZM201.728 34.8947L201.709 34.6172L202.451 34.5765V34.854L201.728 34.8947ZM211.417 34.8392L210.676 34.8059V34.5284L211.417 34.5654V34.8392ZM203.218 34.817V34.5395L203.959 34.5099V34.7874L203.218 34.817ZM209.927 34.78C209.68 34.78 209.433 34.7726 209.186 34.7578V34.4803C209.434 34.4803 209.686 34.4803 209.927 34.5025V34.78ZM204.708 34.78V34.5025H205.449V34.78H204.708ZM208.437 34.7578H207.696V34.4803H208.437V34.7578ZM206.213 34.7578V34.447H206.954V34.7245L206.213 34.7578Z" fill="#C7C7C7"/>
<path d="M248.754 50.1054L248.499 49.8427L248.695 49.6466L248.955 49.913L248.754 50.1054Z" fill="#C7C7C7"/>
<path d="M192.802 68.4167C192.776 68.284 192.765 68.1487 192.769 68.0134H193.047C193.042 68.1263 193.051 68.2393 193.073 68.3501L192.802 68.4167Z" fill="#C7C7C7"/>
<path d="M193.073 67.2808H192.795C192.795 67.081 192.821 66.859 192.836 66.6148V66.5371L193.114 66.5556V66.6296C193.117 66.859 193.084 67.081 193.073 67.2808ZM193.165 65.8008L192.887 65.7823C192.887 65.5492 192.917 65.305 192.932 65.0423H193.206C193.195 65.3198 193.18 65.5677 193.165 65.8008ZM193.243 64.3208H192.965C192.965 64.084 192.965 63.8361 192.988 63.5808H193.266C193.262 63.8287 193.251 64.0766 193.243 64.3171V64.3208ZM193.28 62.8408H193.002C193.002 62.6521 193.002 62.4708 193.002 62.2673V62.1008H193.28V62.2673C193.284 62.4449 193.284 62.6373 193.28 62.826V62.8408ZM192.999 61.3608C192.999 61.1203 192.999 60.8724 192.976 60.6208H193.254C193.254 60.8761 193.254 61.124 193.277 61.3608H192.999ZM192.943 59.8808C192.943 59.6403 192.913 59.3924 192.895 59.1408L193.173 59.1186C193.191 59.3702 193.206 59.6181 193.221 59.8586L192.943 59.8808ZM192.832 58.4008C192.81 58.1603 192.784 57.9161 192.758 57.6608L193.032 57.6275C193.062 57.8791 193.088 58.1233 193.11 58.3675L192.832 58.4008ZM192.665 56.9208C192.635 56.6803 192.598 56.4361 192.561 56.1808L192.836 56.1401C192.873 56.388 192.91 56.6322 192.943 56.8801L192.665 56.9208ZM192.439 55.4408C192.394 55.2003 192.346 54.9598 192.298 54.7008L192.572 54.6453C192.621 54.8895 192.669 55.1337 192.71 55.3853L192.439 55.4408ZM192.142 53.9941C192.091 53.7536 192.031 53.5131 191.972 53.2726L192.243 53.206C192.302 53.4502 192.361 53.6907 192.417 53.946L192.142 53.9941ZM191.772 52.5585C191.705 52.3254 191.635 52.0886 191.564 51.8518L191.827 51.7704C191.902 52.0072 191.972 52.2477 192.039 52.4845L191.772 52.5585ZM191.338 51.1488C191.259 50.9169 191.177 50.6838 191.093 50.4495L191.357 50.3533C191.442 50.5901 191.523 50.8232 191.601 51.06L191.338 51.1488ZM190.83 49.7613C190.741 49.5319 190.649 49.3025 190.549 49.0768L190.804 48.9695C190.904 49.1989 190.997 49.4283 191.09 49.6577L190.83 49.7613ZM190.248 48.4034C190.145 48.1814 190.041 47.9594 189.93 47.7374L190.178 47.6116C190.289 47.8373 190.397 48.063 190.5 48.285L190.248 48.4034ZM189.589 47.0825C189.474 46.8679 189.355 46.6496 189.218 46.435L189.459 46.2981C189.585 46.5164 189.707 46.731 189.829 46.9493L189.589 47.0825ZM188.847 45.8023C188.717 45.5951 188.588 45.3879 188.451 45.1807L188.684 45.029C188.821 45.2362 188.955 45.4471 189.084 45.658L188.847 45.8023ZM188.032 44.5702C187.891 44.3704 187.746 44.1743 187.598 43.9745L187.82 43.808C187.972 44.0078 188.117 44.2076 188.262 44.4111L188.032 44.5702ZM187.146 43.3936C186.99 43.2012 186.834 43.0236 186.675 42.8238L186.886 42.6462C187.049 42.8349 187.205 43.0162 187.361 43.2197L187.146 43.3936ZM186.186 42.2836C186.019 42.1023 185.852 41.9136 185.678 41.7434L185.878 41.551C186.054 41.7311 186.224 41.9124 186.39 42.0949L186.186 42.2836ZM185.155 41.2217C184.981 41.0515 184.803 40.885 184.618 40.7185L184.807 40.5113L185.352 41.0219L185.155 41.2217ZM184.066 40.2264C183.88 40.0673 183.695 39.9119 183.498 39.7528L183.676 39.5382C183.869 39.6973 184.047 39.8564 184.247 40.0155L184.066 40.2264ZM182.92 39.2977C182.724 39.1497 182.527 39.0017 182.323 38.8574L182.487 38.6317L183.087 39.0757L182.92 39.2977Z" fill="#C7C7C7"/>
<path d="M181.727 38.4356L181.419 38.2284L181.575 37.999L181.882 38.2062L181.727 38.4356Z" fill="#C7C7C7"/>
<path d="M193.588 66.7776L193.384 66.5889C193.384 66.5889 193.469 66.4927 193.64 66.3188L193.84 66.5112C193.673 66.6814 193.592 66.7739 193.588 66.7776Z" fill="#C7C7C7"/>
<path d="M194.366 65.9858L194.17 65.786L194.715 65.268L194.908 65.4678L194.366 65.9858ZM195.456 64.9646L195.271 64.7574C195.445 64.5983 195.642 64.4318 195.834 64.2579L196.016 64.4688C195.82 64.6427 195.63 64.8055 195.456 64.9646ZM196.568 63.9804L196.39 63.7695C196.576 63.6141 196.761 63.4513 196.969 63.2885L197.143 63.5031L196.568 63.9804ZM197.725 63.0332L197.551 62.8149L198.144 62.3487L198.314 62.5707C198.125 62.7261 197.936 62.9 197.74 63.0332H197.725ZM198.907 62.1156L198.74 61.8936C198.933 61.7456 199.137 61.5976 199.341 61.4459L199.508 61.6679C199.315 61.8196 199.115 61.9676 198.922 62.1156H198.907ZM200.112 61.2276L199.949 61.0019L200.564 60.569L200.723 60.7984L200.112 61.2276ZM201.339 60.3729L201.183 60.1435L201.806 59.7254L201.958 59.9585C201.761 60.0954 201.557 60.236 201.354 60.3729H201.339ZM202.584 59.5478L202.436 59.3147L203.07 58.9114L203.218 59.1482L202.584 59.5478ZM203.852 58.7523L203.707 58.5192L204.352 58.1492L204.493 58.386L203.852 58.7523ZM205.138 57.9901L204.997 57.7496L205.653 57.3796L205.787 57.6201L205.138 57.9901ZM206.443 57.2501L206.309 57.0059L206.969 56.6359L207.099 56.8801L206.443 57.2501ZM207.762 56.5471L207.633 56.2992L208.304 55.9588L208.43 56.2067C208.218 56.3251 207.996 56.4398 207.777 56.5545L207.762 56.5471ZM209.097 55.8737L208.974 55.6258L209.653 55.3002L209.771 55.5518L209.097 55.8737ZM210.45 55.2336L210.335 54.982L211.017 54.6712L211.132 54.9265L210.45 55.2336ZM211.817 54.6268L211.706 54.3715L212.396 54.0755L212.503 54.3345L211.817 54.6268ZM213.196 54.0496L213.093 53.7906L213.789 53.5131L213.889 53.7721L213.196 54.0496ZM214.59 53.5057L214.49 53.243L215.194 52.984L215.291 53.243C215.068 53.3355 214.835 53.4243 214.616 53.5131L214.59 53.5057ZM215.995 52.9914L215.902 52.7287L216.614 52.4845L216.703 52.7472L215.995 52.9914ZM217.411 52.5141L217.326 52.2477L218.041 52.022L218.123 52.2847L217.411 52.5141ZM218.838 52.0664L218.76 51.8L219.479 51.5891L219.557 51.8555L218.838 52.0664ZM220.276 51.652L220.202 51.3856L220.943 51.1895L221.014 51.4596L220.276 51.652ZM221.722 51.282L221.655 51.0119L222.396 50.8343L222.459 51.1044C222.222 51.1599 221.977 51.2191 221.737 51.282H221.722ZM223.178 50.9342L223.115 50.6641L223.857 50.5013L223.916 50.7751L223.178 50.9342ZM224.661 50.6234L224.605 50.3496L225.347 50.2053L225.399 50.4791C225.144 50.5235 224.897 50.5716 224.657 50.6234H224.661ZM226.144 50.3422L226.096 50.0684L226.837 49.9426L226.881 50.2164L226.144 50.3422ZM227.626 50.098L227.586 49.8242L228.327 49.7132L228.368 49.987L227.626 50.098ZM247.75 49.987L247.009 49.8908L247.046 49.6133L247.787 49.7132L247.75 49.987ZM229.072 49.8871L229.035 49.6096L229.776 49.5171L229.81 49.7946L229.072 49.8871ZM246.23 49.7983L245.489 49.7169L245.518 49.4431L246.26 49.5245L246.23 49.7983ZM230.555 49.7095L230.525 49.432L231.266 49.3543L231.292 49.6318L230.555 49.7095ZM244.74 49.6429L243.999 49.5763L244.025 49.2988L244.766 49.3654L244.74 49.6429ZM232.056 49.58L232.034 49.3025L232.775 49.2433V49.5171L232.056 49.58ZM243.261 49.5319L242.52 49.4801L242.538 49.2026L243.28 49.2544L243.261 49.5319ZM233.546 49.4653V49.1915C233.794 49.1915 234.043 49.1582 234.287 49.1471V49.4246L233.546 49.4653ZM241.771 49.4357L241.03 49.3987V49.1212L241.771 49.1582V49.4357ZM235.04 49.3876V49.1101L235.781 49.0842V49.3617L235.04 49.3876ZM240.277 49.3691L239.536 49.3469V49.0694L240.277 49.0916V49.3691ZM236.537 49.3432V49.0657C236.789 49.0657 237.038 49.0657 237.279 49.0657V49.3432C237.034 49.3173 236.786 49.321 236.537 49.3284V49.3432ZM238.78 49.3432H238.038V49.0657H238.78V49.3432Z" fill="#C7C7C7"/>
<path d="M248.836 50.1461L248.469 50.0906L248.51 49.8168L248.877 49.8723L248.836 50.1461Z" fill="#C7C7C7"/>
<path d="M210.168 74.9805L209.894 74.9324C209.894 74.9324 209.916 74.8066 209.946 74.5624L210.22 74.5994C210.194 74.851 210.168 74.9805 210.168 74.9805Z" fill="#C7C7C7"/>
<path d="M210.305 73.8594L210.027 73.8335C210.027 73.6152 210.064 73.3673 210.079 73.0935H210.357C210.342 73.3858 210.324 73.63 210.305 73.8594ZM210.387 72.3535H210.109C210.109 72.1167 210.109 71.8688 210.109 71.6135H210.387C210.398 71.8614 210.394 72.113 210.387 72.3535ZM210.116 70.8513C210.116 70.6071 210.116 70.3592 210.09 70.1113H210.368C210.368 70.3703 210.39 70.6219 210.394 70.8513H210.116ZM210.049 69.3713C210.049 69.1271 210.016 68.8792 209.994 68.6313L210.268 68.6054C210.29 68.8644 210.313 69.1123 210.327 69.3454L210.049 69.3713ZM209.916 67.8913C209.89 67.6471 209.86 67.4029 209.823 67.1513L210.101 67.1106C210.135 67.3659 210.164 67.6138 210.194 67.8506L209.916 67.8913ZM209.716 66.4113C209.679 66.1671 209.634 65.9229 209.59 65.6713L209.864 65.6232C209.909 65.8748 209.953 66.1227 209.99 66.3632L209.716 66.4113ZM209.449 64.9313C209.401 64.6908 209.345 64.4466 209.289 64.1913L209.56 64.1284C209.619 64.3763 209.671 64.6205 209.719 64.8684L209.449 64.9313ZM209.115 63.4735C209.052 63.2367 208.989 62.9962 208.923 62.752L209.189 62.678C209.256 62.9222 209.323 63.1664 209.382 63.418L209.115 63.4735ZM208.715 62.0342C208.641 61.7974 208.567 61.5606 208.489 61.3238L208.752 61.235C208.83 61.4755 208.908 61.716 208.978 61.9528L208.715 62.0342ZM208.244 60.6134C208.163 60.384 208.077 60.1472 207.985 59.9141L208.244 59.8142C208.337 60.051 208.422 60.2878 208.507 60.5209L208.244 60.6134ZM207.71 59.2C207.618 58.9743 207.518 58.7449 207.418 58.5155L207.673 58.4008C207.773 58.6339 207.874 58.867 207.966 59.0964L207.71 59.2ZM207.11 57.8347C207.006 57.609 206.895 57.387 206.784 57.1613L207.032 57.0355C207.147 57.2649 207.255 57.4906 207.362 57.7163L207.11 57.8347ZM206.443 56.4953C206.327 56.2782 206.203 56.0599 206.072 55.8404L206.313 55.7035C206.439 55.9255 206.558 56.1475 206.684 56.3658L206.443 56.4953ZM205.701 55.1929C205.575 54.9783 205.446 54.7674 205.312 54.5528L205.549 54.4085C205.683 54.6231 205.813 54.8377 205.942 55.0523L205.701 55.1929ZM204.908 53.9275C204.775 53.7203 204.634 53.5131 204.489 53.3059L204.719 53.1505C204.862 53.3577 205.003 53.5649 205.142 53.7721L204.908 53.9275ZM204.056 52.6991C203.911 52.4993 203.759 52.2995 203.607 52.0997L203.83 51.9332C203.982 52.133 204.134 52.3328 204.282 52.5363L204.056 52.6991ZM203.144 51.5151C202.992 51.3227 202.832 51.1451 202.669 50.9379L202.881 50.7603C203.044 50.9527 203.207 51.1303 203.363 51.3412L203.144 51.5151ZM202.18 50.3755C202.017 50.1905 201.847 50.0055 201.676 49.8205L201.88 49.6318C202.054 49.8168 202.221 50.0018 202.388 50.1905L202.18 50.3755ZM201.161 49.2655C200.99 49.0879 200.812 48.8955 200.634 48.7327L200.831 48.5366L201.361 49.0694L201.161 49.2655ZM200.097 48.2147C199.915 48.0482 199.726 47.878 199.545 47.7115L199.73 47.5043L200.286 48.0149L200.097 48.2147ZM198.985 47.2157L198.41 46.7347L198.588 46.5201L199.167 47.0048L198.985 47.2157ZM197.828 46.2648C197.636 46.1131 197.458 45.9577 197.239 45.806L197.406 45.5877C197.606 45.7394 197.806 45.8911 198.003 46.0465L197.828 46.2648ZM196.639 45.362C196.438 45.2177 196.235 45.0697 196.027 44.9291L196.186 44.6997L196.824 45.14L196.639 45.362ZM195.408 44.5073C195.203 44.3667 194.995 44.2298 194.785 44.0966L194.934 43.8635L195.564 44.2742L195.408 44.5073ZM194.151 43.697L193.51 43.327L193.651 43.0902L194.296 43.4602L194.151 43.697ZM192.862 42.9348L192.209 42.5648L192.343 42.3243C192.565 42.4427 192.784 42.566 192.999 42.6943L192.862 42.9348ZM191.549 42.217C191.331 42.1023 191.108 41.9876 190.882 41.8766L191.008 41.6287C191.234 41.7397 191.457 41.8544 191.679 41.9728L191.549 42.217ZM190.211 41.5436L189.533 41.2217L189.652 40.9701L190.334 41.292L190.211 41.5436ZM188.851 40.9109L188.165 40.6112L188.276 40.3559C188.506 40.4558 188.74 40.5557 188.966 40.6593L188.851 40.9109ZM187.487 40.33L186.79 40.0488L186.894 39.7898L187.591 40.0747L187.487 40.33ZM186.093 39.7787L185.389 39.516L185.485 39.257L186.19 39.5197L186.093 39.7787ZM184.685 39.2644L183.977 39.0239L184.062 38.7612C184.303 38.8389 184.54 38.9203 184.777 39.0054L184.685 39.2644ZM183.261 38.7908C183.028 38.7131 182.787 38.6391 182.546 38.5651L182.631 38.2987L183.347 38.5244L183.261 38.7908Z" fill="#C7C7C7"/>
<path d="M181.816 38.3505L181.46 38.2469L181.534 37.9805L181.894 38.0841L181.816 38.3505Z" fill="#C7C7C7"/>
<path d="M248.525 50.2201L248.465 49.9463L248.836 49.8723L248.888 50.1461L248.525 50.2201Z" fill="#C7C7C7"/>
<path d="M203.411 100.703L203.136 100.659C203.174 100.418 203.214 100.174 203.251 99.9185L203.526 99.963C203.496 100.218 203.448 100.462 203.411 100.703ZM203.652 99.2563L203.377 99.2082C203.422 98.9677 203.463 98.7235 203.511 98.4682L203.781 98.5199C203.737 98.79 203.692 99.0158 203.652 99.2563ZM203.922 97.8132L203.648 97.7615L203.793 97.0215L204.067 97.0769L203.922 97.8132ZM204.219 96.3777L203.948 96.3185C204 96.078 204.052 95.8375 204.108 95.6007L204.378 95.6635C204.326 95.9003 204.271 96.1372 204.237 96.3777H204.219ZM204.545 94.9494L204.274 94.8829L204.452 94.1687L204.719 94.2354C204.66 94.4722 204.608 94.72 204.545 94.9494ZM204.916 93.525L204.649 93.4547L204.838 92.7443L205.105 92.8182L204.916 93.525ZM205.305 92.1115L205.038 92.0339C205.105 91.7971 205.171 91.564 205.242 91.3272L205.509 91.4086C205.423 91.6417 205.349 91.8747 205.29 92.13L205.305 92.1115ZM205.72 90.7055L205.457 90.6241C205.527 90.3873 205.601 90.1542 205.676 89.9211L205.942 90.0062C205.85 90.2393 205.779 90.4724 205.72 90.7055ZM206.169 89.3107L205.905 89.2218C205.983 88.9887 206.061 88.7556 206.143 88.5225L206.406 88.615C206.309 88.8444 206.232 89.0776 206.154 89.3107H206.169ZM206.647 87.9232L206.383 87.8307L206.639 87.1387L206.899 87.235C206.799 87.4607 206.713 87.6901 206.632 87.9232H206.647ZM207.158 86.5468L206.899 86.4505L207.166 85.7623L207.425 85.866L207.158 86.5468ZM207.699 85.1851L207.444 85.0815C207.536 84.8521 207.633 84.6264 207.729 84.4007L207.985 84.508L207.699 85.1851ZM208.274 83.8383L208.022 83.7236C208.118 83.4979 208.222 83.2759 208.322 83.0539L208.574 83.1686L208.274 83.8383ZM208.882 82.5026L208.63 82.3842C208.734 82.1622 208.841 81.9402 208.949 81.7182L209.197 81.8403C209.075 82.0586 208.971 82.2806 208.867 82.51L208.882 82.5026ZM209.519 81.1817L209.271 81.0596L209.605 80.401L209.853 80.5268L209.519 81.1817ZM210.19 79.8793L209.946 79.7461L210.294 79.0986L210.539 79.2318C210.409 79.4464 210.29 79.661 210.168 79.8793H210.19ZM210.895 78.5917L210.654 78.4548C210.772 78.2402 210.895 78.0256 211.024 77.8147L211.265 77.9553L210.895 78.5917ZM211.636 77.3226L211.395 77.1783C211.521 76.9674 211.647 76.7565 211.766 76.5493L212.003 76.6936C211.866 76.9008 211.74 77.1117 211.617 77.33L211.636 77.3226ZM212.392 76.0721L212.158 75.924C212.288 75.7168 212.422 75.5096 212.555 75.3024L212.789 75.4541C212.644 75.6576 212.514 75.8501 212.392 76.0721ZM213.193 74.8436L212.959 74.6882C213.096 74.481 213.237 74.2776 213.374 74.0778L213.604 74.2331L213.193 74.8436ZM214.023 73.6337L213.793 73.471L214.223 72.8715L214.449 73.0343C214.294 73.2341 214.153 73.4302 214.012 73.63L214.023 73.6337ZM214.883 72.446L214.66 72.2795C214.809 72.0797 214.953 71.8836 215.105 71.6912L215.324 71.8578C215.165 72.0539 215.016 72.2462 214.872 72.446H214.883ZM215.772 71.2805L215.554 71.1066L216.013 70.5331L216.228 70.707L215.772 71.2805ZM216.695 70.1372L216.48 69.9596C216.636 69.7709 216.796 69.5896 216.955 69.3972L217.166 69.5748C216.996 69.7598 216.84 69.9485 216.684 70.1372H216.695ZM217.644 69.0272L217.433 68.846C217.596 68.6573 217.759 68.476 217.922 68.291L218.13 68.476C217.952 68.6499 217.796 68.82 217.633 69.0198L217.644 69.0272ZM218.623 67.9172L218.419 67.7322C218.586 67.5472 218.753 67.3622 218.919 67.192L219.123 67.3807L218.623 67.9172ZM219.627 66.8479L219.427 66.6555C219.598 66.4779 219.772 66.304 219.942 66.1301L220.143 66.3262L219.627 66.8479ZM220.662 65.8082L220.465 65.6084C220.643 65.4382 220.836 65.2643 220.995 65.0978L221.188 65.2976C220.999 65.49 220.825 65.6417 220.65 65.8156L220.662 65.8082ZM221.718 64.7907L221.529 64.5872L222.07 64.0877L222.259 64.2949L221.718 64.7907ZM222.804 63.8028L222.619 63.5956L223.171 63.1072L223.356 63.3181L222.804 63.8028ZM223.916 62.8408L223.738 62.6299C223.927 62.4671 224.109 62.3117 224.302 62.1563L224.479 62.3709L223.916 62.8408ZM225.05 61.9047L224.876 61.6901C225.065 61.5347 225.247 61.383 225.451 61.2313L225.625 61.4496L225.05 61.9047ZM226.203 60.9982L226.036 60.7799L226.622 60.3359L226.789 60.5579L226.203 60.9982ZM227.382 60.1213L227.219 59.8993L227.815 59.4664L227.979 59.6921L227.382 60.1213ZM228.579 59.274L228.42 59.0446C228.623 58.904 228.827 58.7634 229.031 58.6302L229.187 58.8596C228.968 59.0002 228.764 59.1408 228.564 59.2814L228.579 59.274ZM229.799 58.4526L229.643 58.2195L230.262 57.8199L230.414 58.053C230.184 58.1899 229.988 58.3231 229.784 58.46L229.799 58.4526ZM231.033 57.6608L230.888 57.424L231.515 57.054L231.659 57.2908L231.033 57.6608ZM232.289 56.8986L232.149 56.6581L232.786 56.2881L232.923 56.5286L232.289 56.8986ZM233.564 56.1586L233.427 55.9181L234.072 55.5481L234.206 55.7923L233.564 56.1586ZM234.854 55.4556L234.721 55.2114L235.377 54.8673L235.503 55.1152L234.854 55.4556ZM236.159 54.7822L236.033 54.5343L236.697 54.2087L236.819 54.4566L236.159 54.7822ZM237.479 54.1421L237.36 53.8905L238.031 53.5797L238.146 53.8313L237.479 54.1421ZM238.817 53.5279L238.702 53.2763L239.38 52.9803L239.491 53.2356C239.254 53.3429 239.028 53.4428 238.802 53.5427L238.817 53.5279ZM240.166 52.947L240.059 52.6917L240.744 52.4105L240.848 52.6695L240.166 52.947ZM241.53 52.3994L241.43 52.1404L242.119 51.8777L242.216 52.1367L241.53 52.3994ZM242.905 51.8851L242.813 51.6224L243.509 51.3745L243.602 51.6372C243.361 51.7297 243.128 51.8 242.89 51.8999L242.905 51.8851ZM244.269 51.43L244.184 51.1673L244.885 50.9416L244.97 51.2043L244.269 51.43ZM245.674 50.986L245.593 50.7233C245.841 50.6456 246.078 50.579 246.304 50.5124L246.378 50.7788L245.674 50.986ZM247.086 50.5827L247.016 50.3163L247.735 50.1313L247.802 50.4014L247.086 50.5827Z" fill="#C7C7C7"/>
<path d="M203.038 101.399L202.985 101.765L203.26 101.805L203.313 101.439L203.038 101.399Z" fill="#C7C7C7"/>
<path d="M203.296 101.613L203.029 101.543C203.092 101.302 203.155 101.066 203.214 100.829L203.481 100.895C203.426 101.132 203.363 101.38 203.296 101.613ZM203.648 100.17L203.377 100.111C203.429 99.8705 203.477 99.63 203.526 99.3895L203.796 99.4413C203.752 99.6855 203.704 99.926 203.648 100.17ZM203.93 98.6902L203.652 98.6458C203.692 98.4053 203.73 98.1611 203.763 97.9058L204.037 97.9428C204.004 98.2203 203.967 98.4645 203.93 98.7087V98.6902ZM204.13 97.2102L203.852 97.1806C203.882 96.9364 203.904 96.6922 203.922 96.4406L204.2 96.4628C204.182 96.744 204.156 96.9919 204.13 97.2361V97.2102ZM204.252 95.7302H203.978C203.978 95.4823 204 95.2381 204.008 94.9902H204.286C204.278 95.2516 204.262 95.5069 204.237 95.7561L204.252 95.7302ZM204.3 94.2502H204.022V94.0652C204.022 93.8802 204.022 93.6952 204.022 93.5139H204.3C204.3 93.6989 204.3 93.8839 204.3 94.0689V94.2502ZM203.996 92.7702C203.996 92.526 203.97 92.2781 203.956 92.0302L204.23 92.0117C204.247 92.2583 204.262 92.505 204.274 92.7517L203.996 92.7702ZM203.893 91.2902C203.87 91.0435 203.844 90.7968 203.815 90.5502L204.093 90.5169C204.122 90.7648 204.148 91.009 204.171 91.2569L203.893 91.2902ZM203.722 89.8102C203.685 89.566 203.648 89.3218 203.607 89.0702L203.882 89.0258C203.922 89.2663 203.959 89.5142 203.996 89.7658L203.722 89.8102ZM203.496 88.4301C203.448 88.1896 203.4 87.9491 203.348 87.7086L203.618 87.6494C203.67 87.8899 203.722 88.1341 203.767 88.3894L203.496 88.4301ZM203.185 86.9908L203.007 86.2767L203.274 86.2064C203.337 86.4432 203.396 86.6837 203.455 86.9242L203.185 86.9908ZM202.814 85.5663C202.747 85.3258 202.677 85.0927 202.603 84.8559L202.87 84.7745C202.944 85.0113 203.01 85.2481 203.081 85.4886L202.814 85.5663ZM202.377 84.1566C202.302 83.9198 202.221 83.6867 202.139 83.4573L202.403 83.3648C202.484 83.5979 202.566 83.831 202.643 84.0678L202.377 84.1566ZM201.887 82.7654C201.798 82.5323 201.709 82.3066 201.617 82.0772L201.876 81.9736C201.969 82.203 202.058 82.4361 202.147 82.6692L201.887 82.7654ZM201.339 81.3964C201.242 81.167 201.142 80.9413 201.046 80.7193L201.298 80.6046C201.398 80.8303 201.498 81.056 201.595 81.2891L201.339 81.3964ZM200.738 80.0459C200.634 79.8239 200.527 79.6019 200.419 79.3799L200.672 79.2578C200.779 79.4798 200.887 79.7018 200.99 79.9312L200.738 80.0459ZM200.09 78.7213C199.978 78.4993 199.863 78.281 199.749 78.0664L199.993 77.9369C200.108 78.1515 200.223 78.3735 200.338 78.5955L200.09 78.7213ZM199.396 77.4189L199.026 76.7751L199.263 76.6382C199.389 76.8478 199.513 77.0624 199.634 77.282L199.396 77.4189ZM198.655 76.1387C198.529 75.9241 198.399 75.7132 198.284 75.5097L198.522 75.3617C198.651 75.5689 198.781 75.7798 198.892 75.9981L198.655 76.1387ZM197.877 74.8844C197.74 74.6735 197.606 74.47 197.469 74.2665L197.703 74.1148L198.11 74.7327L197.877 74.8844ZM197.032 73.6301C196.891 73.4229 196.746 73.2231 196.609 73.027L196.831 72.8642C196.976 73.0603 197.117 73.2638 197.261 73.471L197.032 73.6301ZM196.172 72.4276L195.727 71.8393L195.949 71.6691L196.394 72.2648L196.172 72.4276ZM195.271 71.2547L194.808 70.6812L195.023 70.5036C195.175 70.6849 195.33 70.8736 195.49 71.0845L195.271 71.2547ZM194.333 70.1114L193.859 69.5601L194.066 69.3788C194.218 69.5453 194.381 69.7488 194.556 69.9412L194.333 70.1114ZM193.351 69.0014C193.028 68.6536 192.839 68.4723 192.839 68.4686L193.032 68.2725C193.032 68.2725 193.225 68.4575 193.555 68.8127L193.351 69.0014Z" fill="#C7C7C7"/>
<path d="M184.644 32.8745C184.488 31.3057 183.402 29.7406 181.497 29.7406C179.592 29.7406 178.509 31.3057 178.354 32.8745C178.113 35.298 179.751 37.4958 181.497 39.4975C183.246 37.4958 184.885 35.298 184.644 32.8745ZM181.497 34.6172C181.156 34.6172 180.822 34.5162 180.539 34.327C180.255 34.1378 180.035 33.8688 179.904 33.5543C179.774 33.2397 179.74 32.8935 179.807 32.5597C179.874 32.2258 180.038 31.9193 180.279 31.6788C180.521 31.4383 180.828 31.2748 181.163 31.2088C181.498 31.1428 181.844 31.1774 182.159 31.3082C182.474 31.439 182.743 31.6601 182.932 31.9435C183.121 32.227 183.221 32.56 183.221 32.9004C183.22 33.3561 183.038 33.7927 182.714 34.1146C182.391 34.4364 181.953 34.6172 181.497 34.6172Z" fill="#A6A6A6"/>
<path d="M212.592 69.56C212.436 67.9912 211.35 66.4261 209.445 66.4261C207.54 66.4261 206.458 67.9912 206.302 69.56C206.061 71.9835 207.699 74.1813 209.445 76.183C211.195 74.1665 212.833 71.9687 212.592 69.56ZM209.445 71.3028C209.105 71.3027 208.773 71.2024 208.49 71.0143C208.207 70.8262 207.986 70.5588 207.855 70.2457C207.724 69.9326 207.689 69.5878 207.753 69.2547C207.818 68.9216 207.98 68.615 208.219 68.3735C208.458 68.132 208.763 67.9664 209.095 67.8976C209.428 67.8287 209.774 67.8596 210.089 67.9864C210.405 68.1133 210.675 68.3303 210.868 68.6103C211.06 68.8903 211.164 69.2207 211.169 69.56C211.17 69.7866 211.126 70.0111 211.04 70.2207C210.954 70.4303 210.827 70.6209 210.667 70.7814C210.506 70.942 210.316 71.0694 210.106 71.1563C209.897 71.2432 209.672 71.2879 209.445 71.2879V71.3028Z" fill="#0079FF"/>
<path d="M195.549 62.7298C195.393 61.161 194.307 59.5959 192.402 59.5959C190.497 59.5959 189.414 61.161 189.259 62.7298C189.018 65.1533 190.656 67.3511 192.402 69.3528C194.152 67.34 195.79 65.1533 195.549 62.7298ZM192.402 64.4725C192.061 64.4725 191.728 64.3716 191.444 64.1826C191.161 63.9935 190.94 63.7248 190.81 63.4104C190.679 63.0961 190.645 62.7501 190.711 62.4164C190.778 62.0826 190.942 61.7761 191.183 61.5355C191.424 61.2949 191.731 61.131 192.066 61.0646C192.4 60.9982 192.747 61.0323 193.062 61.1625C193.377 61.2927 193.646 61.5133 193.835 61.7962C194.024 62.0791 194.126 62.4118 194.126 62.752C194.126 63.2084 193.944 63.646 193.621 63.9686C193.297 64.2913 192.859 64.4725 192.402 64.4725Z" fill="#A6A6A6"/>
<path d="M252.001 45.2991C251.846 43.7266 250.76 42.1652 248.854 42.1652C246.949 42.1652 245.867 43.7266 245.711 45.2991C245.47 47.7226 247.109 49.9204 248.854 51.9221C250.604 49.9204 252.242 47.73 252.001 45.2991ZM248.854 47.0418C248.514 47.0418 248.18 46.9409 247.897 46.7518C247.613 46.5628 247.393 46.294 247.262 45.9797C247.132 45.6653 247.097 45.3194 247.164 44.9856C247.23 44.6519 247.395 44.3453 247.636 44.1047C247.877 43.8641 248.184 43.7002 248.518 43.6338C248.853 43.5674 249.199 43.6015 249.514 43.7317C249.829 43.8619 250.098 44.0825 250.288 44.3654C250.477 44.6483 250.578 44.981 250.578 45.3213C250.578 45.7776 250.396 46.2152 250.073 46.5378C249.75 46.8605 249.312 47.0418 248.854 47.0418Z" fill="#A6A6A6"/>
<path d="M206.254 97.6985C206.098 96.126 205.012 94.5646 203.107 94.5646C201.202 94.5646 200.119 96.126 199.964 97.6985C199.723 100.122 201.361 102.316 203.107 104.321C204.856 102.316 206.495 100.122 206.254 97.6985ZM203.125 99.4412C202.785 99.4404 202.452 99.3389 202.169 99.1494C201.886 98.9599 201.665 98.691 201.536 98.3765C201.406 98.0621 201.372 97.7163 201.439 97.3828C201.506 97.0493 201.67 96.743 201.912 96.5028C202.153 96.2625 202.46 96.0991 202.794 96.033C203.128 95.9669 203.475 96.0012 203.789 96.1315C204.104 96.2618 204.373 96.4824 204.562 96.7652C204.752 97.0481 204.853 97.3805 204.853 97.7207C204.853 97.9469 204.808 98.171 204.721 98.3799C204.634 98.5889 204.507 98.7787 204.346 98.9386C204.186 99.0984 203.996 99.225 203.786 99.3113C203.577 99.3975 203.352 99.4417 203.125 99.4412Z" fill="#0079FF"/>
<path d="M143.96 166.855C211.081 166.855 265.494 163.892 265.494 160.236C265.494 156.58 211.081 153.617 143.96 153.617C76.838 153.617 22.4253 156.58 22.4253 160.236C22.4253 163.892 76.838 166.855 143.96 166.855Z" fill="#EBEBEB"/>
<path d="M10.8976 147.856L42.7231 147.767L74.5448 147.734L138.196 147.674L201.847 147.734L233.668 147.767L265.494 147.856L233.668 147.948L201.847 147.982L138.196 148.041L74.5448 147.978L42.7231 147.948L10.8976 147.856Z" fill="#263238"/>
<path d="M54.5547 147.852C54.5547 147.852 53.8727 144.67 52.5087 144.178C51.1446 143.686 50.3143 145.118 50.3143 145.118C50.3143 145.118 49.9918 142.076 48.0569 141.166C46.1221 140.256 44.6728 142.121 44.6728 142.121C44.6728 142.121 43.1901 138.265 40.5361 138.265C37.8821 138.265 36.5477 143.908 36.5477 143.908C36.5477 143.908 34.9835 142.224 33.3785 143.168C31.7736 144.111 31.7736 147.845 31.7736 147.845L54.5547 147.852Z" fill="#455A64"/>
<path d="M105.121 147.852H81.1426C81.1426 147.852 81.9322 144.478 83.5223 144.237C85.1125 143.997 85.8538 145.565 85.8538 145.565C85.8538 145.565 85.7797 140.859 88.7487 140.056C91.7178 139.253 94.2086 143.412 94.2086 143.412C94.2086 143.412 96.062 141.04 98.6085 141.192C101.155 141.344 101.789 145.262 101.789 145.262C101.789 145.262 104.102 143.9 105.121 147.852Z" fill="#37474F"/>
<path d="M35.0465 147.852H22.4439C22.4439 147.852 22.4735 145.976 23.7116 145.477C24.0483 145.331 24.4235 145.298 24.7804 145.383C25.1374 145.469 25.457 145.668 25.6909 145.95C25.6909 145.95 26.1987 142.502 28.508 142.502C30.8172 142.502 31.9292 145.462 31.9292 145.462C32.1239 145.176 32.3984 144.953 32.7187 144.822C33.0389 144.69 33.3908 144.655 33.7307 144.722C34.9947 144.914 35.0465 147.852 35.0465 147.852Z" fill="#37474F"/>
<path d="M136.887 70.5294L139.99 139.275H196.453L190.608 111.37L171.793 105.45C171.305 105.278 170.861 105.002 170.492 104.64C170.123 104.278 169.838 103.84 169.658 103.356L158.408 74.518L136.887 70.5294Z" fill="#0079FF"/>
<path d="M143.107 77.7666L144.515 102.568L164.891 104.473L156.11 78.6731L143.107 77.7666Z" fill="#455A64"/>
<g opacity="0.3">
<path d="M143.878 91.3529L144.2 97.0102L150.309 103.108L156.206 103.663L143.878 91.3529Z" fill="white"/>
<path d="M147.273 78.0588L160.339 91.1013L158.968 87.0572L150.15 78.2549L147.273 78.0588Z" fill="white"/>
<path d="M143.274 80.6821L143.311 81.3666L164.087 102.105L163.749 101.121L143.274 80.6821Z" fill="white"/>
<path d="M144.319 99.097L144.356 99.7853L147.414 102.838L148.133 102.904L144.319 99.097Z" fill="white"/>
</g>
<path d="M143.107 77.7666L156.11 78.6731L164.891 104.473L163.527 104.344L155.228 79.9533L143.17 78.8544L143.107 77.7666Z" fill="#263238"/>
<path d="M171.118 106.064H170.748V138.228H171.118V106.064Z" fill="#263238"/>
<path d="M193.091 111.444L188.499 110.704L191.175 120.143L193.54 119.895C193.793 119.869 194.025 119.745 194.188 119.55C194.351 119.355 194.431 119.104 194.411 118.851L193.911 112.317C193.889 112.102 193.797 111.9 193.649 111.742C193.501 111.584 193.305 111.479 193.091 111.444Z" fill="white"/>
<path d="M167.419 97.8058C166.307 98.7419 167.312 107.163 168.094 107.019C168.876 106.874 170.555 106.556 171.229 106.023C171.904 105.491 175.722 98.6753 174.795 97.2619C173.869 95.8485 168.283 97.0843 167.419 97.8058Z" fill="#0079FF"/>
<path opacity="0.1" d="M167.419 97.8058C166.307 98.7419 167.312 107.163 168.094 107.019C168.876 106.874 170.555 106.556 171.229 106.023C171.904 105.491 175.722 98.6753 174.795 97.2619C173.869 95.8485 168.283 97.0843 167.419 97.8058Z" fill="black"/>
<path opacity="0.1" d="M152.644 109.809H145.65V107.848L152.644 108.229V109.809Z" fill="black"/>
<path d="M138.429 139.275H22.3623L28.5043 56.6581L134.248 51.0563L138.429 139.275Z" fill="#0079FF"/>
<path d="M115.411 82.51L99.8428 69.3639L42.4821 74L45.9627 107.008L101.244 99.7594L115.411 82.51ZM108.798 82.732C108.911 83.229 108.874 83.7481 108.693 84.2244C108.512 84.7008 108.194 85.1131 107.779 85.4099C107.364 85.7066 106.87 85.8746 106.36 85.8928C105.85 85.9109 105.346 85.7785 104.911 85.512C104.476 85.2455 104.129 84.8568 103.914 84.3946C103.699 83.9324 103.626 83.4171 103.703 82.9134C103.78 82.4097 104.004 81.9398 104.347 81.5627C104.691 81.1856 105.138 80.9179 105.633 80.7932C106.309 80.6317 107.023 80.7447 107.616 81.1075C108.21 81.4702 108.635 82.0531 108.798 82.7283V82.732Z" fill="#37474F"/>
<path d="M107.182 82.6506C108.239 82.5821 109.298 82.5821 110.355 82.6506C111.419 82.7056 112.479 82.8142 113.531 82.9762C115.668 83.2959 117.76 83.8608 119.766 84.6597C120.795 85.0784 121.787 85.5821 122.731 86.1656C123.21 86.4542 123.666 86.7872 124.118 87.1239L124.774 87.6715C124.989 87.8565 125.189 88.0637 125.397 88.2598C126.225 89.0808 126.933 90.0151 127.498 91.0348L127.895 91.8229C128.01 92.093 128.11 92.3742 128.217 92.648C128.319 92.9196 128.407 93.1963 128.48 93.4768L128.599 93.8912L128.688 94.313C128.942 95.4488 129.035 96.6145 128.966 97.7762C128.889 98.934 128.657 100.076 128.277 101.173C127.512 103.299 126.306 105.239 124.737 106.867C123.23 108.447 121.494 109.793 119.588 110.859C117.727 111.933 115.708 112.708 113.606 113.153L113.52 112.876C115.391 112.001 117.156 110.919 118.784 109.649C120.381 108.426 121.826 107.016 123.087 105.45C124.312 103.947 125.245 102.229 125.838 100.385C126.398 98.5969 126.482 96.6944 126.082 94.8643L126.016 94.5202L125.919 94.1835C125.864 93.9566 125.796 93.733 125.715 93.5138C125.634 93.3029 125.56 93.0846 125.474 92.8737L125.182 92.2521C124.749 91.4306 124.212 90.6683 123.584 89.984C122.233 88.5701 120.648 87.3987 118.899 86.5208C117.083 85.5917 115.191 84.8205 113.242 84.2157C111.252 83.5838 109.229 83.0613 107.182 82.6506Z" fill="#263238"/>
<path d="M116.289 108.258L113.902 112.917L118.732 114.952L111.537 113.775L116.289 108.258Z" fill="#263238"/>
<path opacity="0.1" d="M138.429 139.272H22.3623L22.6922 134.839L137.881 127.62L138.429 139.272Z" fill="black"/>
<path d="M21.7767 142.99H199.041V137.725H21.7767V142.99Z" fill="#EBEBEB"/>
<path d="M202.729 135.194L185.048 136.278V143.789H204.048L202.729 135.194Z" fill="#DBDBDB"/>
<path d="M29.4087 143.789V136.437L18.2516 135.287L16.8802 143.789H29.4087Z" fill="#DBDBDB"/>
<path d="M43.0418 144.848L39.3722 144.311C40.0728 139.549 44.2539 130.54 55.081 130.54C65.9082 130.54 70.0078 139.564 70.649 144.333L66.9757 144.829L68.8291 144.581L66.9757 144.833C66.9164 144.4 65.3596 134.24 55.0773 134.24C44.7172 134.24 43.1048 144.415 43.0418 144.848Z" fill="#C7C7C7"/>
<path d="M55.0107 132.786C37.7265 132.786 37.7005 159.599 55.0107 159.599C72.3208 159.599 72.3245 132.786 55.0107 132.786Z" fill="#263238"/>
<path d="M55.0106 140.108C47.1673 140.108 47.1525 152.277 55.0106 152.277C62.8688 152.277 62.8688 140.108 55.0106 140.108Z" fill="#C7C7C7"/>
<path d="M146.576 144.855L142.911 144.3C143.607 139.538 147.788 130.529 158.619 130.529C169.45 130.529 173.542 139.553 174.187 144.322L170.507 144.829L172.36 144.581L170.507 144.833C170.444 144.4 168.887 134.24 158.608 134.24C148.33 134.24 146.643 144.422 146.576 144.855Z" fill="#C7C7C7"/>
<path d="M158.612 132.786C141.328 132.786 141.302 159.599 158.612 159.599C175.922 159.599 175.926 132.786 158.612 132.786Z" fill="#263238"/>
<path d="M158.612 140.108C150.769 140.108 150.754 152.277 158.612 152.277C166.47 152.277 166.47 140.108 158.612 140.108Z" fill="#C7C7C7"/>
<path d="M232.738 139.953H213.193V161.561H232.738V139.953Z" fill="#0079FF"/>
<path opacity="0.1" d="M232.738 139.953H213.193V161.561H232.738V139.953Z" fill="black"/>
<path d="M203.099 161.56H213.193V139.952H203.099V161.56Z" fill="#0079FF"/>
<path opacity="0.32" d="M203.099 161.56H213.193V139.952H203.099V161.56Z" fill="black"/>
<path d="M221.307 144.622H221.722H222.033L222.211 144.263L222.459 144.622L222.797 143.882L223.115 144.622H224.031H224.446L224.598 144.13L224.743 144.622H225.013V139.953H221.307V144.622Z" fill="white"/>
<path d="M203.796 160.073C204.538 158.534 205.279 156.992 206.02 155.448L208.211 150.801L210.368 146.15C211.087 144.594 211.796 143.03 212.496 141.458C211.754 142.998 211.013 144.539 210.272 146.083L208.081 150.731L205.924 155.4C205.21 156.947 204.5 158.504 203.796 160.073Z" fill="#0079FF"/>
<path d="M203.796 141.44C204.498 143.009 205.207 144.573 205.924 146.132L208.085 150.801L210.275 155.448C211.017 156.995 211.758 158.536 212.499 160.073C211.798 158.504 211.088 156.94 210.372 155.382L208.211 150.712L206.02 146.065C205.284 144.518 204.542 142.977 203.796 141.44Z" fill="#0079FF"/>
<path d="M241.786 118.344H222.241V139.952H241.786V118.344Z" fill="#0079FF"/>
<path opacity="0.1" d="M241.786 118.344H222.241V139.952H241.786V118.344Z" fill="black"/>
<path d="M212.151 139.956H222.244V118.348H212.151V139.956Z" fill="#0079FF"/>
<path opacity="0.32" d="M212.151 139.956H222.244V118.348H212.151V139.956Z" fill="black"/>
<path d="M230.358 123.014H230.77H231.081L231.259 122.655L231.507 123.014L231.845 122.274L232.163 123.014H233.079H233.498L233.65 122.522L233.791 123.014H234.061V118.344H230.358V123.014Z" fill="white"/>
<path d="M212.844 138.465C213.586 136.928 214.327 135.387 215.068 133.84L217.259 129.193L219.435 124.527C220.154 122.966 220.864 121.402 221.566 119.836C220.825 121.37 220.083 122.91 219.342 124.457L217.151 129.104L214.987 133.773C214.26 135.332 213.546 136.896 212.844 138.465Z" fill="#0079FF"/>
<path d="M212.844 119.836C213.548 121.404 214.258 122.968 214.972 124.527L217.133 129.193L219.323 133.84C220.065 135.387 220.806 136.928 221.547 138.465C220.843 136.896 220.133 135.332 219.416 133.773L217.255 129.104L215.064 124.457C214.336 122.91 213.595 121.37 212.844 119.836Z" fill="#0079FF"/>
<path d="M257.851 139.953H238.305V161.561H257.851V139.953Z" fill="#0079FF"/>
<path opacity="0.1" d="M257.851 139.953H238.305V161.561H257.851V139.953Z" fill="black"/>
<path d="M228.212 161.56H238.305V139.952H228.212V161.56Z" fill="#0079FF"/>
<path opacity="0.32" d="M228.212 161.56H238.305V139.952H228.212V161.56Z" fill="black"/>
<path d="M246.419 144.622H246.834H247.146L247.324 144.263L247.572 144.622L247.909 143.882L248.228 144.622H249.144H249.562L249.711 144.13L249.855 144.622H250.126V139.953H246.419V144.622Z" fill="white"/>
<path d="M228.909 160.073C229.65 158.534 230.392 156.992 231.133 155.448L233.324 150.801L235.481 146.15C236.2 144.594 236.909 143.03 237.608 141.458C236.867 142.998 236.126 144.539 235.384 146.083L233.194 150.731L231.036 155.4C230.322 156.947 229.613 158.504 228.909 160.073Z" fill="#0079FF"/>
<path d="M228.909 141.44C229.611 143.009 230.32 144.573 231.036 146.132L233.197 150.801L235.373 155.448C236.115 156.995 236.856 158.536 237.597 160.073C236.896 158.504 236.186 156.94 235.47 155.382L233.309 150.712L231.118 146.065C230.392 144.518 229.655 142.977 228.909 141.44Z" fill="#0079FF"/>
<path d="M181.53 161.816C182.242 162.041 202.477 161.782 203.24 161.283C203.533 161.098 203.666 158.153 203.726 154.59V154.479C203.726 153.739 203.748 152.999 203.752 152.222C203.752 152.114 203.752 152.011 203.752 151.903L202.769 141.425L189.233 141.562L190.567 151.922V152.333L190.649 154.482V154.704C190.649 154.704 182.946 158.26 182.164 158.9C181.382 159.54 180.822 161.59 181.53 161.816Z" fill="#AD6359"/>
<path d="M181.53 161.816C182.242 162.041 202.477 161.782 203.24 161.283C203.533 161.098 203.666 158.153 203.726 154.59V154.479C203.726 153.739 203.748 152.999 203.752 152.222C203.752 152.114 203.752 152.011 203.752 151.903L190.567 151.94V152.351L190.649 154.501V154.723C190.649 154.723 182.946 158.279 182.164 158.919C181.382 159.559 180.822 161.59 181.53 161.816Z" fill="#EBEBEB"/>
<path d="M181.53 161.812C181.901 161.93 187.39 161.919 192.765 161.812C193.844 161.794 194.919 161.768 195.945 161.738C199.774 161.634 202.944 161.475 203.236 161.287C203.529 161.098 203.659 158.238 203.718 154.741C203.718 154.693 203.718 154.641 203.718 154.593C203.718 154.545 203.718 154.516 203.718 154.479L190.678 154.505V154.727C190.678 154.727 182.98 158.282 182.197 158.919C181.415 159.555 180.819 161.586 181.53 161.812Z" fill="#0079FF"/>
<path d="M181.749 161.028C185.159 160.902 198.926 160.706 202.306 160.839C202.332 160.839 202.332 160.857 202.306 160.861C198.929 161.061 185.163 161.142 181.749 161.083C181.679 161.083 181.679 161.031 181.749 161.028Z" fill="#263238"/>
<path d="M189.218 154.556C190.556 154.29 192.183 154.475 193.24 155.415C193.277 155.452 193.24 155.507 193.18 155.496C191.893 155.099 190.567 154.841 189.225 154.727C189.214 154.727 189.203 154.725 189.192 154.722C189.182 154.718 189.172 154.712 189.164 154.704C189.156 154.697 189.149 154.688 189.144 154.677C189.14 154.667 189.137 154.656 189.136 154.645C189.136 154.634 189.138 154.623 189.141 154.612C189.145 154.602 189.151 154.592 189.159 154.584C189.166 154.576 189.175 154.569 189.186 154.564C189.196 154.56 189.207 154.557 189.218 154.556Z" fill="#263238"/>
<path d="M188.254 155.152C189.596 154.886 191.219 155.071 192.276 156.011C192.317 156.048 192.276 156.103 192.22 156.092C190.932 155.695 189.605 155.437 188.262 155.322C188.239 155.323 188.217 155.315 188.2 155.3C188.184 155.285 188.174 155.263 188.173 155.241C188.172 155.218 188.18 155.196 188.195 155.18C188.21 155.163 188.232 155.153 188.254 155.152Z" fill="#263238"/>
<path d="M187.294 155.748C188.632 155.481 190.278 155.666 191.316 156.606C191.357 156.643 191.316 156.699 191.26 156.684C189.971 156.29 188.644 156.033 187.302 155.918C187.279 155.919 187.257 155.911 187.24 155.896C187.224 155.88 187.214 155.859 187.213 155.837C187.212 155.814 187.22 155.792 187.235 155.775C187.25 155.759 187.272 155.749 187.294 155.748Z" fill="#263238"/>
<path d="M192.765 161.808C193.844 161.79 194.919 161.764 195.945 161.734C199.774 161.631 202.944 161.472 203.236 161.283C203.529 161.094 203.659 158.234 203.718 154.738C203.718 154.69 203.718 154.638 203.718 154.59C203.718 154.542 203.718 154.512 203.718 154.475C201.924 155.726 195.627 159.91 192.765 161.808Z" fill="#263238"/>
<path d="M189.726 154.545H204.3C204.3 154.545 201.365 120.572 201.48 119.976C201.624 119.218 202.488 115.78 203.629 111.285C204 109.879 204.371 108.373 204.778 106.808C205.865 102.583 207.065 97.9649 208.114 93.943L210.909 83.25H198.544C198.544 83.25 197.106 87.8047 195.293 93.7321C192.328 103.352 188.388 116.617 187.998 119.839C187.365 125.034 189.726 154.545 189.726 154.545Z" fill="#263238"/>
<path d="M190.426 152.07C192.65 152.026 192.013 152.007 194.24 151.985C195.326 151.985 202.488 151.915 203.507 152.081C203.513 152.081 203.519 152.083 203.523 152.088C203.527 152.092 203.529 152.097 203.529 152.103C203.529 152.109 203.527 152.115 203.523 152.119C203.519 152.123 203.513 152.125 203.507 152.125C202.491 152.296 195.33 152.233 194.24 152.222C192.016 152.199 192.654 152.181 190.426 152.137C190.385 152.129 190.385 152.07 190.426 152.07Z" fill="#37474F"/>
<path d="M198.792 117.9C199.27 115.799 199.986 113.738 200.605 111.673C201.87 107.48 203.141 103.287 204.419 99.0934C205.056 96.9992 205.696 94.9025 206.339 92.8034C206.665 91.7452 206.993 90.6882 207.321 89.6325C207.647 88.6002 208.014 87.5753 208.307 86.5356C208.426 86.1101 208.493 86.3432 208.341 86.8834C208.033 87.9675 207.729 89.0553 207.414 90.1357C206.779 92.2866 206.146 94.4314 205.516 96.57C204.256 100.832 202.982 105.091 201.695 109.346C201.052 111.48 200.41 113.613 199.767 115.747C199.441 116.762 199.177 117.797 198.978 118.844C198.807 119.939 198.763 121.05 198.848 122.155C198.989 124.375 199.248 126.595 199.452 128.815C199.656 131.035 199.867 133.255 200.071 135.475C200.481 139.915 200.889 144.344 201.294 148.762C201.342 149.325 201.394 149.872 201.435 150.446C201.435 150.634 201.164 150.62 201.146 150.446C200.664 146.069 200.297 141.677 199.886 137.292C199.474 132.908 199.066 128.564 198.659 124.198C198.555 123.088 198.44 122.007 198.436 120.905C198.443 119.893 198.563 118.886 198.792 117.9Z" fill="#37474F"/>
<path d="M200.001 83.25C200.861 89.873 202.495 102.287 203.685 111.292C206.461 100.374 210.95 83.25 210.95 83.25H200.001Z" fill="#37474F"/>
<path d="M196.969 162.008C197.676 162.241 217.911 162.053 218.678 161.557C218.971 161.372 219.116 158.427 219.19 154.863V154.752C219.19 154.012 219.22 153.272 219.223 152.495C219.223 152.392 219.223 152.285 219.223 152.181C219.272 147.038 218.901 141.703 218.901 141.703L205.672 141.788L206.042 152.17V152.581L206.117 154.73V154.949C206.117 154.949 198.403 158.478 197.617 159.115C196.831 159.751 196.261 161.782 196.969 162.008Z" fill="#AD6359"/>
<path d="M196.969 162.008C197.676 162.241 217.911 162.053 218.678 161.557C218.971 161.372 219.116 158.427 219.19 154.863V154.752C219.19 154.012 219.22 153.272 219.223 152.495C219.223 152.392 219.223 152.285 219.223 152.181H206.042V152.592L206.117 154.741V154.96C206.117 154.96 198.403 158.489 197.617 159.126C196.831 159.762 196.261 161.782 196.969 162.008Z" fill="#EBEBEB"/>
<path d="M196.969 162.008C197.677 162.241 217.911 162.053 218.679 161.557C218.971 161.372 219.116 158.427 219.19 154.863V154.752L206.135 154.73V154.949C206.135 154.949 198.422 158.478 197.636 159.115C196.85 159.751 196.261 161.782 196.969 162.008Z" fill="#0079FF"/>
<path d="M197.195 161.224C200.605 161.109 214.371 160.965 217.748 161.109C217.778 161.109 217.778 161.128 217.748 161.131C214.371 161.32 200.605 161.35 197.195 161.279C197.12 161.279 197.117 161.227 197.195 161.224Z" fill="#263238"/>
<path d="M204.682 154.778C206.02 154.516 207.647 154.708 208.7 155.652C208.737 155.689 208.7 155.744 208.641 155.733C207.356 155.33 206.031 155.067 204.69 154.949C204.678 154.949 204.667 154.947 204.657 154.943C204.646 154.94 204.636 154.934 204.628 154.926C204.62 154.919 204.613 154.91 204.608 154.899C204.604 154.889 204.601 154.878 204.601 154.867C204.6 154.856 204.602 154.845 204.606 154.834C204.609 154.824 204.615 154.814 204.623 154.806C204.63 154.798 204.64 154.791 204.65 154.786C204.66 154.782 204.671 154.779 204.682 154.778Z" fill="#263238"/>
<path d="M203.718 155.37C205.056 155.108 206.684 155.3 207.736 156.244C207.777 156.281 207.736 156.336 207.681 156.325C206.395 155.922 205.069 155.659 203.726 155.541C203.703 155.542 203.681 155.534 203.664 155.518C203.648 155.503 203.638 155.482 203.637 155.459C203.636 155.437 203.644 155.415 203.659 155.398C203.674 155.381 203.696 155.371 203.718 155.37Z" fill="#263238"/>
<path d="M202.755 155.962C204.093 155.7 205.72 155.892 206.773 156.836C206.813 156.873 206.773 156.928 206.717 156.917C205.428 156.516 204.1 156.255 202.755 156.14C202.731 156.14 202.708 156.131 202.692 156.114C202.675 156.097 202.666 156.075 202.666 156.051C202.666 156.028 202.675 156.005 202.692 155.988C202.708 155.972 202.731 155.962 202.755 155.962Z" fill="#263238"/>
<path d="M198.844 83.25C198.844 83.25 199.126 89.1478 200.479 93.8209C200.59 94.1909 200.705 94.5868 200.849 94.9531C202.089 95.4513 203.28 96.0619 204.408 96.7772C204.408 96.7772 204.549 101.524 204.693 106.815C204.849 112.735 205.016 119.332 204.979 120.731C204.856 125.97 205.635 154.771 205.635 154.771L220.206 154.83C220.206 154.83 217.57 122.67 217.589 120.753C217.618 117.667 216.884 104.04 216.317 94.1132C215.973 87.9897 215.687 83.2685 215.687 83.2685L198.844 83.25Z" fill="#263238"/>
<path d="M206.276 152.174C208.5 152.137 207.862 152.114 210.09 152.103C211.18 152.103 218.337 152.066 219.357 152.236C219.363 152.236 219.368 152.239 219.373 152.243C219.377 152.247 219.379 152.253 219.379 152.259C219.379 152.265 219.377 152.27 219.373 152.274C219.368 152.279 219.363 152.281 219.357 152.281C218.337 152.447 211.18 152.355 210.09 152.34C207.866 152.307 208.504 152.292 206.276 152.236C206.269 152.234 206.264 152.23 206.26 152.224C206.256 152.219 206.254 152.212 206.254 152.205C206.254 152.198 206.256 152.191 206.26 152.186C206.264 152.18 206.269 152.176 206.276 152.174Z" fill="#37474F"/>
<path d="M214.616 85.3515C214.883 93.4656 215.168 101.58 215.532 109.69C215.895 117.801 216.388 125.97 217.07 134.081C217.44 138.617 217.811 144.999 218.3 149.524C218.3 149.554 218.256 149.565 218.252 149.524C217.192 141.477 216.603 131.524 216.08 123.425C215.557 115.325 215.205 107.215 214.927 99.1045C214.772 94.5165 214.653 89.9247 214.512 85.3367C214.501 85.2812 214.616 85.2849 214.616 85.3515Z" fill="#37474F"/>
<path d="M200.382 94.5941C201.833 95.1954 203.227 95.9235 204.549 96.7697C204.559 96.7761 204.567 96.7861 204.57 96.7979C204.573 96.8097 204.572 96.8222 204.566 96.833C204.561 96.8438 204.551 96.8521 204.54 96.8562C204.528 96.8602 204.515 96.8597 204.504 96.8548C203.099 96.174 201.665 95.5191 200.297 94.7606C200.275 94.7493 200.258 94.7297 200.251 94.7061C200.243 94.6825 200.245 94.6569 200.256 94.6348C200.268 94.6127 200.287 94.596 200.311 94.5884C200.335 94.5808 200.36 94.5828 200.382 94.5941Z" fill="#37474F"/>
<path d="M199.541 87.6123C199.667 88.2894 199.83 88.9591 199.978 89.6325C200.127 90.3059 200.216 90.9053 200.382 91.5306C200.52 92.1332 200.827 92.6839 201.268 93.1179C201.517 93.351 201.791 93.5545 202.054 93.7654L202.499 94.1021C202.499 94.0133 202.466 93.9208 202.447 93.8283C202.403 93.573 202.358 93.3177 202.317 93.0587C202.221 92.4889 202.128 91.9191 202.043 91.3493C201.869 90.2393 201.713 89.0923 201.476 87.9823C201.478 87.9749 201.483 87.9684 201.489 87.9639C201.496 87.9593 201.503 87.9568 201.511 87.9568C201.519 87.9568 201.526 87.9593 201.533 87.9639C201.539 87.9684 201.544 87.9749 201.546 87.9823C201.828 89.0923 202.136 90.1727 202.38 91.2827C202.499 91.8266 202.925 94.5165 202.947 94.7052C202.97 94.8939 202.981 95.1011 202.988 95.2972C203.014 95.4974 203.014 95.7001 202.988 95.9003C202.985 95.9091 202.978 95.9165 202.97 95.9218C202.963 95.9271 202.953 95.9299 202.944 95.9299C202.934 95.9299 202.925 95.9271 202.917 95.9218C202.909 95.9165 202.903 95.9091 202.899 95.9003C202.816 95.714 202.759 95.5173 202.729 95.3157C202.677 95.1233 202.636 94.9457 202.599 94.7348C202.599 94.6645 202.577 94.5905 202.569 94.5202C202.302 94.3574 202.054 94.1502 201.806 93.9652C201.557 93.7802 201.268 93.5952 201.016 93.3732C200.547 92.9799 200.21 92.4533 200.049 91.8636C199.885 91.2305 199.779 90.5842 199.73 89.9322C199.645 89.1663 199.582 88.4004 199.474 87.6382C199.467 87.5864 199.534 87.5679 199.541 87.6123Z" fill="#37474F"/>
<path d="M204.367 65.9746C203.711 68.5239 201.101 74.344 196.716 79.1466C195.023 80.9966 181.612 82.9613 180.196 82.558C179.202 82.2731 176.296 73.7113 177.231 72.9935C179.006 71.643 191.586 73.2118 192.083 72.8862C192.847 72.3867 197.825 68.3426 200.927 64.6537C203.207 61.9638 205.457 61.7307 204.367 65.9746Z" fill="#AD6359"/>
<path d="M201.502 73.5967L193.392 71.2176C193.392 71.2176 199.852 64.5576 202.288 63.1146C205.049 61.5088 205.253 63.27 204.512 66.2115C203.77 69.153 201.502 73.5967 201.502 73.5967Z" fill="#0079FF"/>
<path d="M194.971 70.1149C195.263 70.1519 197.802 70.8549 198.351 71.0177C198.9 71.1805 201.15 71.8354 201.687 72.05C201.691 72.0518 201.694 72.0546 201.697 72.0582C201.699 72.0618 201.7 72.0661 201.7 72.0704C201.7 72.0747 201.699 72.0789 201.697 72.0826C201.694 72.0862 201.691 72.089 201.687 72.0907C201.105 71.9834 198.837 71.3322 198.273 71.1768C197.71 71.0214 195.215 70.2703 194.937 70.1519C194.919 70.1408 194.934 70.1112 194.971 70.1149Z" fill="#263238"/>
<path d="M198.373 72.6753L201.502 73.5929C201.502 73.5929 203.785 69.1529 204.538 66.1929C205.086 64.0432 205.116 62.5225 204.015 62.4929L198.373 72.6753Z" fill="#263238"/>
<path d="M217.025 89.1071L195.994 89.0072C195.994 89.4216 200.557 65.5418 202.755 62.6817C203.225 62.0675 206.439 61.2942 207.888 62.6447C214.245 68.5499 217.025 89.3735 217.025 89.1071Z" fill="#0079FF"/>
<path opacity="0.1" d="M200.694 69.2196L203.381 69.4046L203.218 72.9455L201.372 73.4339L200.316 72.5977L200.694 69.2196Z" fill="black"/>
<path d="M204.163 65.5491C205.164 65.7896 206.643 63.8952 207.366 62.467C207.414 62.3708 207.232 61.357 207.069 60.1286C206.977 59.3886 206.888 58.545 206.862 57.7754C206.862 57.6163 202.069 59.1074 202.069 59.1074C202.377 60.0598 202.566 61.0466 202.632 62.0452C202.636 62.1518 202.629 62.2585 202.61 62.3634C202.61 62.3634 202.61 62.393 202.61 62.4152C202.529 63.0183 203.092 65.2901 204.163 65.5491Z" fill="#AD6359"/>
<path d="M202.61 62.3635C202.61 62.3635 202.61 62.3968 202.61 62.4153C202.775 62.4285 202.941 62.4285 203.107 62.4153C205.946 62.2599 206.58 58.682 206.695 57.7755C205.839 57.9272 202.073 59.1001 202.073 59.1001C202.381 60.0527 202.571 61.0392 202.64 62.0379C202.64 62.1471 202.63 62.2562 202.61 62.3635Z" fill="#263238"/>
<path d="M207.759 52.0071C208.166 53.7498 206.932 58.6227 205.642 59.6402C203.789 61.1202 200.875 61.0758 199.66 58.8706C198.481 56.732 200.201 50.4124 201.628 49.5022C203.726 48.1628 207.154 49.4356 207.759 52.0071Z" fill="#AD6359"/>
<path d="M202.858 54.6378C202.858 54.6378 202.881 54.66 202.877 54.6748C202.784 55.0004 202.736 55.3889 203.007 55.5702C203.007 55.5702 203.007 55.5924 203.007 55.5887C202.647 55.4481 202.721 54.9338 202.858 54.6378Z" fill="#263238"/>
<path d="M203.24 54.3678C203.778 54.4603 203.555 55.5296 203.059 55.4445C202.562 55.3594 202.788 54.2938 203.24 54.3678Z" fill="#263238"/>
<path d="M201.072 54.2975C201.072 54.2975 201.042 54.2975 201.038 54.3197C200.979 54.6564 200.857 55.0264 200.534 55.0597V55.0782C200.901 55.13 201.068 54.6231 201.072 54.2975Z" fill="#263238"/>
<path d="M200.846 53.8904C200.319 53.7387 200.056 54.8006 200.545 54.9375C201.035 55.0744 201.272 54.0199 200.846 53.8904Z" fill="#263238"/>
<path d="M203.763 53.9682C203.635 53.8971 203.511 53.8193 203.392 53.7351C203.245 53.6717 203.123 53.5627 203.044 53.4243C203.029 53.3758 203.029 53.3238 203.046 53.2758C203.063 53.2278 203.094 53.1865 203.136 53.1579C203.23 53.1163 203.333 53.0999 203.435 53.1103C203.537 53.1207 203.635 53.1575 203.718 53.2171C203.904 53.3132 204.047 53.4757 204.119 53.6722C204.135 53.7196 204.136 53.7707 204.122 53.8188C204.109 53.867 204.081 53.9099 204.042 53.9419C204.004 53.9739 203.957 53.9935 203.907 53.9982C203.857 54.0029 203.807 53.9925 203.763 53.9682Z" fill="#263238"/>
<path d="M200.531 53.2799C200.68 53.2818 200.83 53.2744 200.979 53.2577C201.139 53.271 201.299 53.232 201.435 53.1467C201.472 53.1115 201.496 53.0651 201.503 53.0149C201.51 52.9647 201.501 52.9135 201.476 52.8692C201.414 52.7878 201.332 52.7243 201.237 52.6853C201.143 52.6463 201.04 52.6331 200.938 52.6472C200.73 52.6466 200.528 52.7215 200.371 52.8581C200.338 52.8918 200.315 52.9345 200.305 52.9809C200.295 53.0273 200.299 53.0757 200.315 53.1201C200.332 53.1645 200.361 53.2032 200.399 53.2315C200.438 53.2599 200.483 53.2767 200.531 53.2799Z" fill="#263238"/>
<path d="M202.629 57.7792C202.532 57.8384 202.432 57.9309 202.31 57.9161C202.186 57.8876 202.07 57.8334 201.969 57.757C201.947 57.757 201.969 57.757 201.969 57.757C202.002 57.83 202.053 57.8931 202.118 57.9398C202.183 57.9866 202.26 58.0154 202.339 58.0234C202.41 58.0188 202.478 57.9941 202.535 57.9521C202.593 57.9102 202.637 57.8527 202.662 57.7866C202.661 57.783 202.66 57.7797 202.657 57.777C202.655 57.7744 202.651 57.7726 202.648 57.7718C202.644 57.771 202.64 57.7713 202.637 57.7726C202.634 57.7739 202.631 57.7762 202.629 57.7792Z" fill="#263238"/>
<path d="M202.484 56.7136C202.373 56.828 202.239 56.9181 202.091 56.978C201.943 57.0378 201.784 57.0663 201.624 57.0614C201.486 57.0594 201.348 57.037 201.216 56.9948C201.19 56.9896 201.164 56.9821 201.139 56.9726L201.068 56.943C201.051 56.9365 201.037 56.9247 201.028 56.9093C201.018 56.8939 201.014 56.8758 201.016 56.8579C201.014 56.8468 201.014 56.8356 201.016 56.8246V56.7987C201.064 56.5397 201.168 56.1586 201.168 56.1586C201.064 56.1845 200.545 56.2992 200.579 56.1586C200.848 55.0131 201.232 53.8975 201.724 52.8286C201.729 52.8231 201.735 52.8192 201.741 52.8173C201.748 52.8155 201.755 52.8158 201.762 52.8183C201.768 52.8207 201.774 52.8252 201.778 52.831C201.782 52.8369 201.784 52.8438 201.783 52.8508C201.543 53.909 201.116 54.9191 200.857 55.9773C201.043 55.9338 201.233 55.9164 201.424 55.9255C201.457 55.944 201.209 56.6655 201.194 56.7802C201.399 56.845 201.615 56.8675 201.829 56.8465C202.043 56.8256 202.251 56.7614 202.44 56.6581C202.488 56.6655 202.51 56.6914 202.484 56.7136Z" fill="#263238"/>
<path d="M201.394 56.8986C201.496 57.1091 201.651 57.29 201.843 57.424C201.953 57.4945 202.083 57.5294 202.213 57.5239C202.491 57.5054 202.551 57.2649 202.543 57.0466C202.539 56.9315 202.522 56.8172 202.491 56.7062C202.156 56.8856 201.771 56.9531 201.394 56.8986Z" fill="#263238"/>
<path d="M201.843 57.424C201.953 57.4945 202.083 57.5294 202.213 57.5239C202.491 57.5054 202.551 57.2649 202.543 57.0466C202.401 57.0215 202.254 57.0452 202.127 57.1137C202 57.1822 201.9 57.2915 201.843 57.424Z" fill="#FF98B9"/>
<path d="M200.583 50.9823C200.853 50.6123 201.15 50.2164 201.42 50.1868C201.691 50.1572 201.732 50.8047 202.299 50.9638C203.066 51.1747 203.592 50.5383 204.697 50.6863C206.283 50.8972 206.706 52.3439 206.287 54.5676C205.916 56.5545 207.077 56.9837 207.077 56.9837C207.077 56.9837 208.696 52.7694 207.762 51.0637C206.828 49.358 204.13 48.1481 201.947 49.1397C201.15 49.506 200.583 50.9823 200.583 50.9823Z" fill="#263238"/>
<path d="M206.235 55.9995C206.235 55.9995 207.488 54.5195 208.177 54.9635C208.867 55.4075 207.829 57.6608 206.951 57.9013C206.841 57.9392 206.724 57.9547 206.608 57.9468C206.492 57.9389 206.379 57.9078 206.275 57.8553C206.171 57.8028 206.079 57.7301 206.004 57.6414C205.929 57.5526 205.873 57.4498 205.839 57.3389L206.235 55.9995Z" fill="#AD6359"/>
<path d="M200.901 50.0239C201.383 50.0017 203.941 50.5752 205.001 51.2967C206.061 52.0182 207.788 54.0754 207.877 54.1827C207.966 54.29 209.319 50.1608 206.024 48.7215C202.458 47.1527 200.901 50.0239 200.901 50.0239Z" fill="#0079FF"/>
<path d="M207.725 53.9719C207.725 53.9719 206.035 50.5383 204.905 49.6096C203.774 48.6809 201.02 47.7596 199.122 48.174C197.639 48.5107 200.631 50.9083 200.631 50.9083C200.69 50.7714 200.779 50.65 200.893 50.5537C201.007 50.4574 201.142 50.3888 201.287 50.3533C202.206 50.1794 203.774 50.7529 204.623 51.2413C205.72 51.8555 207.725 53.9719 207.725 53.9719Z" fill="#0079FF"/>
<path opacity="0.2" d="M207.725 53.9719C207.725 53.9719 206.035 50.5383 204.905 49.6096C203.774 48.6809 201.02 47.7596 199.122 48.174C197.639 48.5107 200.631 50.9083 200.631 50.9083C200.69 50.7714 200.779 50.65 200.893 50.5537C201.007 50.4574 201.142 50.3888 201.287 50.3533C202.206 50.1794 203.774 50.7529 204.623 51.2413C205.72 51.8555 207.725 53.9719 207.725 53.9719Z" fill="black"/>
<path d="M217.83 76.2792H201.242V94.6164H217.83V76.2792Z" fill="#0079FF"/>
<path opacity="0.1" d="M217.83 76.2792H201.242V94.6164H217.83V76.2792Z" fill="black"/>
<path d="M192.672 94.6163H201.239V76.2791H192.672V94.6163Z" fill="#0079FF"/>
<path opacity="0.32" d="M192.672 94.6163H201.239V76.2791H192.672V94.6163Z" fill="black"/>
<path d="M208.129 80.2419H208.478H208.741L208.893 79.9348L209.104 80.2419L209.39 79.6129L209.66 80.2419H210.439H210.794L210.92 79.8238L211.043 80.2419H211.273V76.2792H208.129V80.2419Z" fill="white"/>
<path d="M193.266 93.351C193.901 92.0486 194.53 90.7413 195.152 89.429L197.006 85.4848L198.859 81.5221C199.467 80.2 200.069 78.8729 200.664 77.5409C200.029 78.8482 199.401 80.1568 198.781 81.4666L196.928 85.4108L195.074 89.3735C194.464 90.6956 193.861 92.0215 193.266 93.351Z" fill="#0079FF"/>
<path d="M193.266 77.5409C193.864 78.8729 194.465 80.2 195.071 81.5221L196.924 85.4848L198.777 89.429C199.4 90.7437 200.028 92.0511 200.66 93.351C200.067 92.0239 199.466 90.6969 198.855 89.3698L197.002 85.4108L195.149 81.4666C194.536 80.1543 193.908 78.8458 193.266 77.5409Z" fill="#0079FF"/>
<path d="M211.714 64.2134C215.761 67.2511 223.612 74.0591 224.316 77.7406C225.217 82.5728 221.095 92.0781 219.335 93.9133C218.148 95.1528 212.922 90.5833 212.607 89.4733C212.292 88.3633 216.54 80.6414 216.573 79.7571C216.606 78.8728 211.176 70.7809 208.819 67.1771C205.831 62.6446 208.289 61.6382 211.714 64.2134Z" fill="#AD6359"/>
<path d="M210.509 90.1098C210.88 89.6806 210.657 89.4845 209.668 89.6769C208.678 89.8693 204.938 91.464 204.478 90.1135C204.019 88.763 209.341 86.5874 211.009 86.395C212.492 86.2975 213.979 86.3223 215.457 86.469C214.512 87.1017 212.355 88.8481 210.509 90.1098Z" fill="#AD6359"/>
<path d="M219.805 93.2991C218.13 96.0889 213.27 97.8464 209.645 97.913C209.248 97.9284 208.857 97.8112 208.533 97.58C206.91 97.6392 206.395 96.8918 206.395 96.8918C204.864 96.4811 204.445 95.6449 204.445 95.6449C204.445 95.6449 202.536 95.693 202.314 94.5349C202.065 93.2473 204.793 93.4249 206.354 92.6183C209.934 90.7498 214.508 87.0979 215.476 86.4541L219.805 93.2991Z" fill="#AD6359"/>
<path d="M211.469 93.3066C209.314 94.5459 206.927 95.3293 204.456 95.608C204.449 95.6102 204.444 95.6145 204.44 95.6201C204.436 95.6257 204.434 95.6325 204.434 95.6394C204.434 95.6463 204.436 95.6531 204.44 95.6587C204.444 95.6643 204.449 95.6686 204.456 95.6709C206.972 95.5589 209.409 94.7576 211.499 93.3547C211.539 93.3214 211.521 93.2807 211.469 93.3066Z" fill="#263238"/>
<path d="M212.911 95.2972C211.847 95.756 209.972 96.5478 206.376 96.8512V96.8734C208.661 96.983 210.932 96.4551 212.933 95.349C212.996 95.3157 212.981 95.2676 212.911 95.2972Z" fill="#263238"/>
<path d="M213.667 96.385C212.015 97.0114 210.286 97.4097 208.526 97.569V97.5912C210.891 97.5357 211.74 97.2508 213.715 96.4442C213.767 96.4146 213.738 96.3554 213.667 96.385Z" fill="#263238"/>
<path d="M211.943 73.1971L219.624 69.671C219.624 69.671 212.262 64.0026 209.616 62.9444C206.65 61.753 206.687 63.529 207.855 66.3299C209.023 69.1308 211.943 73.1971 211.943 73.1971Z" fill="#0079FF"/>
<path d="M217.915 68.8199C217.629 68.9013 215.22 69.9632 214.701 70.2037C214.182 70.4442 212.051 71.4136 211.536 71.7096C211.513 71.7096 211.536 71.7577 211.536 71.7466C212.095 71.5579 214.249 70.5848 214.783 70.348C215.317 70.1112 217.678 69.0123 217.919 68.868C217.952 68.8199 217.952 68.7977 217.915 68.8199Z" fill="#263238"/>
<path d="M212.548 72.9122C212.31 73.001 211.943 73.1564 211.943 73.1564C211.376 72.1204 210.698 71.1362 210.09 70.1298C209.482 69.1234 208.815 68.0948 208.181 67.0773H208.155C208.481 67.6767 208.804 68.2724 209.134 68.8681L208.971 68.6683C208.778 68.4278 208.578 68.1947 208.396 67.9505C208.396 67.932 208.348 67.9505 208.363 67.9727C208.523 68.2358 208.699 68.4891 208.889 68.7312C209.03 68.8977 209.178 69.0568 209.33 69.2122C209.519 69.5489 209.701 69.8893 209.909 70.226C210.52 71.2546 211.124 72.446 211.814 73.4191C211.814 73.4191 212.336 73.1231 212.585 72.9455C212.611 72.9418 212.585 72.89 212.548 72.9122Z" fill="#263238"/>
<path d="M191.142 84.3822L178.509 85.4219L174.269 68.1762L186.901 67.1365L191.142 84.3822Z" fill="#37474F"/>
<path d="M183.88 68.424L177.894 68.9124L177.427 67.0069L183.417 66.5222L183.88 68.424Z" fill="#A6A6A6"/>
<path d="M182.057 66.6333L181.319 66.6925L181.104 65.8156L179.31 65.9599L179.525 66.8405L178.791 66.8997L178.398 65.3013L181.675 65.0349L182.057 66.6333Z" fill="#A6A6A6"/>
<path d="M172.419 76.0165C172.438 76.312 172.553 76.5934 172.745 76.8188C172.937 77.0442 173.198 77.2015 173.487 77.2671C173.487 77.2671 172.456 78.107 172.745 79.1726C172.894 79.7202 173.902 79.9644 173.902 79.9644C173.679 80.1671 173.516 80.4275 173.432 80.7167C173.347 81.006 173.345 81.3128 173.424 81.6035C173.676 82.3435 174.651 82.4767 174.651 82.4767C174.651 82.4767 174.202 83.5127 174.703 84.1861C175.718 85.5514 182.29 84.0677 182.757 81.4222C182.976 80.1864 181.389 80.6378 181.389 80.6378C181.389 80.6378 183.513 79.4427 183.243 78.0811C182.972 76.7195 180.945 77.4299 180.945 77.4299C180.945 77.4299 182.994 76.2533 182.568 74.8695C182.142 73.4857 180.222 74.4995 180.222 74.4995C180.222 74.4995 181.46 73.1823 180.893 72.1981C179.955 70.5738 177.134 73.5116 175.614 73.4968L175.018 71.2472C175.018 71.2472 172.293 74.8251 172.419 76.0165Z" fill="#AD6359"/>
<path d="M173.876 79.9829C173.85 79.9829 173.876 80.031 173.876 80.031C176.492 80.0584 179.031 79.1501 181.034 77.4706C181.1 77.4114 181.1 77.2856 181.034 77.3522C179.614 78.44 176.037 79.6869 173.876 79.9829Z" fill="#263238"/>
<path d="M180.333 74.3107C178.357 75.935 176.063 76.7601 173.583 77.2707C173.55 77.2707 173.565 77.3188 173.583 77.3225C174.866 77.4002 176.411 76.9118 177.583 76.4271C178.679 75.9992 179.643 75.2925 180.381 74.3773C180.418 74.344 180.374 74.2774 180.333 74.3107Z" fill="#263238"/>
<path d="M202.221 63.2329C202.291 63.6038 202.394 63.9679 202.529 64.3207C202.657 64.6716 202.816 65.0108 203.003 65.3345C203.178 65.6521 203.408 65.9364 203.681 66.1744C203.809 66.2789 203.961 66.3512 204.122 66.3853C204.285 66.389 204.447 66.3535 204.593 66.2817C205.257 65.9601 205.839 65.492 206.295 64.9127C206.417 64.7721 206.532 64.6241 206.665 64.4798C206.799 64.3355 206.888 64.1727 206.995 64.0173C207.103 63.8619 207.206 63.7065 207.31 63.5474C207.414 63.3883 207.507 63.2255 207.61 63.0664C207.327 63.7774 206.954 64.449 206.498 65.0644C206.049 65.7098 205.438 66.2265 204.727 66.5629C204.528 66.6529 204.31 66.6911 204.093 66.6739C203.88 66.6338 203.683 66.5366 203.522 66.3927C203.225 66.128 202.986 65.8041 202.821 65.4418C202.466 64.7566 202.261 64.0035 202.221 63.2329Z" fill="#263238"/>
<path d="M58.5295 88.7563C58.4979 88.544 58.3515 88.4479 58.0902 88.4679L57.1071 88.6144C57.0332 88.6254 56.9929 88.6078 56.986 88.5616C57.0015 88.2857 57.0668 88.0589 57.1819 87.8814C57.2956 87.6946 57.3972 87.585 57.4868 87.5528C57.7398 87.4774 58.1617 87.3957 58.7525 87.3076C59.3433 87.2196 59.7132 87.1692 59.8623 87.1564C60.01 87.1344 60.1044 87.1345 60.1455 87.1567C60.1893 87.1974 60.216 87.25 60.2256 87.3146C60.2339 87.37 60.2725 87.7559 60.3414 88.4722C60.4183 89.1779 60.4986 89.8123 60.5825 90.3755C60.6651 90.9293 60.7358 91.2774 60.7947 91.4196C60.8523 91.5526 60.8838 91.6375 60.8893 91.6744C60.9113 91.8221 60.8061 92.0029 60.5738 92.2169C60.3401 92.4215 59.9697 92.6277 59.4628 92.8353C58.9651 93.0416 58.4024 93.1915 57.7746 93.285C56.9346 93.4102 56.162 93.228 55.4568 92.7386C54.908 92.3485 54.5007 91.8949 54.2349 91.3778C53.9784 90.8593 53.7765 90.1061 53.6294 89.1184C53.0834 85.4535 54.1535 83.4209 56.8399 83.0207C57.2922 82.9533 57.706 82.9435 58.0811 82.9915C58.4549 83.0301 58.797 83.1726 59.1073 83.4189C59.4255 83.6546 59.6176 83.994 59.6836 84.4371C59.718 84.6679 59.7069 84.9102 59.6504 85.1639C59.5571 85.6779 59.2243 85.9776 58.652 86.0629C58.3381 86.1096 58.0864 86.0669 57.8968 85.9347C57.7151 85.792 57.603 85.5775 57.5603 85.2913C57.5438 85.1805 57.5935 85.1024 57.7094 85.0568C57.8697 84.9291 57.9319 84.7453 57.8962 84.5052C57.859 84.256 57.7385 84.0805 57.5346 83.9788C57.3294 83.8678 57.1252 83.8274 56.9221 83.8577C56.479 83.9237 56.1292 84.141 55.8727 84.5095C55.6148 84.8687 55.4552 85.3171 55.3937 85.8547C55.3005 86.8123 55.3254 87.7711 55.4684 88.7311C55.7022 90.3005 56.2407 91.2865 57.084 91.6894C57.4004 91.8498 57.7155 91.9067 58.0294 91.8599C58.611 91.7732 58.9044 91.621 58.9097 91.4032C58.8948 91.1129 58.8426 90.6677 58.7532 90.0677L58.5295 88.7563ZM65.439 88.0949L65.5666 88.5713C65.5928 88.7467 65.4397 88.8592 65.1073 88.9087C64.4334 89.0091 64.0587 88.8054 63.983 88.2977C63.9651 88.1777 63.9727 88.0067 64.0057 87.7847C64.0387 87.5628 64.0435 87.3733 64.0201 87.2164C63.9967 87.0595 63.9306 86.9325 63.8218 86.8355C63.7116 86.7292 63.5688 86.6892 63.3934 86.7153C63.218 86.7414 63.0753 86.8287 62.9653 86.9772C62.8632 87.1151 62.8079 87.2507 62.7995 87.3841L62.773 87.5862C62.7602 87.8807 62.804 88.3648 62.9044 89.0387C63.0035 89.7034 63.0911 90.2282 63.1673 90.6132C63.2422 90.9889 63.2998 91.2492 63.3403 91.3942C63.3794 91.5299 63.401 91.6116 63.4051 91.6393C63.4395 91.8701 63.3239 92.0761 63.0584 92.2572C62.7942 92.4475 62.519 92.564 62.2329 92.6066C61.9467 92.6493 61.7947 92.6106 61.7768 92.4906L61.7821 92.051C61.7917 91.2286 61.7002 90.1712 61.5076 88.8788C61.3151 87.5864 61.1383 86.7163 60.9772 86.2685C60.9607 86.1577 61.0493 86.0879 61.2432 86.059C61.7417 85.9847 62.0995 86.106 62.3165 86.4228C62.3313 86.4583 62.3479 86.4747 62.3663 86.472C62.394 86.4679 62.4525 86.4167 62.5416 86.3185C62.8091 86.0238 63.1506 85.8456 63.566 85.7837C63.8245 85.7452 64.0905 85.7574 64.3641 85.8205C64.922 85.9544 65.2511 86.3583 65.3515 87.0322L65.439 88.0949ZM66.9184 86.3317C66.6798 86.3766 66.5058 86.412 66.3964 86.4377C66.2948 86.4529 66.2399 86.4327 66.2317 86.3774C66.2234 86.322 66.2429 86.2624 66.29 86.1988C66.7997 85.5661 67.7561 85.1453 69.1593 84.9362C69.6393 84.8647 70.024 84.8498 70.3133 84.8917L70.458 84.9126C70.5756 84.9422 70.6386 84.9847 70.6468 85.0401C70.6537 85.0863 70.6269 85.128 70.5664 85.1654C70.3282 85.2763 70.106 85.4321 69.9 85.6327C69.6926 85.824 69.5937 85.9519 69.6033 86.0166L69.7008 86.1011C70.021 86.2233 70.2864 86.4527 70.4969 86.7893C70.7168 87.1246 70.8565 87.4293 70.9162 87.7035L71.0079 88.1286C71.144 89.0426 71.0023 89.8327 70.5826 90.4992C70.1629 91.1657 69.5145 91.5642 68.6375 91.6949C68.1944 91.7609 67.7996 91.7395 67.4531 91.6307C67.1067 91.5219 66.8405 91.3823 66.6547 91.2118C66.4767 91.0307 66.323 90.8224 66.1936 90.5869C66.0319 90.2619 65.9243 89.9193 65.8706 89.5593C65.8156 89.19 65.8206 88.8118 65.8856 88.4247C65.9598 88.0362 66.0623 87.7425 66.1931 87.5438C66.3332 87.3436 66.4965 87.173 66.6831 87.032C66.9209 86.855 67.1183 86.7548 67.2752 86.7314C67.4322 86.7081 67.5155 86.7287 67.5251 86.7933L67.4626 86.9441C67.2953 87.2144 67.1944 87.5503 67.1598 87.9518C67.1345 88.3519 67.1445 88.7042 67.1899 89.0089C67.2339 89.3043 67.3149 89.5942 67.4327 89.8786C67.5506 90.163 67.6667 90.3722 67.781 90.5061C67.8939 90.6308 68.0159 90.7212 68.1469 90.7772C68.3388 90.8618 68.5317 90.8897 68.7256 90.8608C68.9194 90.8319 69.0977 90.7299 69.2603 90.5547C69.4216 90.3702 69.5252 90.1472 69.5711 89.8856C69.6685 89.3992 69.6808 88.9114 69.6079 88.4222C69.4923 87.6467 69.2045 87.0762 68.7442 86.7107C68.2932 86.3439 67.6846 86.2175 66.9184 86.3317ZM76.4447 88.6209C76.5231 89.147 76.3761 89.6172 76.0037 90.0312C75.6392 90.4347 75.1661 90.6797 74.5845 90.7664C73.7352 90.8929 73.0743 90.7319 72.6017 90.2833C72.1277 89.8255 71.8254 89.1581 71.6948 88.2811C71.5558 87.3487 71.6405 86.4916 71.9486 85.7096C72.0967 85.3101 72.3441 84.976 72.691 84.7073C73.0378 84.4386 73.4651 84.2664 73.9729 84.1907C74.7391 84.0766 75.3176 84.2546 75.7085 84.7248C75.8694 84.9179 75.9711 85.1575 76.0138 85.4437C76.0798 85.8868 75.9447 86.2466 75.6084 86.5232C75.4731 86.6283 75.3408 86.6904 75.2116 86.7097C75.0916 86.7276 74.9893 86.7381 74.9049 86.7412C74.8283 86.7338 74.7171 86.6843 74.5714 86.5928C74.4256 86.5012 74.3383 86.3586 74.3094 86.1647C74.3035 86.0618 74.3696 85.967 74.5077 85.8804C74.6338 85.7767 74.681 85.6186 74.6494 85.4063C74.5957 85.0463 74.3474 84.8993 73.9043 84.9653C73.7935 84.9818 73.6672 85.0525 73.5254 85.1774C73.3914 85.2918 73.2854 85.435 73.2072 85.607C73.1277 85.7699 73.0665 86.0243 73.0237 86.3704C72.9888 86.7059 72.994 87.0259 73.0394 87.3306C73.0834 87.626 73.1263 87.8508 73.1682 88.005C73.2179 88.1485 73.2996 88.3487 73.4133 88.6054C73.5349 88.8515 73.7142 89.0418 73.9513 89.1763C74.1976 89.3095 74.4823 89.352 74.8054 89.3039C75.1932 89.2461 75.5106 89.0337 75.7579 88.6666C75.8587 88.5194 75.9322 88.3481 75.9786 88.1524C76.0045 88.0731 76.0451 88.0293 76.1005 88.021C76.1836 88.0086 76.2553 88.0782 76.3156 88.2296C76.3838 88.3704 76.4268 88.5008 76.4447 88.6209ZM78.2057 86.391L78.2711 86.7351C78.2793 86.7905 78.3204 86.8127 78.3943 86.8017C78.6855 86.73 78.933 86.6176 79.1367 86.4646C79.339 86.3024 79.4838 86.1345 79.5712 85.9611C79.7419 85.5865 79.8179 85.2732 79.7992 85.0212L79.7883 84.853C79.714 84.3545 79.4784 84.1348 79.0815 84.194C78.7861 84.238 78.5653 84.403 78.4192 84.689C78.1751 85.1405 78.1039 85.7079 78.2057 86.391ZM81.4987 87.7829C81.551 88.1337 81.5232 88.454 81.4154 88.7437C81.3154 89.0228 81.1828 89.2407 81.0174 89.3975C80.8599 89.5436 80.6666 89.6715 80.4376 89.7811C80.1467 89.9188 79.8628 90.0083 79.5859 90.0496C78.8104 90.1651 78.1948 89.9596 77.7388 89.433C77.2829 88.9064 76.9883 88.1954 76.8549 87.3C76.7201 86.3953 76.8266 85.5585 77.1744 84.7895C77.5315 84.0191 78.1669 83.5659 79.0809 83.4297C79.9117 83.3059 80.5181 83.5128 80.9002 84.0504C81.0532 84.2541 81.1448 84.4575 81.1751 84.6605C81.204 84.8544 81.2181 85.0127 81.2175 85.1355C81.2156 85.249 81.1764 85.4294 81.1 85.6767C81.0236 85.924 80.9069 86.1537 80.7497 86.3658C80.5926 86.578 80.328 86.7967 79.9558 87.022C79.5836 87.2473 79.1339 87.4275 78.6067 87.5627C78.5329 87.5737 78.5007 87.6115 78.5104 87.6761C78.5228 87.7592 78.569 87.8797 78.6492 88.0376C78.7372 88.1849 78.8263 88.3085 78.9167 88.4083C79.1583 88.6365 79.4776 88.721 79.8745 88.6619C80.2715 88.6027 80.5892 88.4233 80.8276 88.1236C80.9547 87.9631 81.0492 87.7744 81.1113 87.5576C81.1372 87.4782 81.1779 87.4344 81.2333 87.4262C81.2979 87.4165 81.3562 87.4597 81.4083 87.5558C81.4603 87.6518 81.4905 87.7275 81.4987 87.7829ZM86.0475 85.0245L86.1751 85.5009C86.2012 85.6763 86.0481 85.7888 85.7158 85.8383C85.0419 85.9387 84.6671 85.735 84.5915 85.2273C84.5736 85.1073 84.5812 84.9363 84.6141 84.7144C84.6471 84.4924 84.6519 84.303 84.6285 84.146C84.6052 83.9891 84.5391 83.8621 84.4302 83.7651C84.3201 83.6588 84.1773 83.6188 84.0019 83.6449C83.8265 83.671 83.6838 83.7583 83.5738 83.9068C83.4717 84.0447 83.4164 84.1804 83.4079 84.3137L83.3814 84.5158C83.3687 84.8103 83.4125 85.2944 83.5129 85.9683C83.6119 86.633 83.6996 87.1578 83.7758 87.5428C83.8506 87.9185 83.9083 88.1789 83.9488 88.3238C83.9879 88.4595 84.0095 88.5412 84.0136 88.5689C84.048 88.7997 83.9324 89.0057 83.6669 89.1868C83.4027 89.3771 83.1275 89.4936 82.8413 89.5362C82.5552 89.5789 82.4031 89.5402 82.3853 89.4202L82.3905 88.9806C82.4001 88.1582 82.3086 87.1008 82.1161 85.8084C81.9235 84.516 81.7467 83.6459 81.5856 83.1981C81.5691 83.0873 81.6578 83.0175 81.8517 82.9886C82.3502 82.9143 82.7079 83.0356 82.925 83.3524C82.9397 83.3879 82.9563 83.4043 82.9748 83.4016C83.0025 83.3975 83.0609 83.3463 83.1501 83.2481C83.4176 82.9535 83.7591 82.7752 84.1745 82.7133C84.4329 82.6748 84.699 82.687 84.9726 82.7501C85.5304 82.884 85.8595 83.2879 85.9599 83.9618L86.0475 85.0245ZM90.3217 92.1019C90.3382 92.2127 90.291 92.2764 90.1802 92.2929L90.1664 92.2949C89.8618 92.3403 89.4998 92.2857 89.0804 92.1312C88.6703 91.9752 88.4446 91.7588 88.4033 91.4819C88.3621 91.2049 88.4653 90.6941 88.7129 89.9495C88.9619 89.2141 89.0692 88.731 89.0349 88.5002C88.9977 88.251 88.811 87.8212 88.4747 87.2107C88.0449 86.416 87.6985 85.7694 87.4355 85.2707C87.1817 84.7706 86.9191 84.3379 86.6476 83.9726C86.384 83.5967 86.2005 83.3787 86.0972 83.3186L85.9443 83.2423C85.8345 83.202 85.7748 83.1496 85.7652 83.0849C85.7459 82.9557 85.9251 82.7969 86.3028 82.6085C86.6884 82.4095 87.0335 82.2873 87.3381 82.242C87.4766 82.2213 87.6085 82.3149 87.7338 82.5227C87.9646 82.9318 88.234 83.5051 88.542 84.2424C89.2467 85.7416 89.659 86.4822 89.779 86.4644C89.8621 86.452 89.9801 86.1041 90.1331 85.4208C90.2953 84.7361 90.3468 84.1953 90.2877 83.7983C90.1845 83.1059 89.9209 82.73 89.4968 82.6705C89.4018 82.6658 89.3487 82.6265 89.3377 82.5527C89.313 82.3865 89.5065 82.1973 89.9184 81.9849C90.3289 81.7633 90.7095 81.6264 91.0603 81.5742C91.365 81.5288 91.5469 81.7046 91.606 82.1015C91.6514 82.4061 91.6397 82.7712 91.571 83.1966C91.5023 83.6221 91.4304 83.963 91.3554 84.2196C91.279 84.4668 91.0832 85.0528 90.768 85.9773C90.4607 86.8912 90.212 87.6926 90.0221 88.3815C89.8238 89.2037 89.7845 90.0163 89.9041 90.8195C89.9674 91.2441 90.0517 91.5571 90.1572 91.7584C90.2627 91.9597 90.3175 92.0742 90.3217 92.1019Z" fill="#DBDBDB"/>
<path d="M56.4114 115.795L56.4016 115.295C56.3293 114.81 56.093 114.527 55.6928 114.447C55.3833 114.396 55.1494 114.382 54.9911 114.406L54.9753 114.408C54.6588 114.455 54.3923 114.549 54.1759 114.689C53.958 114.818 53.8072 114.965 53.7238 115.128C53.5478 115.467 53.4691 115.808 53.4878 116.15C53.5475 116.551 53.7787 116.872 54.1814 117.114C54.5826 117.346 55.0529 117.535 55.5923 117.681C56.1407 117.815 56.687 117.971 57.2311 118.148C57.7858 118.324 58.2778 118.623 58.7073 119.045C59.1367 119.466 59.401 120.009 59.5 120.674C59.6933 121.971 59.4265 123.003 58.6994 123.769C57.9829 124.534 57.1025 124.994 56.058 125.15C55.0241 125.304 54.1297 125.2 53.3747 124.838C52.6288 124.463 52.1969 123.881 52.079 123.089L52.0766 123.074C52.0185 122.683 52.0262 122.337 52.0998 122.035C52.1824 121.721 52.2979 121.482 52.4462 121.32C52.752 120.983 53.0457 120.783 53.3274 120.72L53.5149 120.675C53.8103 120.631 54.0904 120.665 54.355 120.777C54.6181 120.878 54.7685 121.055 54.8062 121.308C54.8251 121.435 54.7723 121.55 54.6477 121.655C54.5231 121.76 54.4206 121.905 54.3403 122.089C54.2705 122.272 54.2389 122.423 54.2457 122.54L54.24 122.719C54.3359 123.363 54.6949 123.746 55.3172 123.869C55.5392 123.911 55.7135 123.923 55.8401 123.904C56.4203 123.818 56.8586 123.574 57.1549 123.174C57.4617 122.773 57.5751 122.303 57.4949 121.765C57.399 121.121 57.0469 120.64 56.4386 120.321C55.9831 120.087 55.4978 119.906 54.9826 119.777C54.478 119.648 54.135 119.553 53.9536 119.494C53.7722 119.435 53.5779 119.361 53.3707 119.273C53.1636 119.186 52.9282 119.054 52.6646 118.877C52.0922 118.509 51.7502 117.951 51.6386 117.202C51.5254 116.442 51.6361 115.774 51.9705 115.195C52.5691 114.146 53.6069 113.512 55.084 113.292C55.8647 113.175 56.5469 113.23 57.1305 113.456C57.7126 113.671 58.0429 114.042 58.1215 114.57C58.1781 114.95 58.1145 115.283 57.9306 115.569C57.7574 115.854 57.5019 116.021 57.1643 116.071C57.0061 116.095 56.8431 116.087 56.6754 116.047C56.5183 116.006 56.4303 115.922 56.4114 115.795ZM62.3665 116.704L62.3995 116.925L65.2006 116.508L65.1959 116.476C65.1687 116.222 65.1269 115.904 65.0703 115.524C65.0121 115.134 64.9565 114.797 64.9035 114.514C64.849 114.22 64.8015 113.974 64.7611 113.775C64.7207 113.576 64.6789 113.404 64.6358 113.26C64.6032 113.114 64.5762 113.004 64.5546 112.932C64.5315 112.849 64.5152 112.776 64.5058 112.713C64.4964 112.65 64.5434 112.567 64.6469 112.465C65.103 112.052 65.6423 111.799 66.2647 111.707C66.6551 111.649 66.8605 111.688 66.8809 111.825C66.8825 111.836 66.8806 111.895 66.8752 112.004C66.8241 113.036 66.9042 114.442 67.1155 116.223C67.3479 118 67.4736 118.952 67.4924 119.078C67.7361 120.714 68 121.834 68.2842 122.438C68.3284 122.518 68.3552 122.59 68.3647 122.653C68.3725 122.706 68.3398 122.775 68.2664 122.862C67.9137 123.173 67.4262 123.375 66.8037 123.468C66.4028 123.527 66.1555 123.424 66.0619 123.158C66.0083 123.015 65.9587 122.79 65.9131 122.484C65.8659 122.168 65.8102 121.685 65.746 121.037C65.6923 120.387 65.5566 119.259 65.3387 117.652L62.5693 118.065C62.9277 120.47 63.253 122.147 63.5453 123.096C63.5831 123.349 63.3711 123.591 62.9093 123.821C62.4492 124.063 62.0608 124.207 61.7443 124.254C61.4278 124.301 61.2625 124.277 61.2484 124.182C61.2389 124.119 61.243 124.037 61.2605 123.938C61.3949 123.465 61.2295 121.667 60.7642 118.544L60.7336 118.338L59.7999 118.477C59.7155 118.49 59.6686 118.465 59.6591 118.401C59.656 118.38 59.6653 118.298 59.6871 118.154C59.7073 118 59.7771 117.817 59.8965 117.606C60.0264 117.392 60.1864 117.271 60.3763 117.243L60.5503 117.217C60.2407 115.139 59.941 113.959 59.6511 113.679L59.5737 113.593C59.5025 113.55 59.4615 113.491 59.4505 113.418C59.4379 113.333 59.4857 113.256 59.5939 113.186C59.738 113.067 60.0034 112.931 60.3902 112.776C60.7875 112.62 61.1497 112.517 61.4767 112.469C61.8038 112.42 61.9783 112.469 62.0003 112.617L62.0074 112.665C62.0443 113.781 62.164 115.127 62.3665 116.704ZM70.9253 115.429C71.4126 118.699 71.8055 120.83 72.1041 121.821C72.1418 122.074 71.9298 122.316 71.4681 122.546C71.008 122.787 70.6196 122.932 70.3031 122.979C69.9866 123.026 69.8213 123.002 69.8071 122.907C69.7977 122.844 69.8017 122.762 69.8192 122.663C69.9537 122.19 69.7883 120.392 69.323 117.269C68.8829 114.315 68.5119 112.693 68.2099 112.404L68.1325 112.318C68.0613 112.275 68.0202 112.216 68.0092 112.142C67.9967 112.058 68.0445 111.981 68.1527 111.911C68.2968 111.792 68.5622 111.656 68.949 111.501C69.3463 111.345 69.7085 111.242 70.0355 111.193C70.3626 111.145 70.5371 111.194 70.5591 111.342L70.5662 111.389C70.6031 112.506 70.7228 113.852 70.9253 115.429ZM75.9213 115.073C75.9635 115.066 76.0489 115.097 76.1775 115.164C76.3061 115.231 76.4337 115.255 76.5603 115.236L76.5762 115.234C76.9349 115.18 77.1985 114.995 77.3671 114.679C77.5356 114.363 77.6093 114.061 77.5879 113.773L77.5717 113.338C77.512 112.937 77.3976 112.604 77.2286 112.338C77.0685 112.06 76.8991 111.864 76.7204 111.75C76.5402 111.626 76.3391 111.543 76.117 111.501C75.8376 111.434 75.5501 111.423 75.2547 111.467C74.9699 111.51 74.7425 111.576 74.5726 111.666C74.4011 111.746 74.3087 111.813 74.2955 111.869L74.2938 111.966C74.411 113.405 74.5537 114.689 74.7219 115.817C74.8885 116.936 75.0482 117.899 75.2009 118.706C75.3641 119.512 75.4946 120.135 75.5922 120.573C75.6989 120.999 75.7553 121.234 75.7616 121.276C75.8009 121.54 75.6003 121.785 75.1596 122.013C74.719 122.24 74.2718 122.387 73.8182 122.455C73.6072 122.486 73.4938 122.449 73.4781 122.344C73.4734 122.312 73.4782 122.236 73.4926 122.115C73.6239 121.621 73.4027 119.449 72.8289 115.598C72.491 113.33 72.1447 112.055 71.79 111.773C71.7173 111.719 71.6762 111.661 71.6667 111.598C71.6557 111.524 71.7178 111.434 71.8529 111.327C71.9986 111.219 72.417 111.06 73.1082 110.849C73.7977 110.628 74.5382 110.458 75.3294 110.34C76.5743 110.155 77.5583 110.353 78.2814 110.936C79.015 111.516 79.4518 112.276 79.5917 113.215C79.73 114.144 79.5917 114.989 79.177 115.752C78.7727 116.513 78.1591 116.955 77.3362 117.078C77.0725 117.117 76.8016 117.109 76.5237 117.053C75.9679 116.942 75.6452 116.586 75.5556 115.984C75.5368 115.858 75.5538 115.683 75.6068 115.459C75.6582 115.225 75.763 115.096 75.9213 115.073ZM83.7567 113.905C83.7989 113.899 83.8843 113.929 84.0129 113.996C84.1415 114.063 84.2691 114.088 84.3957 114.069L84.4116 114.066C84.7703 114.013 85.0339 113.828 85.2025 113.512C85.371 113.196 85.4446 112.893 85.4233 112.605L85.4071 112.171C85.3474 111.77 85.233 111.437 85.064 111.171C84.9039 110.893 84.7345 110.697 84.5558 110.583C84.3756 110.459 84.1744 110.376 83.9524 110.333C83.673 110.267 83.3855 110.256 83.0901 110.3C82.8053 110.342 82.5779 110.409 82.408 110.499C82.2365 110.578 82.1441 110.646 82.1308 110.702L82.1292 110.799C82.2464 112.237 82.3891 113.521 82.5573 114.65C82.7239 115.768 82.8836 116.731 83.0363 117.539C83.1995 118.345 83.33 118.967 83.4276 119.406C83.5343 119.832 83.5907 120.066 83.597 120.108C83.6363 120.372 83.4356 120.618 82.995 120.845C82.5544 121.073 82.1072 121.22 81.6536 121.288C81.4426 121.319 81.3292 121.282 81.3135 121.177C81.3088 121.145 81.3136 121.069 81.328 120.948C81.4593 120.454 81.238 118.281 80.6643 114.431C80.3264 112.162 79.9801 110.887 79.6254 110.606C79.5526 110.552 79.5116 110.493 79.5021 110.43C79.4911 110.356 79.5532 110.266 79.6883 110.16C79.834 110.052 80.2524 109.892 80.9436 109.682C81.6331 109.46 82.3735 109.291 83.1648 109.173C84.4097 108.987 85.3937 109.186 86.1168 109.768C86.8504 110.349 87.2872 111.109 87.4271 112.048C87.5654 112.976 87.4271 113.822 87.0123 114.585C86.6081 115.346 85.9945 115.788 85.1716 115.911C84.9079 115.95 84.637 115.942 84.3591 115.886C83.8033 115.775 83.4806 115.418 83.391 114.817C83.3722 114.69 83.3892 114.515 83.4422 114.292C83.4936 114.058 83.5984 113.929 83.7567 113.905ZM90.4752 112.516C90.9624 115.787 91.3554 117.917 91.654 118.908C91.6917 119.161 91.4797 119.403 91.018 119.634C90.5578 119.875 90.1695 120.019 89.853 120.066C89.5364 120.113 89.3711 120.089 89.357 119.994C89.3475 119.931 89.3516 119.85 89.3691 119.75C89.5035 119.277 89.3381 117.479 88.8728 114.356C88.4327 111.402 88.0617 109.78 87.7598 109.491L87.6823 109.406C87.6112 109.362 87.5701 109.304 87.5591 109.23C87.5465 109.145 87.5943 109.068 87.7025 108.998C87.8466 108.88 88.112 108.743 88.4988 108.588C88.8961 108.432 89.2583 108.33 89.5854 108.281C89.9124 108.232 90.0869 108.282 90.109 108.429L90.116 108.477C90.1529 109.593 90.2726 110.939 90.4752 112.516ZM98.1265 113.479L97.8301 111.598C97.5519 109.731 97.3039 108.5 97.0861 107.907C97.054 107.837 97.0348 107.78 97.0285 107.738C97.0018 107.559 97.1584 107.379 97.4982 107.199C97.838 107.019 98.1135 106.913 98.3245 106.882C98.5355 106.85 98.6504 106.898 98.6693 107.025C98.6708 107.035 98.6689 107.095 98.6636 107.203C98.6142 108.537 98.8002 110.618 99.2215 113.445C99.5091 115.376 99.8266 116.747 100.174 117.558C100.237 117.689 100.269 117.759 100.27 117.77C100.303 117.991 100.087 118.207 99.6224 118.416C99.1591 118.636 98.8272 118.761 98.6268 118.791C98.3102 118.838 98.083 118.797 97.9449 118.666C97.6688 118.406 97.1656 117.634 96.4353 116.352C95.714 115.057 95.0702 113.848 94.5038 112.725L93.6383 111.042C93.6094 110.992 93.5791 110.97 93.5474 110.974C93.5052 110.981 93.4632 111.025 93.4215 111.106C93.5149 112.095 93.6347 113.081 93.7809 114.062C93.9271 115.043 94.0447 115.796 94.1339 116.322C94.2336 116.847 94.3144 117.244 94.3764 117.516C94.4383 117.787 94.4925 118.005 94.5387 118.171C94.5834 118.326 94.6165 118.44 94.6381 118.512C94.6702 118.583 94.6886 118.634 94.6933 118.665C94.7231 118.866 94.5719 119.045 94.2394 119.202C93.9086 119.37 93.6007 119.475 93.3158 119.518C93.0415 119.559 92.8949 119.516 92.8761 119.389C92.8667 119.326 92.8707 119.244 92.8882 119.145C92.9057 119.045 92.9246 118.918 92.9447 118.764C92.9952 118.379 92.9693 117.698 92.8669 116.721C92.7629 115.734 92.6182 114.618 92.4327 113.373C92.2456 112.117 92.0938 111.207 91.9773 110.642C91.7862 109.722 91.5985 109.113 91.4142 108.817C91.3779 108.79 91.3558 108.75 91.3479 108.698C91.3227 108.529 91.578 108.324 92.1135 108.082C92.6491 107.841 93.0699 107.697 93.3759 107.651C93.6924 107.604 93.8778 107.582 93.9321 107.585C94.0782 107.552 94.1805 107.623 94.2389 107.798C94.7099 108.86 95.3313 110.099 96.1031 111.516C96.8854 112.931 97.5518 114.001 98.1023 114.728C98.1629 114.773 98.209 114.793 98.2407 114.788C98.2934 114.781 98.2554 114.344 98.1265 113.479ZM106.088 112.6C106.051 112.358 105.884 112.248 105.585 112.271L104.462 112.438C104.377 112.451 104.331 112.43 104.323 112.378C104.341 112.062 104.416 111.803 104.547 111.6C104.677 111.387 104.793 111.262 104.896 111.225C105.185 111.139 105.667 111.045 106.342 110.945C107.018 110.844 107.44 110.786 107.611 110.772C107.78 110.747 107.887 110.747 107.934 110.772C107.984 110.819 108.015 110.879 108.026 110.953C108.035 111.016 108.079 111.457 108.158 112.276C108.246 113.082 108.338 113.807 108.434 114.451C108.528 115.084 108.609 115.481 108.676 115.644C108.742 115.796 108.778 115.893 108.784 115.935C108.81 116.104 108.689 116.311 108.424 116.555C108.157 116.789 107.733 117.025 107.154 117.262C106.585 117.498 105.942 117.669 105.225 117.776C104.265 117.919 103.382 117.711 102.576 117.151C101.949 116.706 101.483 116.187 101.179 115.596C100.886 115.004 100.656 114.143 100.487 113.014C99.8633 108.826 101.086 106.503 104.156 106.045C104.673 105.968 105.146 105.957 105.575 106.012C106.002 106.056 106.393 106.219 106.748 106.5C107.112 106.77 107.331 107.158 107.407 107.664C107.446 107.928 107.433 108.205 107.369 108.495C107.262 109.082 106.882 109.425 106.227 109.522C105.869 109.575 105.581 109.527 105.364 109.376C105.157 109.212 105.029 108.967 104.98 108.64C104.961 108.514 105.018 108.424 105.15 108.372C105.333 108.226 105.405 108.016 105.364 107.742C105.321 107.457 105.184 107.256 104.951 107.14C104.716 107.013 104.483 106.967 104.25 107.002C103.744 107.077 103.344 107.326 103.051 107.747C102.756 108.157 102.574 108.67 102.504 109.284C102.397 110.378 102.426 111.474 102.589 112.571C102.856 114.365 103.472 115.492 104.435 115.952C104.797 116.136 105.157 116.201 105.516 116.147C106.181 116.048 106.516 115.874 106.522 115.625C106.505 115.293 106.445 114.785 106.343 114.099L106.088 112.6Z" fill="#0052AD"/>
</svg>
