<svg width="225" height="225" viewBox="0 0 225 225" fill="none" xmlns="http://www.w3.org/2000/svg">
<path d="M18.5398 91.7349C19.0632 94.2522 17.5495 96.5258 17.6734 99.019C17.783 101.179 19.346 102.795 21.2057 103.708C23.5076 104.836 26.1417 104.789 28.5922 105.369C30.8375 105.903 32.8849 107.014 33.758 109.259C34.2001 110.394 34.3662 111.61 34.6454 112.791C34.8999 113.88 35.2712 114.941 35.7946 115.931C36.7987 117.823 38.3088 119.453 40.2426 120.408C42.1378 121.341 44.4222 121.511 46.4233 120.835C48.3468 120.185 49.8636 118.71 50.4929 116.769C50.9351 115.404 50.9315 113.912 50.4117 112.596C49.6445 108.417 44.6659 106.893 41.618 104.545C40.7198 103.849 39.8925 103.018 39.3619 102.003C38.7536 100.836 38.584 99.5168 38.5947 98.2159C38.6086 95.9387 39.0755 93.6687 38.6549 91.3986C38.2837 89.4222 37.2368 87.6437 35.2851 86.9044C34.1678 86.4802 32.9585 86.4021 31.8022 86.109C30.6741 85.8226 29.6771 85.2673 28.7897 84.5176C25.4235 81.6713 23.6023 76.1589 18.5676 75.8299C16.5131 75.6957 14.5896 76.7137 13.8862 78.7117C13.1257 80.8543 13.8332 83.114 14.9186 85.002C16.1813 87.1948 18.0092 89.1924 18.5398 91.7349Z" fill="#57D3D3"/>
<path d="M16.0385 78.785C19.34 79.4125 22.2268 81.7342 23.486 84.8661C23.5905 85.126 23.6763 85.3895 23.7548 85.6543C23.9308 85.0636 24.1068 84.4733 24.2827 83.8826C24.3559 83.6379 24.6629 83.5199 24.891 83.6042C25.1437 83.6981 25.2425 83.9669 25.1693 84.2125L24.1521 87.6263C24.2553 88.4441 24.307 89.2715 24.3667 90.0965C24.4946 91.8705 24.6742 93.794 25.857 95.2161C26.6093 96.1206 27.6409 96.675 28.7191 97.1099C28.7949 96.9977 28.7932 96.8029 28.8017 96.6803C28.8178 96.4451 28.8282 96.2095 28.8412 95.9742L28.9287 94.4C28.9844 93.3945 29.0405 92.3885 29.0962 91.383C29.1298 90.7752 30.072 90.8583 30.0379 91.4656C29.9746 92.6026 29.9118 93.7392 29.8485 94.8763C29.8171 95.4446 29.7861 96.0133 29.7538 96.5816C29.7372 96.8698 29.7125 97.1768 29.6034 97.4448C29.761 97.5009 29.9181 97.5561 30.0743 97.61C31.6472 98.1545 33.2865 98.6725 34.6107 99.7198C35.6077 100.508 36.3515 101.476 36.936 102.542C36.9876 102.285 37.0284 102.024 37.0787 101.772C37.1766 101.282 37.2744 100.793 37.3723 100.303L37.9729 97.2989C38.0232 97.0466 38.2104 96.8478 38.4851 96.8693C38.7185 96.8873 38.9649 97.1315 38.9147 97.3815L38.2472 100.719C38.1314 101.298 38.0156 101.877 37.9002 102.455C37.8118 102.897 37.7516 103.367 37.5231 103.763C38.2961 105.6 38.7257 107.628 39.1759 109.523C39.6531 111.531 40.2236 113.624 41.4491 115.315C41.92 113.517 42.3909 111.719 42.8617 109.92C43.0157 109.333 43.9014 109.665 43.7483 110.25C43.2285 112.235 42.7087 114.22 42.1889 116.206C43.523 117.581 45.3822 118.512 47.3286 118.128C47.927 118.01 48.0962 118.94 47.4996 119.058C45.1439 119.522 43.0642 118.467 41.5182 116.826C41.5097 116.824 41.5003 116.825 41.4922 116.823C39.7088 116.384 37.9253 115.945 36.1414 115.506C35.8914 115.444 35.7841 115.118 35.8631 114.898C35.9574 114.634 36.2245 114.559 36.4714 114.619L40.5509 115.623C40.0611 114.917 39.6535 114.158 39.3496 113.395C38.1991 110.507 37.9514 107.244 36.7703 104.366C36.1931 104.548 35.4771 104.423 34.8953 104.38C33.7516 104.295 32.6078 104.21 31.464 104.126C30.8571 104.081 30.9393 103.139 31.5466 103.184C32.5333 103.257 33.5199 103.33 34.507 103.403C34.9896 103.439 35.4726 103.483 35.9561 103.51C36.1136 103.519 36.255 103.519 36.3785 103.492C36.1518 103.038 35.8968 102.597 35.6028 102.171C34.5672 100.671 33.155 99.7516 31.4744 99.1093C30.5676 98.7627 29.6353 98.4741 28.7281 98.1271C28.496 98.1706 28.2509 98.1689 28.0125 98.1657C27.4321 98.1581 26.8522 98.1491 26.2718 98.141L22.7906 98.0916C22.1819 98.0831 22.2672 97.1409 22.8732 97.1499C23.8998 97.1642 24.926 97.1791 25.9526 97.1934C26.2273 97.1975 26.5025 97.2011 26.7772 97.2051C25.3852 96.3648 24.416 95.0989 23.942 93.5399C23.4029 91.7668 23.4608 89.8855 23.2629 88.0599C23.2597 88.0325 23.2548 88.0065 23.2516 87.9791C22.0536 87.4252 20.8559 86.8712 19.6578 86.3173C19.4262 86.21 19.2857 85.9618 19.3795 85.7091C19.4635 85.4837 19.7548 85.323 19.9878 85.4308C21.0139 85.9052 22.0401 86.3797 23.0658 86.8542C22.7372 85.3064 22.0975 83.8888 21.0175 82.6602C19.705 81.1668 17.9148 80.0989 15.9563 79.7263C15.3638 79.6145 15.4401 78.6714 16.0385 78.785Z" fill="#544FC9"/>
<path d="M37.3711 92.7702C37.7598 93.8803 37.7423 95.0119 37.5053 96.1503C37.0847 98.1833 36.0697 100.149 36.2219 102.271C36.3525 104.057 37.4806 105.39 38.9058 106.362C40.2884 107.306 41.8828 107.964 43.142 109.088C43.8597 109.732 44.3652 110.52 44.6058 111.457C44.8886 112.582 44.8886 113.763 45.214 114.877C45.7693 116.783 47.3673 118.246 49.3227 118.614C50.9243 118.915 52.5933 118.359 53.7743 117.27C55.1358 116.503 56.2742 115.354 56.9955 113.954C57.9822 112.037 58.1873 109.728 57.5293 107.674C56.8505 105.545 55.0788 103.745 54.9729 101.444C54.8772 99.3787 56.0336 97.4835 56.6948 95.5986C57.3241 93.8093 57.4835 91.9496 56.394 90.3053C55.3863 88.7813 53.7631 87.8301 52.6072 86.4373C51.9815 85.684 51.582 84.8248 51.5003 83.8382C51.4011 82.6926 51.6982 81.5327 51.9424 80.4226C52.4021 78.3505 52.6921 76.261 51.472 74.3833C50.4252 72.778 48.5829 71.689 46.6419 71.7492C44.7432 71.8093 42.887 72.8737 41.8968 74.5C41.3132 75.462 41.1579 76.5438 40.8854 77.6189C40.6345 78.6194 40.2031 79.4467 39.4072 80.1223C38.0457 81.2786 36.1932 81.9044 35.1711 83.4355C33.8558 85.4084 34.7469 87.8203 35.7932 89.6872C36.3597 90.6909 36.9895 91.6776 37.3711 92.7702Z" fill="#544FC9"/>
<path d="M41.1697 81.3078L44.7917 82.9158C44.5453 82.5333 44.3182 82.145 44.1314 81.7419C43.4904 80.358 43.3369 78.8156 43.9164 77.3823C44.4887 75.9674 45.6428 74.8089 47.0945 74.3151C47.1461 74.2976 47.1942 74.2971 47.2427 74.2958C47.2871 74.2828 47.3297 74.2679 47.3823 74.2679C47.7396 74.2679 47.8513 74.5916 47.7656 74.8596C47.749 74.988 47.674 75.1042 47.5093 75.1644C47.5062 75.1657 47.5035 75.1684 47.5003 75.1698L47.4994 75.1702C46.1353 75.6339 45.0893 76.7193 44.6651 78.0988C44.2409 79.4773 44.6611 80.8388 45.3578 82.0463C45.5867 82.4431 45.8394 82.8278 46.1007 83.2084C46.5608 82.2662 47.0205 81.3245 47.4806 80.3822C47.745 79.8409 48.6347 80.1641 48.3671 80.7122L46.7175 84.0905C47.784 85.6041 48.807 87.1236 48.8367 89.0884C48.8555 90.3381 48.5112 91.5007 48.0735 92.6427C48.3195 92.4313 48.566 92.2199 48.812 92.0084C49.6164 91.3176 50.4208 90.6272 51.2252 89.9364C51.6875 89.5391 52.2953 90.2641 51.833 90.6609C50.9199 91.4446 50.0069 92.2288 49.0939 93.0126C48.654 93.3901 48.228 93.8103 47.7566 94.1483C47.6404 94.2318 47.516 94.2906 47.3885 94.3283C46.9289 95.4474 46.5042 96.5759 46.3709 97.7762C46.1456 99.8043 46.8624 101.652 47.8298 103.399C48.974 101.626 50.1187 99.8536 51.2629 98.0805C51.5928 97.5692 52.3649 98.1155 52.0345 98.6273C50.8104 100.524 49.5859 102.421 48.3617 104.317C48.9462 105.287 49.5715 106.229 50.1137 107.157C50.5954 107.982 51.0371 108.888 51.3738 109.827C51.8698 108.84 52.3654 107.853 52.8614 106.866C53.1312 106.329 54.0213 106.651 53.7479 107.196C53.0867 108.513 52.4251 109.829 51.7639 111.145C52.2096 113.078 52.0924 115.074 50.8293 116.78C50.4679 117.269 49.694 116.725 50.0576 116.234C51.1166 114.802 51.2427 113.17 50.9033 111.563C49.3197 110.63 47.7364 109.697 46.1528 108.764C45.6289 108.455 46.177 107.684 46.6995 107.992C47.9743 108.743 49.2496 109.494 50.5245 110.246C50.1272 109.131 49.5639 108.06 48.9924 107.115C48.5022 106.304 47.9734 105.481 47.4752 104.639C45.4651 103.12 43.4549 101.6 41.4448 100.08C40.9605 99.714 41.5041 98.9402 41.9916 99.3087C43.4635 100.421 44.9358 101.535 46.4077 102.648C45.7003 101.125 45.2478 99.5201 45.4197 97.7838C45.545 96.5184 46.0064 95.3253 46.4971 94.1411C46.1424 93.8619 45.8955 93.4166 45.6379 93.0588C45.2837 92.5677 44.93 92.0762 44.5758 91.5851C43.8509 90.5792 43.1259 89.5732 42.401 88.5673C42.0468 88.0757 42.7686 87.4648 43.1255 87.9595C44.3393 89.6437 45.549 91.3311 46.7668 93.0126C46.792 93.0472 46.8364 93.1226 46.8871 93.1993C47.4424 91.8437 47.9317 90.4782 47.8944 89.0063C47.8496 87.2386 46.8584 85.8178 45.8399 84.4142C44.1732 83.6744 42.5069 82.9346 40.8402 82.1949C40.2867 81.9489 40.6112 81.0596 41.1697 81.3078Z" fill="#7979E2"/>
<path d="M22.1658 122.918C23.3131 123.177 24.263 123.793 25.1024 124.598C26.6026 126.033 27.7306 127.937 29.6097 128.933C31.1925 129.769 32.9211 129.521 34.5012 128.829C36.0351 128.157 37.4387 127.155 39.0597 126.684C39.9862 126.417 40.9225 126.407 41.8446 126.7C42.9479 127.057 43.9489 127.684 45.0653 127.999C46.9753 128.539 49.064 127.961 50.4134 126.499C51.5181 125.301 51.9329 123.592 51.6361 122.013C51.708 120.452 51.3381 118.877 50.5337 117.523C49.4326 115.67 47.584 114.271 45.494 113.739C43.3295 113.185 40.8642 113.732 38.8568 112.6C37.0558 111.586 36.0629 109.6 34.8159 108.04C33.6331 106.557 32.141 105.435 30.1694 105.486C28.3429 105.532 26.6757 106.403 24.8815 106.644C23.911 106.775 22.9706 106.657 22.0913 106.203C21.0678 105.679 20.2423 104.812 19.4303 104.016C17.918 102.527 16.3002 101.173 14.0616 101.21C12.1457 101.246 10.2451 102.23 9.26609 103.907C8.30951 105.548 8.22691 107.686 9.08025 109.389C9.58615 110.393 10.4206 111.099 11.1873 111.901C11.9024 112.644 12.3746 113.449 12.525 114.482C12.7827 116.249 12.3302 118.152 13.0861 119.83C14.0607 121.992 16.5776 122.516 18.7152 122.619C19.8666 122.672 21.0368 122.662 22.1658 122.918Z" fill="#7979E2"/>
<path d="M14.4642 113.617L17.7487 111.399C17.294 111.405 16.8438 111.392 16.4034 111.336C14.8907 111.145 13.5013 110.457 12.5937 109.205C11.6982 107.969 11.3283 106.376 11.6798 104.884C11.6923 104.831 11.7175 104.79 11.7417 104.749C11.7543 104.704 11.7642 104.66 11.792 104.616C11.9814 104.313 12.3149 104.39 12.4967 104.605C12.5968 104.688 12.6556 104.812 12.6193 104.984C12.6188 104.988 12.6197 104.991 12.6188 104.995V104.996C12.288 106.398 12.6534 107.86 13.5974 108.952C14.541 110.043 15.9182 110.409 17.3111 110.459C17.7689 110.476 18.2295 110.466 18.69 110.446C18.1357 109.557 17.5808 108.667 17.0265 107.777C16.7078 107.266 17.4538 106.683 17.7766 107.201L19.7651 110.392C21.6141 110.291 23.4447 110.23 25.1262 111.247C26.1954 111.894 26.9985 112.803 27.7338 113.779C27.6853 113.458 27.6368 113.137 27.5879 112.817C27.4294 111.769 27.2705 110.721 27.1121 109.672C27.0209 109.069 27.9573 108.939 28.0485 109.541C28.2285 110.731 28.4085 111.92 28.5889 113.111C28.6755 113.684 28.8057 114.268 28.8421 114.846C28.8511 114.989 28.8354 115.126 28.7994 115.253C29.5042 116.237 30.2354 117.195 31.1821 117.945C32.7815 119.213 34.7283 119.585 36.7228 119.693C35.8272 117.782 34.9312 115.871 34.0357 113.961C33.7772 113.409 34.6502 113.045 34.9084 113.597C35.8667 115.64 36.8247 117.685 37.783 119.729C38.9147 119.748 40.045 119.718 41.1196 119.75C42.0744 119.78 43.0759 119.886 44.0517 120.099C43.4781 119.155 42.9044 118.211 42.3307 117.267C42.0183 116.753 42.7639 116.169 43.0808 116.69C43.8457 117.95 44.6106 119.208 45.376 120.467C47.251 121.115 48.88 122.273 49.6566 124.249C49.8788 124.815 49.007 125.182 48.7839 124.613C48.133 122.956 46.8155 121.983 45.2736 121.418C43.6424 122.266 42.0115 123.113 40.3803 123.96C39.8407 124.24 39.478 123.366 40.0162 123.087C41.3297 122.405 42.6427 121.723 43.9561 121.041C42.8007 120.786 41.5936 120.695 40.4894 120.678C39.5418 120.663 38.5645 120.675 37.586 120.65C35.2316 121.548 32.8767 122.446 30.5223 123.343C29.9549 123.56 29.5872 122.688 30.1582 122.471C31.8829 121.814 33.607 121.156 35.3312 120.499C33.6649 120.291 32.0646 119.822 30.6843 118.756C29.6779 117.978 28.9117 116.954 28.1683 115.91C27.7437 116.062 27.2351 116.035 26.7952 116.064C26.191 116.104 25.5868 116.143 24.9825 116.183C23.7454 116.263 22.5078 116.344 21.2707 116.425C20.666 116.465 20.5314 115.528 21.1396 115.489C23.2112 115.354 25.2833 115.223 27.3549 115.083C27.3976 115.08 27.4851 115.082 27.5767 115.08C26.7224 113.89 25.8242 112.751 24.557 112.002C23.0348 111.102 21.3048 111.188 19.5743 111.307C18.0629 112.327 16.552 113.348 15.0406 114.367C14.5392 114.705 13.9579 113.958 14.4642 113.617Z" fill="#57D3D3"/>
<path d="M136.563 101.333H34.9995V173.928H136.563V101.333Z" fill="#9090BF"/>
<path d="M136.563 101.36H37.543V173.928H136.563V101.36Z" fill="#D5D4E8"/>
<path d="M134.837 105.248H39.2695V171.808H134.837V105.248Z" fill="#D5EFEE"/>
<path d="M85.2148 104.705C85.9558 104.705 86.5565 104.104 86.5565 103.363C86.5565 102.622 85.9558 102.021 85.2148 102.021C84.4738 102.021 83.873 102.622 83.873 103.363C83.873 104.104 84.4738 104.705 85.2148 104.705Z" fill="#9090BF"/>
<path d="M134.837 117.783V137.597C130.761 138.344 126.804 140.189 123.441 142.454C116.272 147.289 110.64 154.025 103.51 158.909C99.996 161.319 96.1553 163.182 91.9735 164.081C87.5335 165.038 82.9414 164.973 78.4485 164.503C68.8589 163.505 59.4017 160.48 49.6793 161.224C46.1537 161.493 42.5182 162.366 39.27 163.937V113.135C43.1902 114.834 46.7839 117.256 50.1879 119.825C58.7378 126.277 67.0297 134.443 78.1145 135.969C89.4727 137.537 100.391 132.254 110.231 127.263C115.081 124.8 119.935 122.292 125.05 120.41C128.17 119.263 131.483 118.265 134.837 117.783Z" fill="#B3E8E4"/>
<path d="M69.8281 173.928C69.8281 173.928 64.8364 176.681 64.8364 191.681H124.36V187.338H91.9331C91.9331 187.338 90.9922 180.857 95.908 173.927L69.8281 173.928Z" fill="#D5D4E8"/>
<path d="M95.9082 173.928L65.3906 183.853C65.3906 183.853 66.2924 176.511 69.8279 173.928H95.9082Z" fill="#9090BF"/>
<path d="M124.36 187.338H64.9146V188.555H124.36V187.338Z" fill="#9090BF"/>
<path d="M63.1808 111.64V129.488H43.0854V114.73H50.9141L51.6475 111.64H63.1808Z" fill="#E8428D"/>
<path d="M63.1821 129.487H43.085L45.2405 114.73H65.3372L63.1821 129.487Z" fill="#F995CC"/>
<path d="M63.1808 131.381V149.23H43.0854V134.471H50.9141L51.6475 131.381H63.1808Z" fill="#E8428D"/>
<path d="M63.1821 149.229H43.085L45.2405 134.471H65.3372L63.1821 149.229Z" fill="#F995CC"/>
<path d="M63.8205 151.828V169.677H43.7251V154.919H51.5537L52.2872 151.828H63.8205Z" fill="#E8428D"/>
<path d="M63.8213 169.676H43.7246L45.8802 154.919H65.9769L63.8213 169.676Z" fill="#F995CC"/>
<path d="M86.4338 149.565H74.1284V167.838H86.4338V149.565Z" fill="#D5D4E8"/>
<path d="M87.5519 148.595H75.2466V166.869H87.5519V148.595Z" fill="#C4C4E8"/>
<path d="M88.9821 147.395H76.6768V165.669H88.9821V147.395Z" fill="#E3E3FF"/>
<path d="M87.1652 150.481H78.5551C77.9774 150.481 78.0591 151.376 78.6332 151.376H87.2433C87.8211 151.376 87.7394 150.481 87.1652 150.481Z" fill="#C4C4E8"/>
<path d="M87.1652 152.868H78.5551C77.9774 152.868 78.0591 153.762 78.6332 153.762H87.2433C87.8211 153.762 87.7394 152.868 87.1652 152.868Z" fill="#C4C4E8"/>
<path d="M87.1652 155.252H78.5551C77.9774 155.252 78.0591 156.146 78.6332 156.146H87.2433C87.8211 156.146 87.7394 155.252 87.1652 155.252Z" fill="#C4C4E8"/>
<path d="M87.1652 157.639H78.5551C77.9774 157.639 78.0591 158.533 78.6332 158.533H87.2433C87.8211 158.533 87.7394 157.639 87.1652 157.639Z" fill="#C4C4E8"/>
<path d="M87.2346 159.692H78.6245C78.0467 159.692 78.1284 160.586 78.7026 160.586H87.3127C87.8904 160.587 87.8091 159.692 87.2346 159.692Z" fill="#C4C4E8"/>
<path d="M87.5627 162.079H78.9526C78.3749 162.079 78.4566 162.973 79.0307 162.973H87.6408C88.2185 162.973 88.1368 162.079 87.5627 162.079Z" fill="#C4C4E8"/>
<path d="M105.51 149.565H93.2051V167.838H105.51V149.565Z" fill="#D5D4E8"/>
<path d="M106.629 148.595H94.3232V166.869H106.629V148.595Z" fill="#C4C4E8"/>
<path d="M108.059 147.395H95.7534V165.669H108.059V147.395Z" fill="#E3E3FF"/>
<path d="M106.242 150.481H97.6313C97.0536 150.481 97.1353 151.376 97.7094 151.376H106.32C106.898 151.376 106.816 150.481 106.242 150.481Z" fill="#C4C4E8"/>
<path d="M106.242 152.868H97.6313C97.0536 152.868 97.1353 153.762 97.7094 153.762H106.32C106.898 153.762 106.816 152.868 106.242 152.868Z" fill="#C4C4E8"/>
<path d="M106.242 155.252H97.6313C97.0536 155.252 97.1353 156.146 97.7094 156.146H106.32C106.898 156.146 106.816 155.252 106.242 155.252Z" fill="#C4C4E8"/>
<path d="M106.242 157.639H97.6313C97.0536 157.639 97.1353 158.533 97.7094 158.533H106.32C106.898 158.533 106.816 157.639 106.242 157.639Z" fill="#C4C4E8"/>
<path d="M106.311 159.692H97.7011C97.1234 159.692 97.2051 160.586 97.7792 160.586H106.389C106.967 160.587 106.885 159.692 106.311 159.692Z" fill="#C4C4E8"/>
<path d="M106.639 162.079H98.0292C97.4515 162.079 97.5332 162.973 98.1073 162.973H106.717C107.295 162.973 107.213 162.079 106.639 162.079Z" fill="#C4C4E8"/>
<path d="M86.2775 128.294H73.9722V146.568H86.2775V128.294Z" fill="#D5D4E8"/>
<path d="M87.3957 127.325H75.0903V145.598H87.3957V127.325Z" fill="#C4C4E8"/>
<path d="M88.8259 126.125H76.5205V144.398H88.8259V126.125Z" fill="#E3E3FF"/>
<path d="M87.009 129.211H78.3989C77.8211 129.211 77.9028 130.105 78.477 130.105H87.0871C87.6648 130.105 87.5836 129.211 87.009 129.211Z" fill="#C4C4E8"/>
<path d="M87.009 131.597H78.3989C77.8211 131.597 77.9028 132.491 78.477 132.491H87.0871C87.6648 132.492 87.5836 131.597 87.009 131.597Z" fill="#C4C4E8"/>
<path d="M87.009 133.981H78.3989C77.8211 133.981 77.9028 134.876 78.477 134.876H87.0871C87.6648 134.876 87.5836 133.981 87.009 133.981Z" fill="#C4C4E8"/>
<path d="M87.009 136.368H78.3989C77.8211 136.368 77.9028 137.262 78.477 137.262H87.0871C87.6648 137.262 87.5836 136.368 87.009 136.368Z" fill="#C4C4E8"/>
<path d="M87.0788 138.422H78.4687C77.891 138.422 77.9727 139.316 78.5468 139.316H87.1569C87.7351 139.316 87.6534 138.422 87.0788 138.422Z" fill="#C4C4E8"/>
<path d="M87.4069 140.808H78.7968C78.2191 140.808 78.3008 141.703 78.8749 141.703H87.485C88.0628 141.703 87.9811 140.808 87.4069 140.808Z" fill="#C4C4E8"/>
<path d="M107.051 66.8133V90.3526L103.168 88.3178L100.45 86.8925V66.8133C100.45 60.0648 94.9593 54.5704 88.2067 54.5704C87.5463 54.5704 86.8981 54.6247 86.2692 54.7217C80.4369 55.6576 75.9637 60.7246 75.9637 66.8133V85.9454L72.0808 87.9802L69.3628 89.4054V66.8138C69.3628 57.0792 76.7834 49.045 86.2657 48.0705C86.9026 48.0045 87.5508 47.9695 88.2071 47.9695C98.5971 47.969 107.051 56.4225 107.051 66.8133Z" fill="#E5E5E5"/>
<path d="M69.3629 66.8133V89.4049L72.0809 87.9797V89.8282L65.48 93.2878V66.8133C65.48 56.4224 73.9334 47.969 84.3243 47.969C84.9806 47.969 85.6288 48.004 86.2657 48.07C76.783 49.0445 69.3629 57.0787 69.3629 66.8133Z" fill="#CECECE"/>
<path d="M103.167 88.3177V90.3525L96.5665 86.893V66.8138C96.5665 60.7251 92.0974 55.658 86.269 54.7221C86.8979 54.6251 87.5466 54.5708 88.2064 54.5708C94.9591 54.5708 100.449 60.0652 100.449 66.8138V86.893L103.167 88.3177Z" fill="#CECECE"/>
<path d="M109.457 84.1839V101.435C109.457 110.166 101.391 118.124 89.3873 121.235C89.1763 121.289 88.9608 121.343 88.7454 121.397C88.5299 121.343 88.3189 121.293 88.1124 121.24C87.87 121.177 87.6321 121.114 87.3942 121.042C75.786 117.806 68.0337 109.99 68.0337 101.435V84.1839L87.3987 74.0301L88.7454 73.3253L109.457 84.1839Z" fill="#57D3D3"/>
<path d="M88.7454 73.3253L71.6742 86.7111V103.93C71.6742 103.93 71.7325 112.652 88.1124 121.24C87.87 121.177 87.6321 121.114 87.3942 121.042C75.786 117.806 68.0337 109.99 68.0337 101.435V84.1839L87.3987 74.0301L88.7454 73.3253Z" fill="#0DBAAD"/>
<path d="M87.4667 82.2897C90.591 82.6488 93.0239 85.3062 93.0239 88.5292C93.0239 90.3921 92.2114 92.0709 90.9186 93.2201C90.6224 93.4849 90.2992 93.7228 89.9535 93.9293L94.3257 112.168H82.5693L86.5959 94.2795C84.2437 93.3727 82.5693 91.0924 82.5693 88.417C82.5693 85.4229 84.6656 82.9226 87.4667 82.2897Z" fill="#211E5E"/>
<path d="M90.9187 93.2201C92.2115 92.071 93.024 90.3921 93.024 88.5292C93.024 85.3062 90.5911 82.6488 87.4668 82.2897C87.9112 82.1909 88.378 82.1371 88.8539 82.1371C92.3193 82.1371 95.1338 84.9471 95.1338 88.417C95.1338 90.7108 93.9038 92.7218 92.0634 93.8171L90.9187 93.2201Z" fill="#433C85"/>
<path d="M92.0634 93.817L96.4625 112.168H94.3258L89.9536 93.9292C90.2993 93.7227 90.6225 93.4848 90.9187 93.22L92.0634 93.817Z" fill="#433C85"/>
<path d="M110.231 80.0286L102.599 76.029L88.7468 68.766L87.4001 69.4707L74.2926 76.3432L66.6615 80.3473L63.9951 81.7433V101.436C63.9951 112.039 73.2781 121.569 87.1039 125.151C87.2026 125.178 87.3014 125.2 87.4001 125.227C87.6829 125.299 87.9702 125.371 88.2575 125.443L88.7423 125.564L89.2271 125.443C89.6221 125.344 90.0126 125.25 90.3942 125.151C104.215 121.569 113.498 112.039 113.498 101.436V81.7433L110.231 80.0286ZM109.458 101.436C109.458 110.167 101.392 118.126 89.3887 121.236C89.1777 121.29 88.9622 121.344 88.7468 121.398C88.5313 121.344 88.3203 121.295 88.1138 121.241C87.8714 121.178 87.6335 121.115 87.3956 121.043C75.7874 117.807 68.0351 109.992 68.0351 101.436V84.1853L74.2926 80.9039L87.4001 74.0314L88.7468 73.3267L102.599 80.5897L109.458 84.1853V101.436Z" fill="#FFD05A"/>
<path d="M88.2579 125.443L88.7427 125.564C88.4599 125.636 86.0494 125.564 86.0494 125.564L85.5646 125.443C85.1741 125.344 84.788 125.25 84.411 125.151C70.5852 121.569 61.3022 112.039 61.3022 101.436V81.7433L66.662 78.9333L74.293 74.9337L86.0539 68.766H88.7472L87.4006 69.4707L74.293 76.3432L66.662 80.3473L63.9956 81.7433V101.436C63.9956 112.039 73.2786 121.569 87.1043 125.151C87.2031 125.178 87.3018 125.2 87.4006 125.227C87.6834 125.299 87.9707 125.371 88.2579 125.443Z" fill="#EEBD2C"/>
<mask id="mask0_222_271" style="mask-type:luminance" maskUnits="userSpaceOnUse" x="103" y="129" width="45" height="43">
<path d="M147.796 129.488H103.895V171.808H147.796V129.488Z" fill="white"/>
</mask>
<g mask="url(#mask0_222_271)">
<path d="M143.528 156.166C143.076 158.345 144.385 160.313 144.278 162.47C144.183 164.339 142.831 165.737 141.221 166.527C139.229 167.503 136.95 167.463 134.829 167.965C132.886 168.427 131.114 169.388 130.359 171.331C129.976 172.313 129.832 173.366 129.591 174.388C129.37 175.331 129.049 176.249 128.596 177.105C127.727 178.742 126.42 180.153 124.747 180.979C123.107 181.787 121.13 181.934 119.398 181.349C117.734 180.786 116.421 179.51 115.876 177.83C115.494 176.649 115.497 175.358 115.947 174.22C116.61 170.603 120.919 169.284 123.557 167.252C124.334 166.649 125.05 165.93 125.509 165.052C126.035 164.042 126.182 162.901 126.173 161.775C126.161 159.804 125.757 157.84 126.121 155.875C126.442 154.164 127.348 152.625 129.037 151.986C130.003 151.619 131.05 151.551 132.05 151.297C133.027 151.049 133.89 150.569 134.658 149.92C137.571 147.457 139.146 142.686 143.504 142.402C145.282 142.285 146.946 143.166 147.555 144.896C148.213 146.75 147.601 148.705 146.662 150.339C145.57 152.238 143.987 153.966 143.528 156.166Z" fill="#57D3D3"/>
<path d="M145.693 144.96C142.836 145.503 140.338 147.512 139.248 150.222C139.158 150.447 139.083 150.675 139.016 150.905C138.863 150.394 138.711 149.883 138.559 149.372C138.495 149.16 138.23 149.058 138.033 149.131C137.814 149.213 137.728 149.445 137.792 149.657L138.672 152.612C138.583 153.319 138.538 154.036 138.487 154.75C138.376 156.285 138.221 157.95 137.197 159.18C136.546 159.963 135.653 160.443 134.72 160.819C134.655 160.722 134.656 160.554 134.649 160.448C134.635 160.244 134.626 160.04 134.615 159.837L134.539 158.474C134.49 157.604 134.442 156.734 134.394 155.864C134.365 155.338 133.55 155.409 133.579 155.935C133.633 156.919 133.688 157.903 133.743 158.886C133.77 159.378 133.796 159.87 133.825 160.362C133.839 160.612 133.86 160.878 133.955 161.109C133.819 161.158 133.682 161.205 133.547 161.253C132.186 161.724 130.768 162.172 129.621 163.079C128.759 163.761 128.115 164.598 127.609 165.521C127.565 165.298 127.529 165.073 127.486 164.855C127.401 164.431 127.316 164.007 127.231 163.584L126.712 160.984C126.668 160.765 126.506 160.594 126.269 160.612C126.067 160.627 125.853 160.838 125.896 161.055L126.474 163.943C126.574 164.444 126.674 164.945 126.775 165.445C126.851 165.828 126.903 166.234 127.101 166.577C126.432 168.167 126.06 169.921 125.67 171.562C125.257 173.299 124.763 175.111 123.703 176.574C123.296 175.018 122.888 173.462 122.481 171.906C122.348 171.397 121.581 171.685 121.714 172.191C122.164 173.909 122.613 175.627 123.063 177.345C121.909 178.535 120.3 179.34 118.616 179.008C118.098 178.906 117.951 179.711 118.467 179.813C120.506 180.215 122.306 179.301 123.644 177.882C123.651 177.88 123.659 177.881 123.666 177.879C125.21 177.5 126.753 177.119 128.297 176.74C128.513 176.686 128.606 176.404 128.537 176.214C128.456 175.986 128.224 175.92 128.011 175.972L124.481 176.842C124.905 176.23 125.258 175.573 125.521 174.913C126.516 172.414 126.731 169.589 127.753 167.099C128.252 167.256 128.872 167.148 129.375 167.111C130.365 167.038 131.355 166.965 132.345 166.891C132.87 166.852 132.799 166.037 132.273 166.076C131.42 166.14 130.565 166.202 129.712 166.266C129.294 166.297 128.876 166.335 128.458 166.358C128.321 166.366 128.199 166.366 128.092 166.343C128.289 165.95 128.509 165.567 128.764 165.199C129.66 163.901 130.882 163.105 132.337 162.549C133.121 162.25 133.928 162 134.714 161.7C134.915 161.737 135.127 161.736 135.333 161.733C135.835 161.727 136.337 161.719 136.839 161.712L139.851 161.669C140.378 161.662 140.304 160.846 139.78 160.854C138.892 160.867 138.003 160.879 137.115 160.892C136.877 160.895 136.639 160.898 136.401 160.902C137.606 160.175 138.445 159.079 138.855 157.73C139.322 156.196 139.272 154.568 139.443 152.988C139.445 152.964 139.45 152.941 139.452 152.918C140.489 152.438 141.526 151.959 142.562 151.48C142.763 151.387 142.884 151.172 142.803 150.954C142.731 150.758 142.478 150.62 142.277 150.713C141.389 151.124 140.501 151.534 139.613 151.945C139.897 150.605 140.451 149.379 141.386 148.315C142.522 147.023 144.071 146.099 145.766 145.776C146.277 145.678 146.211 144.861 145.693 144.96Z" fill="#544FC9"/>
<path d="M127.233 157.062C126.896 158.023 126.911 159.002 127.116 159.988C127.48 161.747 128.359 163.449 128.227 165.285C128.114 166.83 127.138 167.983 125.904 168.825C124.708 169.642 123.328 170.211 122.239 171.184C121.618 171.741 121.18 172.424 120.972 173.234C120.727 174.208 120.727 175.229 120.446 176.193C119.966 177.843 118.583 179.109 116.89 179.428C115.504 179.688 114.06 179.207 113.038 178.265C111.86 177.601 110.875 176.606 110.25 175.395C109.397 173.736 109.219 171.738 109.788 169.96C110.376 168.118 111.909 166.561 112.001 164.569C112.083 162.782 111.083 161.141 110.51 159.51C109.966 157.962 109.828 156.353 110.77 154.93C111.642 153.611 113.047 152.787 114.048 151.582C114.589 150.93 114.935 150.187 115.005 149.333C115.091 148.341 114.834 147.338 114.623 146.377C114.225 144.584 113.974 142.775 115.03 141.151C115.936 139.761 117.53 138.819 119.21 138.871C120.854 138.923 122.46 139.844 123.317 141.252C123.822 142.084 123.956 143.02 124.192 143.95C124.409 144.816 124.783 145.532 125.471 146.117C126.649 147.117 128.252 147.659 129.136 148.984C130.275 150.691 129.504 152.778 128.598 154.394C128.108 155.263 127.563 156.116 127.233 157.062Z" fill="#544FC9"/>
<path d="M123.945 147.143L120.811 148.534C121.024 148.203 121.221 147.867 121.382 147.518C121.936 146.321 122.07 144.986 121.568 143.745C121.073 142.521 120.074 141.518 118.818 141.091C118.773 141.076 118.731 141.076 118.69 141.074C118.652 141.063 118.614 141.05 118.569 141.05C118.26 141.05 118.163 141.33 118.237 141.562C118.252 141.673 118.316 141.774 118.459 141.826C118.462 141.827 118.464 141.829 118.467 141.831L118.468 141.831C119.649 142.232 120.553 143.172 120.921 144.365C121.288 145.559 120.924 146.737 120.321 147.781C120.123 148.125 119.904 148.458 119.679 148.787C119.28 147.972 118.882 147.157 118.485 146.341C118.256 145.873 117.486 146.152 117.717 146.626L119.145 149.55C118.222 150.86 117.337 152.175 117.311 153.875C117.294 154.956 117.592 155.963 117.971 156.951C117.758 156.768 117.545 156.585 117.332 156.402C116.636 155.804 115.94 155.206 115.244 154.609C114.843 154.265 114.318 154.892 114.717 155.236C115.508 155.914 116.298 156.593 117.088 157.271C117.469 157.598 117.838 157.961 118.245 158.254C118.346 158.326 118.454 158.377 118.564 158.409C118.961 159.378 119.329 160.354 119.444 161.393C119.64 163.148 119.019 164.747 118.182 166.259C117.192 164.725 116.202 163.191 115.211 161.657C114.925 161.214 114.257 161.687 114.543 162.13C115.602 163.771 116.662 165.412 117.721 167.054C117.216 167.893 116.675 168.708 116.205 169.512C115.788 170.225 115.406 171.009 115.114 171.823C114.685 170.968 114.256 170.114 113.827 169.26C113.593 168.795 112.823 169.074 113.06 169.545C113.632 170.685 114.204 171.824 114.777 172.963C114.391 174.636 114.492 176.363 115.586 177.839C115.899 178.262 116.568 177.791 116.254 177.366C115.337 176.128 115.228 174.715 115.521 173.324C116.892 172.517 118.262 171.709 119.633 170.902C120.086 170.635 119.612 169.968 119.16 170.234C118.056 170.884 116.953 171.534 115.85 172.184C116.193 171.22 116.681 170.293 117.175 169.475C117.599 168.773 118.057 168.061 118.488 167.333C120.228 166.018 121.967 164.703 123.706 163.387C124.126 163.071 123.655 162.401 123.233 162.72C121.959 163.683 120.685 164.646 119.411 165.609C120.024 164.291 120.415 162.903 120.267 161.4C120.158 160.305 119.759 159.273 119.334 158.247C119.641 158.006 119.855 157.62 120.078 157.311C120.384 156.886 120.691 156.461 120.997 156.036C121.625 155.165 122.252 154.294 122.88 153.424C123.186 152.999 122.561 152.47 122.253 152.898C121.203 154.355 120.156 155.816 119.102 157.271C119.08 157.301 119.042 157.366 118.998 157.433C118.517 156.26 118.094 155.078 118.126 153.804C118.165 152.274 119.023 151.045 119.904 149.83C121.346 149.19 122.788 148.55 124.231 147.909C124.709 147.697 124.428 146.928 123.945 147.143Z" fill="#7979E2"/>
</g>
<path d="M29.415 191.681H212.305C212.305 191.681 209.67 201.226 120.857 201.226C32.0446 201.226 29.415 191.681 29.415 191.681Z" fill="#E3E3FF"/>
<path d="M136.33 47.4901C135.852 47.4901 135.487 48.0018 135.526 48.4485C135.571 48.9598 136.005 49.2524 136.485 49.2524C136.963 49.2524 137.328 48.7407 137.289 48.2941C137.244 47.7828 136.81 47.4901 136.33 47.4901Z" fill="#FFD05A"/>
<path d="M119.669 56.1694C119.19 56.1694 118.826 56.6812 118.865 57.1278C118.91 57.6391 119.343 57.9318 119.823 57.9318C120.302 57.9318 120.666 57.42 120.627 56.9734C120.582 56.4626 120.149 56.1694 119.669 56.1694Z" fill="#FFD05A"/>
<path d="M180.95 69.1925C180.472 69.1925 180.107 69.7042 180.146 70.1509C180.191 70.6622 180.625 70.9548 181.105 70.9548C181.583 70.9548 181.948 70.4431 181.909 69.9965C181.864 69.4852 181.43 69.1925 180.95 69.1925Z" fill="#FFD05A"/>
<path d="M190.729 74.6993C190.251 74.6993 189.886 75.2111 189.925 75.6577C189.97 76.169 190.404 76.4617 190.884 76.4617C191.362 76.4617 191.727 75.9499 191.688 75.5033C191.643 74.9925 191.209 74.6993 190.729 74.6993Z" fill="#FFD05A"/>
<path d="M198.008 83.355C197.529 83.355 197.164 83.8667 197.204 84.3134C197.248 84.8246 197.682 85.1173 198.162 85.1173C198.64 85.1173 199.005 84.6056 198.966 84.1589C198.921 83.6477 198.487 83.355 198.008 83.355Z" fill="#FFD05A"/>
<path d="M189.746 92.4036C189.267 92.4036 188.903 92.9153 188.942 93.3619C188.987 93.8732 189.42 94.1659 189.9 94.1659C190.379 94.1659 190.743 93.6542 190.704 93.2075C190.66 92.6962 190.226 92.4036 189.746 92.4036Z" fill="#FFD05A"/>
<path d="M13.4914 137.541C13.0129 137.541 12.6484 138.052 12.6874 138.499C12.7323 139.01 13.166 139.303 13.6458 139.303C14.1243 139.303 14.4888 138.791 14.4498 138.344C14.4049 137.834 13.9713 137.541 13.4914 137.541Z" fill="#FFD05A"/>
<path d="M17.716 132.55C17.2375 132.55 16.873 133.062 16.912 133.508C16.9569 134.019 17.3906 134.312 17.8704 134.312C18.3489 134.312 18.7134 133.8 18.6744 133.354C18.6295 132.843 18.1959 132.55 17.716 132.55Z" fill="#FFD05A"/>
<path d="M66.2824 50.3333C65.8039 50.3333 65.4394 50.845 65.4785 51.2916C65.5233 51.8029 65.957 52.0956 66.4368 52.0956C66.9153 52.0956 67.2798 51.5839 67.2408 51.1372C67.1959 50.6264 66.7623 50.3333 66.2824 50.3333Z" fill="#FFD05A"/>
<path d="M29.9123 132.883C29.4338 132.883 29.0693 133.394 29.1083 133.841C29.1532 134.352 29.5869 134.645 30.0667 134.645C30.5452 134.645 30.9097 134.133 30.8707 133.687C30.8258 133.175 30.3922 132.883 29.9123 132.883Z" fill="#FFD05A"/>
<path d="M50.009 62.2383C49.5305 62.2383 49.166 62.75 49.205 63.1967C49.2499 63.7079 49.6835 64.0006 50.1634 64.0006C50.6419 64.0006 51.0064 63.4889 50.9673 63.0422C50.9225 62.5314 50.4888 62.2383 50.009 62.2383Z" fill="#FFD05A"/>
<path d="M127.101 50.9429C127.1 50.9429 127.098 50.9429 127.097 50.9429C126.928 50.9416 126.77 50.8599 126.671 50.7229L124.261 47.3886C124.127 47.2032 124.127 46.9527 124.261 46.7674L126.671 43.4299C126.773 43.2885 126.927 43.1951 127.113 43.2099C127.287 43.2135 127.448 43.3028 127.544 43.4483L129.88 46.9891C130.003 47.1758 129.997 47.4196 129.863 47.5987L127.527 50.7301C127.426 50.8635 127.268 50.9429 127.101 50.9429ZM125.346 47.0771L127.108 49.515L128.789 47.2616L127.082 44.6733L125.346 47.0771Z" fill="#FFD05A"/>
<path d="M50.119 55.0628C50.1177 55.0628 50.1163 55.0628 50.115 55.0628C49.9462 55.0614 49.7878 54.9797 49.689 54.8428L47.2794 51.5085C47.1452 51.3231 47.1452 51.0726 47.2794 50.8872L49.689 47.5497C49.7909 47.4083 49.9547 47.3163 50.1303 47.3298C50.3049 47.3334 50.466 47.4227 50.5621 47.5682L52.8981 51.109C53.0211 51.2957 53.0144 51.5395 52.8806 51.7186L50.5446 54.85C50.4445 54.9838 50.2869 55.0628 50.119 55.0628ZM48.3643 51.1974L50.1262 53.6353L51.8073 51.3819L50.0997 48.7936L48.3643 51.1974Z" fill="#FFD05A"/>
<path d="M179.83 96.3577C179.829 96.3577 179.827 96.3577 179.826 96.3577C179.657 96.3564 179.499 96.2747 179.4 96.1378L176.99 92.8035C176.856 92.6181 176.856 92.3676 176.99 92.1817L179.4 88.8438C179.502 88.7024 179.654 88.6176 179.842 88.6239C180.016 88.6275 180.177 88.7168 180.273 88.8622L182.609 92.403C182.732 92.5898 182.726 92.8335 182.592 93.0126L180.256 96.1441C180.155 96.2787 179.997 96.3577 179.83 96.3577ZM178.075 92.4924L179.837 94.9303L181.518 92.6769L179.81 90.0886L178.075 92.4924Z" fill="#FFD05A"/>
<path d="M60.4549 63.4256C60.4536 63.4256 60.4522 63.4256 60.4509 63.4256C60.2821 63.4243 60.1241 63.3426 60.0249 63.2057L57.6148 59.8714C57.4806 59.686 57.4806 59.4355 57.6148 59.2501L60.0249 55.9126C60.1268 55.7712 60.301 55.6846 60.4662 55.6927C60.6408 55.6962 60.8019 55.7856 60.898 55.931L63.2335 59.4718C63.3565 59.6586 63.3498 59.9023 63.216 60.0814L60.8805 63.2129C60.7804 63.3466 60.6228 63.4256 60.4549 63.4256ZM58.6998 59.5603L60.4621 61.9982L62.1428 59.7448L60.4356 57.1565L58.6998 59.5603Z" fill="#FFD05A"/>
<path d="M16.4289 144.547C15.9504 144.547 15.5859 145.059 15.6249 145.506C15.6698 146.017 16.1035 146.31 16.5833 146.31C17.0618 146.31 17.4263 145.798 17.3873 145.351C17.3424 144.84 16.9083 144.547 16.4289 144.547Z" fill="#FFD05A"/>
<path d="M26.7172 149.988C26.7158 149.988 26.7145 149.988 26.7131 149.988C26.5444 149.986 26.3859 149.905 26.2871 149.768L23.8775 146.434C23.7433 146.248 23.7433 145.998 23.8775 145.812L26.2871 142.475C26.389 142.333 26.5529 142.241 26.7284 142.255C26.903 142.258 27.0642 142.348 27.1602 142.493L29.4962 146.034C29.6192 146.221 29.6125 146.465 29.4787 146.644L27.1427 149.775C27.0426 149.908 26.8851 149.988 26.7172 149.988ZM24.9625 146.122L26.7244 148.56L28.4054 146.307L26.6979 143.719L24.9625 146.122Z" fill="#FFD05A"/>
<path d="M61.4174 45.2766C59.9554 45.2766 60.1623 47.5399 61.6154 47.5399C63.0774 47.5404 62.8704 45.2766 61.4174 45.2766Z" fill="#FFD05A"/>
<path d="M184.349 83.1044C182.887 83.1044 183.094 85.3677 184.547 85.3677C186.009 85.3677 185.803 83.1044 184.349 83.1044Z" fill="#FFD05A"/>
<path d="M81.4584 132.829C79.9964 132.829 80.2033 135.092 81.6564 135.092C83.1179 135.092 82.9115 132.829 81.4584 132.829Z" fill="#FFD05A"/>
<path d="M191.027 68.572C189.565 68.572 189.772 70.8353 191.225 70.8353C192.686 70.8353 192.48 68.572 191.027 68.572Z" fill="#FFD05A"/>
<path d="M119.039 40.8743C118.969 40.6872 118.857 40.5292 118.705 40.4003C118.623 40.3478 118.542 40.2957 118.46 40.2432C118.275 40.1561 118.08 40.1216 117.875 40.1386H117.638C117.482 40.1463 117.339 40.1916 117.211 40.2742C117.074 40.3321 116.96 40.4205 116.867 40.5399C116.765 40.6521 116.698 40.7805 116.665 40.9246C116.606 41.0656 116.586 41.2137 116.606 41.369C116.628 41.4682 116.65 41.5674 116.672 41.6662C116.743 41.8534 116.855 42.0114 117.007 42.1402L117.252 42.2973C117.437 42.3844 117.632 42.419 117.837 42.4019H118.074C118.23 42.3943 118.373 42.3489 118.501 42.2663C118.638 42.2084 118.752 42.12 118.845 42.0006C118.946 41.8884 119.014 41.7605 119.047 41.6159C119.106 41.475 119.126 41.3268 119.106 41.1715C119.084 41.0723 119.061 40.9731 119.039 40.8743Z" fill="#FFD05A"/>
<path d="M117.24 98.4174C116.762 98.4174 116.397 98.9291 116.436 99.3757C116.481 99.887 116.915 100.18 117.395 100.18C117.873 100.18 118.238 99.668 118.199 99.2213C118.154 98.7105 117.72 98.4174 117.24 98.4174Z" fill="#FFD05A"/>
<path d="M119.323 111.226C118.845 111.226 118.48 111.738 118.519 112.184C118.564 112.695 118.998 112.988 119.478 112.988C119.956 112.988 120.321 112.476 120.282 112.03C120.237 111.519 119.803 111.226 119.323 111.226Z" fill="#FFD05A"/>
<path d="M117.29 125.349C117.289 125.349 117.287 125.349 117.286 125.349C117.117 125.348 116.959 125.266 116.86 125.129L114.45 121.795C114.316 121.61 114.316 121.359 114.45 121.174L116.86 117.836C116.962 117.694 117.123 117.602 117.301 117.616C117.476 117.619 117.637 117.709 117.733 117.854L120.069 121.395C120.192 121.582 120.185 121.825 120.051 122.005L117.715 125.136C117.615 125.27 117.457 125.349 117.29 125.349ZM115.535 121.484L117.297 123.922L118.978 121.668L117.271 119.08L115.535 121.484Z" fill="#FFD05A"/>
<path d="M175.921 44.2396C174.459 44.2396 174.666 46.5029 176.119 46.5029C177.581 46.5029 177.375 44.2396 175.921 44.2396Z" fill="#FFD05A"/>
<path d="M128.083 108.779C128.012 108.592 127.901 108.435 127.748 108.305C127.666 108.253 127.585 108.201 127.503 108.148C127.318 108.061 127.123 108.027 126.918 108.044H126.681C126.525 108.051 126.382 108.097 126.254 108.179C126.118 108.237 126.003 108.326 125.91 108.445C125.809 108.557 125.741 108.686 125.708 108.83C125.649 108.971 125.629 109.119 125.649 109.274C125.671 109.373 125.693 109.472 125.716 109.571C125.786 109.758 125.898 109.916 126.051 110.045C126.132 110.098 126.214 110.15 126.295 110.202C126.481 110.289 126.676 110.324 126.88 110.307H127.117C127.274 110.299 127.416 110.254 127.545 110.171C127.681 110.113 127.796 110.025 127.889 109.906C127.99 109.793 128.057 109.665 128.091 109.521C128.15 109.38 128.17 109.232 128.15 109.077C128.127 108.977 128.105 108.879 128.083 108.779Z" fill="#FFD05A"/>
<path d="M176.276 104.318C176.245 104.345 176.227 104.363 176.227 104.363C175.131 104.695 174.072 104.987 173.048 105.238C158.303 108.87 151.192 104.457 151.192 104.457C151.188 104.452 151.188 104.444 151.188 104.439V104.435C150.694 103.263 151.448 102.486 151.964 102.118C152.198 101.948 152.382 101.862 152.382 101.862C152.391 101.674 152.404 101.472 152.409 101.27C152.422 101.09 152.431 100.911 152.445 100.727C151.004 100.965 149.549 101.081 148.09 101.081C146.169 101.081 144.243 100.879 142.354 100.457L142.434 100.085L143.417 95.6633C143.458 95.6722 143.489 95.6767 143.53 95.6857C146.613 96.359 149.877 96.3007 152.988 95.5959C153.1 94.752 153.221 93.9081 153.347 93.0777C154.034 88.4631 154.828 84.3693 154.828 84.3693C154.828 84.3693 154.815 84.3648 154.783 84.3558C154.312 84.2481 150.555 83.2605 150.357 80.0554C146.609 82.8565 142.484 85.1234 138.129 86.8022C132.384 89.0152 126.234 90.2003 120.026 90.2003C119.662 90.2003 119.299 90.1958 118.935 90.1868L119.047 85.2805C132.388 85.5813 145.509 79.7951 154.307 69.7714C154.069 69.336 153.827 68.5729 154.55 67.9759C155.636 67.0826 163.168 67.4327 163.168 67.4327C163.061 68.3215 162.89 69.2013 162.643 70.0587C164.547 70.3909 166.607 69.547 167.734 67.9759H167.747C167.77 67.7739 167.788 67.5674 167.796 67.3654H167.819C167.819 67.3654 172.766 67.4686 173.91 68.344C175.055 69.2193 174.216 70.4403 174.216 70.4403C174.216 70.4403 175.068 72.77 175.127 74.4354C175.172 75.6204 174.907 77.4339 174.48 79.4854C174.445 79.6784 174.4 79.8714 174.359 80.0644C173.098 85.9538 170.719 93.3964 170.719 93.3964L175.791 102.006C177.232 103.258 176.487 104.125 176.276 104.318Z" fill="#F973B7"/>
<path d="M156.212 70.5351C155.971 70.5018 155.735 70.6486 155.689 70.8955C155.604 71.3525 155.519 71.8099 155.434 72.2669C155.391 72.4976 155.554 72.7566 155.794 72.7898C156.036 72.823 156.271 72.6763 156.317 72.4294C156.402 71.9724 156.487 71.515 156.572 71.058C156.615 70.8273 156.452 70.5683 156.212 70.5351Z" fill="#E8428D"/>
<path d="M159.855 70.7773C159.793 70.6893 159.679 70.6103 159.57 70.5951C159.454 70.5789 159.326 70.596 159.23 70.6705C159.142 70.7387 159.059 70.8406 159.047 70.9555C159.006 71.3716 158.964 71.7873 158.922 72.2034C158.91 72.3251 158.924 72.4413 158.997 72.5441C159.06 72.6321 159.174 72.7111 159.282 72.7264C159.399 72.7425 159.527 72.7255 159.623 72.651C159.711 72.5827 159.794 72.4808 159.805 72.3659C159.847 71.9498 159.889 71.5341 159.931 71.118C159.943 70.9964 159.928 70.8801 159.855 70.7773Z" fill="#E8428D"/>
<path d="M163.539 71.0894C163.477 71.0015 163.363 70.9225 163.254 70.9072C163.138 70.891 163.01 70.9081 162.914 70.9826C162.827 71.0495 162.739 71.1536 162.731 71.2677C162.704 71.6622 162.677 72.0573 162.65 72.4518C162.641 72.5762 162.65 72.6866 162.725 72.7925C162.787 72.8805 162.901 72.9595 163.01 72.9748C163.127 72.9909 163.255 72.9739 163.351 72.8994C163.437 72.8325 163.525 72.7283 163.533 72.6143C163.56 72.2197 163.587 71.8247 163.615 71.4302C163.623 71.3058 163.614 71.1954 163.539 71.0894Z" fill="#E8428D"/>
<path d="M167.021 71.0888C166.959 71.0009 166.845 70.9219 166.736 70.9066C166.62 70.8904 166.492 70.9075 166.396 70.982C166.31 71.048 166.219 71.1539 166.213 71.267C166.194 71.6621 166.174 72.0575 166.154 72.4526C166.147 72.5787 166.153 72.6855 166.229 72.7933C166.292 72.8812 166.406 72.9602 166.514 72.9755C166.631 72.9917 166.759 72.9746 166.855 72.9001C166.94 72.8337 167.031 72.7282 167.037 72.6151C167.057 72.22 167.077 71.8246 167.097 71.4295C167.103 71.3034 167.097 71.1966 167.021 71.0888Z" fill="#E8428D"/>
<path d="M170.789 71.3142C170.781 71.2549 170.759 71.201 170.722 71.1526C170.659 71.0646 170.545 70.9856 170.436 70.9703C170.32 70.9541 170.192 70.9712 170.096 71.0457C170.01 71.1126 169.922 71.2172 169.914 71.3308C169.892 71.6427 169.871 71.9547 169.85 72.2667C169.836 72.3277 169.839 72.3874 169.857 72.4458C169.865 72.5051 169.888 72.5589 169.925 72.6074C169.988 72.6954 170.102 72.7744 170.21 72.7896C170.327 72.8058 170.455 72.7888 170.551 72.7142C170.637 72.6474 170.725 72.5428 170.733 72.4292C170.754 72.1172 170.776 71.8052 170.797 71.4933C170.81 71.4318 170.808 71.3721 170.789 71.3142Z" fill="#E8428D"/>
<path d="M173.841 71.3173C173.756 71.2463 173.624 71.1992 173.513 71.214C173.398 71.2293 173.281 71.2778 173.208 71.3725C173.131 71.4721 173.107 71.5749 173.105 71.7002C173.1 72.1158 173.094 72.532 173.088 72.9476C173.087 73.0558 173.167 73.1855 173.247 73.2524C173.331 73.3234 173.464 73.3705 173.575 73.3557C173.69 73.3404 173.806 73.2919 173.879 73.1972C173.956 73.0976 173.981 72.9948 173.983 72.8695C173.988 72.4539 173.994 72.0377 173.999 71.6221C174.001 71.5139 173.921 71.3842 173.841 71.3173Z" fill="#E8428D"/>
<path d="M157.506 73.5991C157.271 73.5668 157.022 73.7113 156.983 73.9595L156.763 75.3893C156.727 75.6209 156.879 75.8785 157.124 75.9122C157.359 75.9445 157.608 75.8 157.646 75.5517L157.867 74.122C157.903 73.8904 157.752 73.6328 157.506 73.5991Z" fill="#E8428D"/>
<path d="M161.676 74.4334C161.668 74.3742 161.645 74.3203 161.608 74.2718C161.545 74.1838 161.431 74.1048 161.323 74.0896C161.206 74.0734 161.078 74.0905 160.982 74.165C160.896 74.2314 160.807 74.3365 160.8 74.45C160.779 74.8037 160.758 75.157 160.737 75.5107C160.724 75.5718 160.727 75.6315 160.745 75.6899C160.753 75.7491 160.776 75.803 160.813 75.8515C160.875 75.9394 160.989 76.0184 161.098 76.0337C161.215 76.0499 161.343 76.0328 161.439 75.9583C161.524 75.8919 161.614 75.7868 161.621 75.6732C161.642 75.3195 161.663 74.9662 161.683 74.6125C161.697 74.551 161.694 74.4913 161.676 74.4334Z" fill="#E8428D"/>
<path d="M165.776 74.9312C165.768 74.872 165.745 74.8181 165.708 74.7696C165.645 74.6816 165.531 74.6026 165.423 74.5874C165.306 74.5712 165.178 74.5883 165.082 74.6628C164.996 74.7297 164.907 74.8343 164.9 74.9478C164.879 75.2805 164.858 75.6135 164.837 75.9462C164.823 76.0072 164.826 76.0669 164.844 76.1253C164.852 76.1845 164.875 76.2384 164.912 76.2869C164.974 76.3748 165.088 76.4538 165.197 76.4691C165.314 76.4853 165.442 76.4682 165.538 76.3937C165.624 76.3268 165.713 76.2222 165.72 76.1087C165.741 75.776 165.762 75.443 165.783 75.1103C165.797 75.0493 165.794 74.9896 165.776 74.9312Z" fill="#E8428D"/>
<path d="M169.02 74.4582C168.958 74.3702 168.844 74.2912 168.735 74.276C168.619 74.2598 168.491 74.2769 168.395 74.3514C168.309 74.4178 168.219 74.5233 168.212 74.6364L168.143 75.9463C168.136 76.072 168.142 76.1797 168.219 76.287C168.281 76.375 168.395 76.454 168.504 76.4692C168.62 76.4854 168.748 76.4683 168.844 76.3938C168.93 76.3274 169.02 76.2219 169.027 76.1088L169.096 74.7989C169.102 74.6732 169.096 74.5655 169.02 74.4582Z" fill="#E8428D"/>
<path d="M172.969 74.6208C172.961 74.5615 172.939 74.5077 172.901 74.4592C172.839 74.3712 172.725 74.2922 172.616 74.2769C172.5 74.2608 172.372 74.2778 172.276 74.3524C172.19 74.4188 172.1 74.5238 172.093 74.6374C172.072 74.9911 172.052 75.3444 172.03 75.6981C172.017 75.7592 172.02 75.8189 172.038 75.8772C172.046 75.9365 172.069 75.9904 172.106 76.0388C172.168 76.1268 172.282 76.2058 172.391 76.2211C172.508 76.2372 172.636 76.2202 172.732 76.1457C172.817 76.0792 172.907 75.9742 172.914 75.8606C172.935 75.5069 172.956 75.1536 172.977 74.7999C172.99 74.7384 172.988 74.6792 172.969 74.6208Z" fill="#E8428D"/>
<path d="M154.073 76.4593C153.823 76.4247 153.607 76.5746 153.55 76.8197C153.445 77.2772 153.34 77.7341 153.235 78.1915C153.182 78.4205 153.362 78.6822 153.595 78.7145C153.845 78.7491 154.062 78.5991 154.118 78.354C154.223 77.8966 154.328 77.4397 154.434 76.9822C154.487 76.7529 154.306 76.4911 154.073 76.4593Z" fill="#E8428D"/>
<path d="M159.106 77.6408C159.044 77.5529 158.93 77.4739 158.821 77.4586C158.704 77.4424 158.576 77.4595 158.48 77.534C158.395 77.6 158.303 77.7059 158.298 77.8191C158.277 78.2558 158.256 78.6926 158.236 79.1293C158.23 79.2555 158.234 79.3623 158.311 79.4701C158.373 79.558 158.487 79.637 158.596 79.6523C158.713 79.6685 158.841 79.6514 158.937 79.5769C159.022 79.5109 159.114 79.405 159.119 79.2918C159.14 78.8551 159.161 78.4183 159.181 77.9815C159.187 77.855 159.182 77.7486 159.106 77.6408Z" fill="#E8428D"/>
<path d="M163.79 77.8904C163.728 77.8024 163.614 77.7234 163.505 77.7081C163.388 77.6919 163.26 77.709 163.164 77.7835C163.079 77.8499 162.988 77.9554 162.982 78.0686C162.961 78.4429 162.94 78.8173 162.919 79.1917C162.912 79.3174 162.918 79.4256 162.994 79.5324C163.057 79.6204 163.171 79.6994 163.279 79.7146C163.396 79.7308 163.524 79.7137 163.62 79.6392C163.706 79.5728 163.795 79.4673 163.802 79.3542C163.823 78.9798 163.844 78.6054 163.865 78.2311C163.872 78.1054 163.866 77.9972 163.79 77.8904Z" fill="#E8428D"/>
<path d="M167.847 77.9529C167.785 77.8649 167.671 77.7859 167.562 77.7706C167.446 77.7544 167.318 77.7715 167.222 77.846C167.136 77.912 167.045 78.0184 167.039 78.1311C167.019 78.5678 166.999 79.0046 166.979 79.4414C166.973 79.5679 166.977 79.6739 167.054 79.7821C167.117 79.8701 167.231 79.9491 167.339 79.9643C167.456 79.9805 167.584 79.9634 167.68 79.8889C167.765 79.8229 167.857 79.7165 167.862 79.6039C167.882 79.1671 167.903 78.7303 167.923 78.2936C167.929 78.1674 167.924 78.061 167.847 77.9529Z" fill="#E8428D"/>
<path d="M155.451 80.1416C155.195 80.1066 154.991 80.2583 154.928 80.5021C154.803 80.9806 154.678 81.4586 154.553 81.9372C154.494 82.1647 154.686 82.4287 154.914 82.4601C155.17 82.4951 155.373 82.3434 155.437 82.0996C155.562 81.6211 155.686 81.1431 155.811 80.6646C155.871 80.4365 155.679 80.1726 155.451 80.1416Z" fill="#E8428D"/>
<path d="M161.435 79.927C161.351 79.8561 161.218 79.809 161.107 79.8238C160.992 79.839 160.876 79.8875 160.802 79.9822C160.726 80.0819 160.7 80.1847 160.699 80.3099C160.696 80.7049 160.692 81.1 160.688 81.4954C160.687 81.6041 160.767 81.7329 160.846 81.8002C160.931 81.8711 161.063 81.9183 161.174 81.9035C161.289 81.8882 161.406 81.8397 161.479 81.745C161.555 81.6454 161.581 81.5426 161.582 81.4173C161.586 81.0223 161.59 80.6273 161.593 80.2318C161.595 80.1232 161.515 79.9939 161.435 79.927Z" fill="#E8428D"/>
<path d="M166.415 80.6368C166.353 80.5488 166.239 80.4698 166.13 80.4546C166.014 80.4384 165.886 80.4555 165.79 80.53C165.7 80.5996 165.622 80.6992 165.607 80.815C165.565 81.1476 165.522 81.4803 165.48 81.8129C165.465 81.9323 165.484 82.0535 165.555 82.1536C165.618 82.2416 165.732 82.3206 165.84 82.3358C165.957 82.352 166.085 82.3349 166.181 82.2604C166.271 82.1909 166.349 82.0912 166.363 81.9754L166.491 80.9775C166.506 80.8581 166.486 80.7369 166.415 80.6368Z" fill="#E8428D"/>
<path d="M171.331 78.7003C171.268 78.6123 171.154 78.5333 171.046 78.518C170.786 78.4821 170.591 78.6361 170.523 78.8785C170.376 79.3983 170.23 79.9181 170.084 80.4374C170.054 80.5434 170.098 80.6915 170.159 80.7782C170.222 80.8661 170.336 80.9451 170.444 80.9604C170.704 80.9963 170.898 80.8423 170.967 80.5999C171.113 80.0801 171.26 79.5603 171.406 79.041C171.436 78.935 171.392 78.7869 171.331 78.7003Z" fill="#E8428D"/>
<path d="M172.928 80.2049C172.685 80.1716 172.452 80.3184 172.405 80.5653C172.322 81.0021 172.239 81.4388 172.156 81.8756C172.113 82.1063 172.278 82.3654 172.517 82.3986C172.759 82.4318 172.993 82.285 173.04 82.0381C173.122 81.6013 173.205 81.1646 173.288 80.7278C173.332 80.4971 173.167 80.2381 172.928 80.2049Z" fill="#E8428D"/>
<path d="M171.134 83.4189C171.096 83.3175 171.006 83.2124 170.905 83.1698C170.681 83.0755 170.414 83.1568 170.307 83.3839C170.141 83.7376 169.975 84.0914 169.809 84.4451C169.76 84.5506 169.754 84.6839 169.794 84.7934C169.832 84.8944 169.922 84.9999 170.023 85.0425C170.247 85.1368 170.514 85.0556 170.621 84.8284C170.787 84.4747 170.953 84.121 171.119 83.7673C171.169 83.6618 171.175 83.5284 171.134 83.4189Z" fill="#E8428D"/>
<path d="M168.304 85.1758C168.071 85.0779 167.823 85.1677 167.706 85.3899C167.476 85.8262 167.245 86.2621 167.016 86.6984C166.906 86.9067 167.013 87.2048 167.23 87.2963C167.462 87.3942 167.711 87.3044 167.828 87.0822C168.058 86.6459 168.287 86.21 168.518 85.7737C168.627 85.5654 168.52 85.2669 168.304 85.1758Z" fill="#E8428D"/>
<path d="M170.152 87.3656C170.06 87.2947 169.943 87.2467 169.824 87.2624C169.712 87.2772 169.588 87.3248 169.519 87.4208C169.286 87.7503 169.052 88.0794 168.819 88.4088C168.749 88.5076 168.705 88.6122 168.715 88.7365C168.725 88.8461 168.785 88.9731 168.874 89.0413C168.966 89.1122 169.083 89.1603 169.202 89.1446C169.314 89.1298 169.438 89.0822 169.506 88.9861C169.74 88.6566 169.974 88.3276 170.207 87.9981C170.277 87.8994 170.321 87.7948 170.31 87.6704C170.301 87.5604 170.241 87.4339 170.152 87.3656Z" fill="#E8428D"/>
<path d="M167.13 89.7165C167.038 89.6455 166.921 89.5975 166.803 89.6132C166.686 89.6289 166.574 89.6779 166.498 89.7717C166.228 90.1052 165.959 90.4383 165.689 90.7718C165.616 90.8625 165.575 90.9828 165.586 91.0995C165.595 91.209 165.655 91.336 165.744 91.4043C165.836 91.4752 165.953 91.5232 166.072 91.5075C166.188 91.4918 166.301 91.4429 166.377 91.3491C166.646 91.0155 166.916 90.6825 167.185 90.3489C167.259 90.2583 167.299 90.138 167.289 90.0213C167.279 89.9113 167.219 89.7847 167.13 89.7165Z" fill="#E8428D"/>
<path d="M163.952 91.1035C163.882 91.0133 163.783 90.9375 163.667 90.9213C163.555 90.906 163.415 90.9177 163.327 90.9967C162.964 91.3199 162.602 91.6431 162.241 91.9668C162.15 92.0476 162.081 92.1279 162.058 92.2518C162.038 92.3613 162.064 92.5027 162.134 92.5925C162.204 92.6827 162.303 92.7586 162.419 92.7748C162.531 92.79 162.671 92.7784 162.76 92.6993C163.122 92.3761 163.484 92.0529 163.845 91.7293C163.936 91.6485 164.005 91.5681 164.028 91.4443C164.048 91.3347 164.022 91.1933 163.952 91.1035Z" fill="#E8428D"/>
<path d="M164.188 94.1757C164.18 94.1164 164.158 94.0625 164.12 94.0141C164.05 93.9238 163.952 93.848 163.835 93.8318C163.795 93.83 163.755 93.8282 163.715 93.8264C163.634 93.8336 163.561 93.8605 163.495 93.9072C163.266 94.1146 163.036 94.3224 162.807 94.5298C162.757 94.5626 162.719 94.6043 162.692 94.656C162.656 94.7026 162.634 94.7556 162.625 94.8149C162.611 94.8759 162.614 94.9356 162.632 94.994C162.64 95.0532 162.663 95.1071 162.7 95.1556C162.77 95.2458 162.869 95.3217 162.985 95.3378C163.025 95.3396 163.065 95.3414 163.105 95.3432C163.186 95.336 163.259 95.3091 163.326 95.2624C163.555 95.055 163.784 94.8472 164.014 94.6398C164.063 94.607 164.102 94.5653 164.129 94.5137C164.165 94.467 164.187 94.414 164.196 94.3548C164.209 94.2937 164.207 94.234 164.188 94.1757Z" fill="#E8428D"/>
<path d="M161.299 94.5635C161.229 94.4733 161.131 94.3974 161.014 94.3813C160.894 94.3647 160.774 94.3853 160.674 94.4567C160.382 94.6636 160.09 94.8706 159.798 95.0779C159.706 95.1435 159.637 95.2521 159.616 95.363C159.596 95.4725 159.622 95.6139 159.691 95.7037C159.761 95.7939 159.86 95.8698 159.976 95.8859C160.096 95.9025 160.217 95.8819 160.317 95.8105C160.609 95.6036 160.901 95.3967 161.193 95.1893C161.285 95.1237 161.354 95.0151 161.375 94.9042C161.395 94.7942 161.368 94.6528 161.299 94.5635Z" fill="#E8428D"/>
<path d="M158.47 95.0191C158.425 94.914 158.349 94.8153 158.241 94.7699C158.137 94.7264 157.996 94.7003 157.892 94.7551L156.828 95.3108C156.771 95.3297 156.723 95.3607 156.683 95.4042C156.638 95.4401 156.603 95.485 156.579 95.5398C156.532 95.6403 156.52 95.784 156.564 95.8881C156.609 95.9931 156.685 96.0919 156.793 96.1372C156.897 96.1808 157.038 96.2068 157.142 96.152L158.206 95.5963C158.263 95.5775 158.311 95.5465 158.351 95.503C158.396 95.467 158.431 95.4222 158.455 95.3674C158.502 95.2668 158.514 95.1236 158.47 95.0191Z" fill="#E8428D"/>
<path d="M158.486 97.2976C158.442 97.1926 158.365 97.0938 158.257 97.0485C158.153 97.0049 158.014 96.9798 157.909 97.0336C157.371 97.3088 156.832 97.584 156.294 97.8592C156.186 97.9144 156.098 97.9736 156.045 98.0881C155.997 98.1886 155.985 98.3323 156.03 98.4364C156.074 98.5415 156.151 98.6402 156.259 98.6856C156.362 98.7291 156.502 98.7542 156.607 98.7004C157.145 98.4252 157.683 98.15 158.222 97.8749C158.33 97.8197 158.417 97.7604 158.471 97.6459C158.519 97.5454 158.53 97.4017 158.486 97.2976Z" fill="#E8428D"/>
<path d="M155.541 97.2725C155.496 97.1675 155.42 97.0687 155.312 97.0234C155.2 96.9763 155.08 96.9668 154.964 97.0086C154.672 97.1127 154.381 97.2164 154.09 97.3206C153.985 97.3583 153.889 97.449 153.841 97.5495C153.793 97.6501 153.782 97.7937 153.826 97.8978C153.871 98.0029 153.947 98.1016 154.055 98.147C154.167 98.1941 154.287 98.2035 154.403 98.1618C154.695 98.0576 154.986 97.954 155.277 97.8498C155.382 97.8121 155.479 97.7214 155.526 97.6209C155.574 97.5203 155.585 97.3771 155.541 97.2725Z" fill="#E8428D"/>
<path d="M151.963 96.816C151.568 96.8415 151.173 96.8667 150.778 96.8918C150.544 96.9071 150.339 97.1414 150.37 97.378C150.403 97.624 150.606 97.8022 150.857 97.786C151.252 97.7604 151.646 97.7353 152.041 97.7101C152.275 97.6949 152.481 97.4606 152.449 97.224C152.416 96.978 152.214 96.7998 151.963 96.816Z" fill="#E8428D"/>
<path d="M152.116 99.2386C152.049 99.1524 151.945 99.064 151.831 99.0563C151.54 99.037 151.249 99.0177 150.957 98.9984C150.896 98.985 150.836 98.9877 150.778 99.0061C150.719 99.0142 150.665 99.0366 150.617 99.0739C150.529 99.1362 150.45 99.2503 150.434 99.3589C150.418 99.4756 150.435 99.6035 150.51 99.6996C150.577 99.7858 150.681 99.8742 150.795 99.8819C151.086 99.9012 151.377 99.9205 151.669 99.9398C151.73 99.9532 151.789 99.9505 151.848 99.9321C151.907 99.924 151.961 99.9016 152.009 99.8643C152.097 99.8019 152.176 99.6879 152.192 99.5793C152.208 99.4626 152.191 99.3347 152.116 99.2386Z" fill="#E8428D"/>
<path d="M149.856 98.3332C149.824 98.3125 149.792 98.2919 149.76 98.2712C149.686 98.2367 149.609 98.2232 149.528 98.23H148.655C148.546 98.23 148.418 98.3076 148.35 98.3884C148.279 98.4728 148.232 98.6052 148.247 98.7161C148.262 98.8315 148.311 98.9477 148.405 99.0209C148.438 99.0415 148.47 99.0622 148.502 99.0828C148.575 99.1174 148.652 99.1309 148.733 99.1241H149.607C149.716 99.1241 149.844 99.0465 149.911 98.9657C149.982 98.8813 150.029 98.7489 150.015 98.638C149.999 98.5226 149.951 98.4064 149.856 98.3332Z" fill="#E8428D"/>
<path d="M147.75 97.2245C147.681 97.1347 147.581 97.0571 147.465 97.0423C147.133 96.9996 146.8 96.957 146.468 96.9148C146.348 96.8995 146.227 96.9188 146.127 96.9902C146.039 97.0526 145.96 97.1666 145.945 97.2753C145.928 97.392 145.945 97.5199 146.02 97.616C146.09 97.7057 146.189 97.7834 146.305 97.7982C146.638 97.8408 146.97 97.8835 147.303 97.9257C147.422 97.9409 147.543 97.9216 147.644 97.8503C147.732 97.7879 147.811 97.6739 147.826 97.5652C147.842 97.4485 147.825 97.3206 147.75 97.2245Z" fill="#E8428D"/>
<path d="M146.564 99.3536C146.491 99.2598 146.397 99.197 146.279 99.1714C145.988 99.109 145.697 99.0466 145.405 98.9842C145.294 98.9604 145.157 98.9941 145.065 99.0596C144.977 99.122 144.898 99.236 144.883 99.3447C144.866 99.4614 144.883 99.5893 144.958 99.6854C145.031 99.7792 145.125 99.842 145.243 99.8676C145.534 99.93 145.825 99.9924 146.117 100.055C146.228 100.079 146.365 100.045 146.457 99.9794C146.545 99.917 146.624 99.803 146.639 99.6943C146.656 99.5776 146.639 99.4497 146.564 99.3536Z" fill="#E8428D"/>
<path d="M145.064 97.8137C144.994 97.7239 144.895 97.6472 144.779 97.6315C144.467 97.5902 144.155 97.5489 143.843 97.5076C143.724 97.4919 143.602 97.5121 143.502 97.583C143.414 97.6454 143.335 97.7594 143.32 97.868C143.304 97.9847 143.321 98.1127 143.395 98.2087C143.465 98.2985 143.565 98.3753 143.681 98.391C143.992 98.4323 144.304 98.4736 144.616 98.5149C144.735 98.5306 144.857 98.5104 144.957 98.4395C145.045 98.3771 145.124 98.2631 145.139 98.1544C145.156 98.0377 145.138 97.9093 145.064 97.8137Z" fill="#E8428D"/>
<path d="M156.64 85.82C156.407 85.7877 156.153 85.9318 156.117 86.1805L155.928 87.4908C155.895 87.7229 156.043 87.9797 156.289 88.0138C156.522 88.0456 156.776 87.902 156.812 87.6533L157 86.343C157.034 86.1105 156.887 85.8537 156.64 85.82Z" fill="#E8428D"/>
<path d="M160.104 86.1262C160.042 86.0382 159.928 85.9592 159.819 85.9439C159.702 85.9278 159.575 85.9448 159.478 86.0194C159.393 86.0853 159.302 86.1913 159.296 86.3044C159.276 86.7205 159.254 87.1362 159.234 87.5523C159.228 87.6784 159.233 87.7853 159.309 87.893C159.372 87.981 159.486 88.06 159.594 88.0753C159.711 88.0914 159.839 88.0744 159.935 87.9998C160.02 87.9339 160.111 87.8279 160.117 87.7148L160.18 86.4669C160.186 86.3408 160.181 86.2339 160.104 86.1262Z" fill="#E8428D"/>
<path d="M163.471 85.7518C163.409 85.6638 163.295 85.5848 163.186 85.5696C163.069 85.5534 162.941 85.5704 162.845 85.645C162.76 85.7114 162.669 85.8169 162.663 85.93L162.601 87.1155C162.594 87.2412 162.6 87.3489 162.677 87.4562C162.739 87.5442 162.853 87.6232 162.962 87.6385C163.078 87.6546 163.206 87.6376 163.302 87.5631C163.388 87.4966 163.479 87.3911 163.485 87.278C163.505 86.883 163.526 86.4875 163.547 86.0925C163.553 85.9664 163.547 85.8591 163.471 85.7518Z" fill="#E8428D"/>
<path d="M158.597 88.9332C158.534 88.8452 158.42 88.7662 158.312 88.7509C158.195 88.7348 158.067 88.7518 157.971 88.8264C157.883 88.895 157.801 88.996 157.789 89.1114C157.744 89.5271 157.699 89.9427 157.655 90.3584C157.642 90.4796 157.658 90.5968 157.73 90.6991C157.793 90.7871 157.907 90.8661 158.015 90.8814C158.132 90.8975 158.26 90.8805 158.356 90.806C158.445 90.7373 158.526 90.6363 158.538 90.5209C158.583 90.1052 158.628 89.6896 158.672 89.2739C158.685 89.1523 158.669 89.0351 158.597 88.9332Z" fill="#E8428D"/>
<path d="M161.71 88.6C161.626 88.5291 161.494 88.4819 161.383 88.4967C161.267 88.512 161.151 88.5605 161.078 88.6552C161.002 88.7544 160.975 88.8581 160.975 88.9829V89.9812C160.975 90.0903 161.052 90.2182 161.133 90.286C161.217 90.3569 161.35 90.4041 161.461 90.3892C161.576 90.374 161.692 90.3255 161.766 90.2308C161.842 90.1316 161.869 90.0279 161.869 89.9031V88.9048C161.869 88.7957 161.791 88.6678 161.71 88.6Z" fill="#E8428D"/>
<path d="M155.424 90.8193C155.173 90.7847 154.959 90.9346 154.901 91.1797C154.814 91.5532 154.727 91.9267 154.64 92.3001C154.586 92.5291 154.768 92.7908 155 92.8231C155.251 92.8577 155.466 92.7077 155.523 92.4626L155.785 91.3422C155.838 91.1133 155.656 90.8511 155.424 90.8193Z" fill="#E8428D"/>
<path d="M169.714 94.4873C169.652 94.3993 169.538 94.3203 169.429 94.305C169.312 94.2889 169.184 94.3059 169.088 94.3804C169.003 94.4464 168.911 94.5524 168.906 94.6655C168.885 95.1022 168.865 95.539 168.844 95.9758C168.838 96.1019 168.843 96.2088 168.919 96.3165C168.982 96.4045 169.096 96.4835 169.205 96.4987C169.321 96.5149 169.449 96.4978 169.545 96.4233C169.631 96.3573 169.722 96.2514 169.727 96.1383C169.748 95.7015 169.769 95.2647 169.789 94.828C169.795 94.7014 169.79 94.595 169.714 94.4873Z" fill="#E8428D"/>
<path d="M167.965 97.1698C167.903 97.0818 167.789 97.0028 167.68 96.9875C167.563 96.9714 167.435 96.9884 167.339 97.0629C167.248 97.1334 167.175 97.2313 167.157 97.348C167.115 97.6182 167.074 97.8889 167.032 98.1591C167.014 98.2763 167.038 98.402 167.108 98.4998C167.17 98.5878 167.284 98.6668 167.393 98.6821C167.509 98.6982 167.637 98.6812 167.733 98.6067C167.824 98.5362 167.898 98.4383 167.916 98.3216C167.957 98.0514 167.999 97.7807 168.04 97.5105C168.058 97.3933 168.034 97.2676 167.965 97.1698Z" fill="#E8428D"/>
<path d="M171.861 97.1589C171.838 97.105 171.803 97.0596 171.756 97.0228C171.672 96.9519 171.539 96.9048 171.428 96.9196C171.313 96.9349 171.197 96.9833 171.123 97.0781C171.103 97.1104 171.082 97.1427 171.062 97.1746C171.027 97.2477 171.014 97.3249 171.02 97.4057V98.0921C171.023 98.154 171.041 98.2102 171.074 98.2609C171.097 98.3147 171.132 98.3601 171.179 98.3969C171.263 98.4678 171.395 98.5149 171.506 98.5001C171.622 98.4849 171.738 98.4364 171.811 98.3417C171.832 98.3094 171.852 98.2775 171.873 98.2452C171.908 98.172 171.921 98.0948 171.914 98.014V97.3276C171.912 97.2661 171.894 97.2096 171.861 97.1589Z" fill="#E8428D"/>
<path d="M169.462 99.6031C169.4 99.5151 169.286 99.4361 169.177 99.4209C169.061 99.4047 168.933 99.4218 168.837 99.4963C168.745 99.5672 168.674 99.6646 168.654 99.7813C168.613 100.031 168.571 100.28 168.53 100.53C168.51 100.646 168.536 100.774 168.605 100.871C168.667 100.959 168.781 101.038 168.89 101.053C169.007 101.069 169.135 101.052 169.231 100.978C169.322 100.907 169.393 100.809 169.413 100.693C169.455 100.443 169.496 100.193 169.538 99.9438C169.557 99.8276 169.531 99.6996 169.462 99.6031Z" fill="#E8428D"/>
<path d="M165.612 100.042C165.549 99.9542 165.435 99.8752 165.327 99.86C165.21 99.8438 165.082 99.8609 164.986 99.9354C164.896 100.005 164.819 100.105 164.804 100.22C164.761 100.553 164.718 100.886 164.675 101.218C164.66 101.338 164.68 101.459 164.751 101.559C164.813 101.647 164.927 101.726 165.036 101.741C165.152 101.757 165.28 101.74 165.376 101.666C165.466 101.596 165.543 101.497 165.559 101.381C165.601 101.048 165.644 100.716 165.687 100.383C165.702 100.264 165.683 100.142 165.612 100.042Z" fill="#E8428D"/>
<path d="M162.145 99.8307C162.061 99.7598 161.928 99.7126 161.818 99.7275C161.702 99.7427 161.586 99.7912 161.513 99.8859C161.436 99.9856 161.411 100.088 161.41 100.214C161.401 100.692 161.394 101.17 161.386 101.648C161.384 101.756 161.465 101.886 161.544 101.953C161.629 102.024 161.761 102.071 161.872 102.056C161.987 102.041 162.104 101.993 162.177 101.898C162.253 101.798 162.278 101.696 162.28 101.57C162.288 101.092 162.296 100.614 162.304 100.135C162.306 100.027 162.225 99.8971 162.145 99.8307Z" fill="#E8428D"/>
<path d="M173.781 101.072C173.697 100.615 173.613 100.158 173.529 99.7002C173.507 99.5799 173.467 99.4766 173.371 99.3954C173.286 99.3245 173.154 99.2773 173.043 99.2922C172.821 99.3218 172.59 99.531 172.635 99.7783L172.887 101.151C172.909 101.271 172.949 101.374 173.045 101.455C173.13 101.526 173.262 101.573 173.373 101.559C173.596 101.529 173.826 101.32 173.781 101.072Z" fill="#E8428D"/>
<path d="M159.898 103.192C159.891 102.957 159.642 102.753 159.412 102.784C159.159 102.818 158.996 103.018 159.004 103.27C159.02 103.811 159.036 104.352 159.053 104.893C159.06 105.128 159.308 105.331 159.539 105.301C159.791 105.267 159.954 105.067 159.947 104.815C159.93 104.274 159.914 103.733 159.898 103.192Z" fill="#E8428D"/>
<path d="M164.002 103.379C163.985 103.145 163.755 102.939 163.516 102.971C163.273 103.003 163.089 103.206 163.108 103.457C163.145 103.936 163.181 104.415 163.218 104.893C163.236 105.128 163.466 105.333 163.704 105.301C163.948 105.269 164.132 105.066 164.112 104.815C164.076 104.337 164.039 103.858 164.002 103.379Z" fill="#E8428D"/>
<path d="M167.872 103.192C167.865 103.079 167.8 102.959 167.714 102.887C167.629 102.816 167.497 102.769 167.386 102.784C167.14 102.817 166.962 103.019 166.978 103.27C166.998 103.582 167.018 103.894 167.038 104.206C167.045 104.319 167.11 104.439 167.196 104.511C167.281 104.582 167.413 104.629 167.524 104.614C167.77 104.581 167.948 104.379 167.932 104.128C167.912 103.816 167.892 103.504 167.872 103.192Z" fill="#E8428D"/>
<path d="M171.763 103.574C171.659 103.242 171.555 102.909 171.451 102.576C171.418 102.472 171.319 102.373 171.222 102.327C171.121 102.279 170.978 102.268 170.874 102.312C170.64 102.411 170.534 102.649 170.609 102.889C170.713 103.222 170.817 103.555 170.921 103.888C170.954 103.992 171.054 104.091 171.15 104.137C171.251 104.184 171.394 104.196 171.499 104.152C171.732 104.053 171.838 103.815 171.763 103.574Z" fill="#E8428D"/>
<path d="M175.761 103.198C175.637 102.886 175.512 102.574 175.388 102.262C175.346 102.155 175.264 102.062 175.159 102.013C175.059 101.965 174.915 101.953 174.811 101.998C174.706 102.042 174.607 102.119 174.562 102.227C174.515 102.337 174.501 102.462 174.547 102.575L174.92 103.512C174.962 103.618 175.044 103.711 175.149 103.761C175.249 103.808 175.393 103.82 175.497 103.775C175.602 103.731 175.701 103.655 175.746 103.547C175.792 103.437 175.806 103.312 175.761 103.198Z" fill="#E8428D"/>
<path d="M169.3 51.4771C170.702 51.4771 171.838 50.341 171.838 48.9395C171.838 47.5381 170.702 46.402 169.3 46.402C167.899 46.402 166.763 47.5381 166.763 48.9395C166.763 50.341 167.899 51.4771 169.3 51.4771Z" fill="#F973B7"/>
<path d="M162.926 61.9428C163.052 62.5309 163.141 63.1234 163.204 63.7204C156.897 64.8247 150.196 63.4241 144.863 59.9004C145.949 59.1507 146.793 58.0644 147.26 56.8345C150.218 60.1473 154.666 62.2525 159.645 62.2525C160.771 62.2525 161.871 62.1493 162.926 61.9428Z" fill="#211E5E"/>
<path d="M187.929 51.8563C186.309 54.1816 184.311 56.242 182.058 57.9657C177.856 61.1797 172.748 63.2267 167.473 63.68C167.258 62.7374 166.935 61.8172 166.508 60.9463C166.499 60.9104 166.481 60.8745 166.463 60.8431C168.914 59.7747 171.028 58.1408 172.622 56.1297C173.52 54.9985 174.251 53.7506 174.786 52.4085C174.83 52.395 174.871 52.3815 174.916 52.3591C176.227 51.8563 177.407 51.0034 178.287 49.9127C179.364 48.575 179.997 46.8916 180.069 45.1769C180.114 44.0322 179.822 42.7439 178.852 42.1379C177.905 41.5499 176.599 41.8416 175.742 42.5554C174.889 43.2512 174.377 44.2746 173.933 45.2846C171.8 42.6182 170.53 39.274 170.355 35.8714L170.238 35.7862C169.453 36.9174 168.317 37.7657 167.146 38.484C163.873 40.486 160.102 41.6621 156.273 41.8686C153.342 42.0302 150.384 41.6262 147.605 40.6925C146.883 40.4546 146.169 40.1763 145.478 39.8576L145.442 39.9339C144.216 42.0437 143.512 44.4587 143.494 47.0263C142.681 43.498 143.04 39.7723 144.333 36.3877C145.5 33.3128 147.43 30.5162 149.953 28.4109C150.097 28.2942 150.24 28.1775 150.384 28.0653C156.094 23.5809 164.228 22.5889 171.006 25.1924C171.078 25.2193 171.15 25.2508 171.217 25.2777C171.747 25.4887 172.272 25.7221 172.788 25.978C175.365 27.2708 177.667 29.1426 179.122 31.616C181.052 34.8974 181.326 38.8431 182.116 42.5689C182.897 46.2722 184.526 50.2044 187.929 51.8563Z" fill="#211E5E"/>
<path d="M171.003 25.1938C171.075 25.2202 171.147 25.2503 171.215 25.2768C168.171 27.9805 164.27 29.7141 160.222 30.1333C156.729 30.496 153.141 29.8801 149.954 28.4114C150.098 28.2942 150.241 28.1771 150.385 28.0639C156.094 23.5814 164.229 22.588 171.003 25.1938Z" fill="#433C85"/>
<path d="M143.493 47.0249C142.681 43.498 143.04 39.7705 144.331 36.3872C146.949 37.9884 150.166 38.4453 153.244 38.2604C157.518 38.0001 161.714 36.5762 165.26 34.1782C168.36 32.0824 170.959 29.2427 172.786 25.9797C175.365 27.2712 177.665 29.1444 179.123 31.6178C181.052 34.8955 181.324 38.8458 182.113 42.5693C182.895 46.2739 184.527 50.2049 187.929 51.8554C186.309 54.1816 184.311 56.2433 182.056 57.9657C179.289 56.6819 176.815 54.7521 174.916 52.3618C176.226 51.8559 177.404 51.0061 178.288 49.9149C179.364 48.5781 179.998 46.8939 180.066 45.1796C180.111 44.0353 179.821 42.7475 178.85 42.1397C177.902 41.5508 176.599 41.8452 175.738 42.5549C174.889 43.2534 174.375 44.2768 173.929 45.285C171.799 42.6191 170.527 39.2767 170.353 35.8705L170.236 35.7875C169.45 36.9164 168.317 37.7662 167.143 38.4839C163.873 40.4891 160.1 41.6634 156.271 41.8713C153.341 42.0338 150.384 41.6257 147.604 40.6929C146.879 40.455 146.169 40.1754 145.474 39.8584L145.44 39.9339C144.218 42.0436 143.512 44.4568 143.493 47.0249Z" fill="#433C85"/>
<path d="M180.069 45.177C179.997 46.8917 179.364 48.5751 178.286 49.9128C177.407 51.0035 176.226 51.8564 174.915 52.3592C174.87 52.3816 174.83 52.3951 174.785 52.4086C174.251 53.7507 173.519 54.9986 172.621 56.1298C171.028 58.1409 168.914 59.7748 166.463 60.8432C166.481 60.8746 166.499 60.9105 166.508 60.9464C166.934 61.8173 167.257 62.7375 167.473 63.6801C167.751 64.8876 167.863 66.1311 167.796 67.3655C167.787 67.5675 167.769 67.774 167.747 67.976H167.733C166.606 69.5471 164.546 70.391 162.643 70.0588C162.89 69.2014 163.06 68.3216 163.168 67.4328C163.249 66.755 163.285 66.0772 163.285 65.3949C163.285 64.8383 163.253 64.2772 163.204 63.7205C163.141 63.1235 163.051 62.531 162.926 61.9429C161.871 62.1494 160.771 62.2527 159.644 62.2527C154.666 62.2527 150.218 60.1474 147.259 56.8346C144.907 54.2131 143.493 50.8285 143.493 47.1386V47.0264C143.511 44.4588 144.216 42.0437 145.441 39.934L145.477 39.8577C146.169 40.1764 146.882 40.4547 147.605 40.6926C150.384 41.6263 153.342 42.0303 156.273 41.8687C160.102 41.6622 163.873 40.4861 167.145 38.4841C168.317 37.7658 169.452 36.9175 170.238 35.7863L170.355 35.8715C170.53 39.2741 171.8 42.6183 173.932 45.2847C174.377 44.2747 174.888 43.2513 175.741 42.5555C176.599 41.8417 177.905 41.55 178.852 42.138C179.822 42.744 180.113 44.0323 180.069 45.177Z" fill="#FFBE5F"/>
<path d="M177.71 47.8931C178.099 48.0027 178.213 48.5314 178.08 48.9202C177.853 49.5733 177.125 49.9849 176.434 49.9172C175.746 49.8494 175.138 49.3507 174.859 48.7164C174.583 48.0857 174.617 47.3379 174.87 46.696C175.127 46.054 175.587 45.5064 176.127 45.0723C176.539 44.7401 177.034 44.4569 177.555 44.4192C176.679 44.9781 176.044 45.892 175.825 46.9078C175.772 47.161 175.742 47.429 175.818 47.6781C175.893 47.9272 176.09 48.1539 176.347 48.1993C176.815 48.2787 177.253 47.7612 177.71 47.8931Z" fill="#F7991E"/>
<path d="M166.461 60.8421C165.346 61.3332 164.161 61.7031 162.926 61.941C161.868 62.1488 160.77 62.2543 159.644 62.2543C154.667 62.2543 150.218 60.1472 147.258 56.8353C144.909 54.2107 143.493 50.827 143.493 47.1376C143.493 47.0999 143.493 47.0621 143.493 47.0244C143.512 44.4564 144.218 42.0436 145.442 39.9325L145.476 39.8571C146.171 40.1744 146.88 40.4536 147.606 40.6915C145.948 44.9286 146.379 49.9283 148.742 53.8179C151.14 57.7641 155.468 60.4754 160.067 60.9023C164.663 61.3327 169.421 59.4712 172.507 56.0345L172.624 56.1288C171.03 58.142 168.911 59.7737 166.461 60.8421Z" fill="#F7991E"/>
<path d="M169.301 51.4771C170.702 51.4771 171.838 50.341 171.838 48.9395C171.838 47.5381 170.702 46.402 169.301 46.402C167.899 46.402 166.763 47.5381 166.763 48.9395C166.763 50.341 167.899 51.4771 169.301 51.4771Z" fill="#F973B7"/>
<path d="M164.996 95.1691C169.271 91.7288 172.367 87.0083 173.908 81.8008C173.799 82.4126 170.139 102.008 151.194 104.455C151.19 104.451 151.19 104.444 151.186 104.44V104.436C150.695 103.262 151.446 102.487 151.964 102.117C152.198 101.947 152.383 101.864 152.383 101.864C152.391 101.672 152.402 101.471 152.41 101.268C152.421 101.09 152.432 100.909 152.444 100.728C156.998 99.9915 161.36 98.0959 164.996 95.1691Z" fill="#E8428D"/>
<path d="M169.939 76.8051C169.244 82.413 166.306 87.8131 161.918 91.3441C159.343 93.4134 156.246 94.8638 152.987 95.5964C153.1 94.7543 153.221 93.9086 153.345 93.0777C153.561 93.0436 161.042 91.9146 166.276 84.5582C167.744 82.4996 169.032 79.9504 169.939 76.8051Z" fill="#E8428D"/>
<path d="M163.202 63.72C163.141 63.1235 163.051 62.5305 162.926 61.9415C164.161 61.7036 165.347 61.3337 166.461 60.8427C166.48 60.8768 166.499 60.9104 166.51 60.9445L166.472 60.9634C166.053 62.7872 164.874 64.4149 163.285 65.3966C163.285 64.8378 163.255 64.2789 163.202 63.72Z" fill="#D37B11"/>
<path d="M165.955 52.5383C166.378 53.1842 166.473 53.9958 166.389 54.7625C166.261 55.9633 165.713 57.1187 164.86 57.9761C164.482 58.3576 164.04 58.6786 163.564 58.9313C163.055 57.8324 162.938 56.5522 163.251 55.3815C163.595 54.0977 164.452 52.9607 165.593 52.2734L165.638 52.1562C165.759 52.2703 165.865 52.3987 165.955 52.5383Z" fill="#8E2965"/>
<path d="M160.928 54.1018C161.465 53.5882 162.001 53.0783 162.537 52.5684C162.96 52.1644 163.413 51.7415 163.983 51.6203C164.576 51.4955 165.195 51.7334 165.638 52.1567L165.592 52.2739C164.452 52.9612 163.595 54.0977 163.251 55.382C162.938 56.5527 163.055 57.8329 163.564 58.9318C162.971 59.2451 162.318 59.453 161.65 59.5284C160.717 59.6343 159.716 59.4718 158.969 58.8977C158.225 58.3236 157.801 57.2853 158.119 56.3978C158.394 55.6163 159.142 55.114 159.867 54.7136C160.222 54.517 160.593 54.3244 160.928 54.1018Z" fill="#541638"/>
<path d="M165.592 84.2633H155.898C155.898 84.2633 156.948 81.9561 159.939 82.2164C162.934 82.4808 165.592 84.2633 165.592 84.2633Z" fill="#E8428D"/>
<path d="M162.496 46.9531C163.186 46.9531 163.746 46.2125 163.746 45.2989C163.746 44.3854 163.186 43.6448 162.496 43.6448C161.805 43.6448 161.246 44.3854 161.246 45.2989C161.246 46.2125 161.805 46.9531 162.496 46.9531Z" fill="black"/>
<path d="M155.789 47.8176C156.216 49.2716 156.646 50.7255 157.077 52.1831C155.691 52.6364 154.184 52.7231 152.753 52.4322C152.383 52.3604 152.013 52.2549 151.692 52.0583C151.371 51.8581 151.103 51.5483 151.024 51.1785C150.899 50.6043 151.258 50.019 151.734 49.6792C152.209 49.3353 152.787 49.1769 153.338 48.9879C154.195 48.6903 155.019 48.2975 155.789 47.8176Z" fill="#D37B11"/>
<path d="M217.467 169.891L216.066 172.682C215.296 171.493 215.016 169.99 215.281 168.596L217.467 169.891Z" fill="#FFE9CC"/>
<path d="M216.066 172.682L212.849 179.083C211.557 178.377 210.035 178.089 208.577 178.278C208.294 175.824 209.756 173.769 209.756 173.769L211.546 170.51L213.257 167.395L215.281 168.596C215.017 169.99 215.296 171.493 216.066 172.682Z" fill="#1ED1C8"/>
<path d="M213.755 166.489L213.257 167.395L211.546 170.51L209.756 173.769L202.929 172.761L204.802 170.82L207.158 168.373L210.693 164.71C211.701 165.326 212.721 165.922 213.755 166.489Z" fill="#544FC9"/>
<path d="M212.849 179.083L211.169 182.422C209.417 181.104 208.733 179.631 208.578 178.279C210.036 178.09 211.558 178.377 212.849 179.083Z" fill="#FFE9CC"/>
<path d="M210.693 164.71L207.158 168.373C176.573 152.041 169.387 116.494 169.387 116.494C173.481 112.952 173.047 105.237 173.047 105.237C174.07 104.988 175.131 104.693 176.226 104.361C176.226 104.361 176.245 104.345 176.275 104.319C176.437 105.051 176.524 105.814 176.524 106.592C176.524 109.137 175.603 111.494 174.047 113.401C178.711 134.326 192.415 153.506 210.693 164.71Z" fill="#211E5E"/>
<path d="M207.158 168.373L204.802 170.82C195.478 164.831 187.17 156.924 180.558 147.694C174.043 138.616 169.27 128.39 166.566 117.82C165.66 118.005 164.716 118.103 163.745 118.103C162.386 118.103 161.079 117.914 159.852 117.559C159.127 117.348 158.428 117.083 157.768 116.766C157.669 116.721 157.571 116.672 157.477 116.622C157.473 116.622 157.473 116.622 157.473 116.622C157.315 116.543 157.156 116.456 157.001 116.369C156.824 116.271 156.65 116.165 156.476 116.059C156.31 115.954 156.144 115.844 155.981 115.731C155.895 115.67 155.804 115.61 155.717 115.546C155.506 115.391 155.298 115.233 155.102 115.067C155.056 115.032 155.011 114.991 154.966 114.953C154.879 114.878 154.792 114.802 154.705 114.727C154.516 114.557 154.331 114.379 154.154 114.198C154.052 114.096 153.954 113.99 153.86 113.885C153.754 113.771 153.656 113.658 153.557 113.541C153.433 113.394 153.312 113.246 153.195 113.091C153.104 112.974 153.017 112.854 152.93 112.729C152.836 112.597 152.745 112.461 152.658 112.321C152.609 112.249 152.564 112.177 152.522 112.102C152.477 112.03 152.432 111.954 152.39 111.883C151.48 110.3 150.963 108.499 150.963 106.592C150.963 105.856 151.038 105.138 151.186 104.44C151.189 104.443 151.189 104.451 151.193 104.455C151.193 104.455 158.304 108.869 173.047 105.236C173.047 105.236 173.481 112.951 169.387 116.494C169.387 116.494 176.573 152.041 207.158 168.373Z" fill="#433C85"/>
<path d="M166.291 189.544L167.427 192.697L165.112 193.664C165.006 192.852 165.086 192.014 165.347 191.236C165.555 190.62 165.875 190.046 166.291 189.544Z" fill="#FFE9CC"/>
<path d="M166.782 186.863L165.494 187.338L163.285 188.154L158.987 189.744L154.818 186.568L157.624 185.881L162.001 184.812L165.728 183.902C166.068 184.895 166.419 185.88 166.782 186.863Z" fill="#544FC9"/>
<path d="M165.494 187.338L166.291 189.544C165.875 190.046 165.554 190.62 165.347 191.236C165.086 192.014 165.007 192.852 165.112 193.664L160.362 195.646H156.015C155.713 194.026 154.69 192.538 153.277 191.681C155.649 190.073 158.987 189.744 158.987 189.744L163.285 188.154L165.494 187.338Z" fill="#1ED1C8"/>
<path d="M165.728 183.902L162.001 184.812C150.223 152.456 156.476 116.06 156.476 116.06C156.65 116.166 156.823 116.271 157.001 116.37C157.156 116.456 157.314 116.544 157.473 116.623C157.473 116.623 157.473 116.623 157.477 116.623C157.571 116.672 157.669 116.721 157.767 116.767C158.428 117.084 159.127 117.348 159.852 117.56C156.457 139.617 158.5 162.822 165.728 183.902Z" fill="#211E5E"/>
<path d="M162.001 184.812L157.625 185.88C153.709 174.291 151.262 162.188 150.332 149.835C149.373 137.067 150.068 124.315 152.391 111.883C152.432 111.955 152.477 112.03 152.523 112.102C152.564 112.174 152.609 112.249 152.659 112.321C152.745 112.461 152.836 112.597 152.931 112.729C153.017 112.854 153.104 112.975 153.195 113.092C153.312 113.247 153.433 113.394 153.558 113.541C153.652 113.658 153.754 113.772 153.86 113.885C153.954 113.991 154.052 114.097 154.154 114.198C154.332 114.38 154.517 114.557 154.705 114.727C154.834 114.844 154.966 114.957 155.102 115.067C155.298 115.233 155.506 115.392 155.717 115.546C155.963 115.728 156.216 115.897 156.476 116.06C156.476 116.06 150.223 152.456 162.001 184.812Z" fill="#433C85"/>
<path d="M156.016 195.646H150.963C150.963 193.833 151.975 192.564 153.278 191.681C154.69 192.538 155.713 194.026 156.016 195.646Z" fill="#FFE9CC"/>
<path d="M154.309 69.7732C154.43 69.9923 154.55 70.1319 154.55 70.1319C154.55 70.1319 150.389 76.0756 150.351 79.7502C150.351 79.8561 150.351 79.958 150.359 80.0559C146.609 82.8542 142.485 85.1238 138.127 86.8004C132.383 89.017 126.235 90.1989 120.023 90.1989C119.66 90.1989 119.298 90.1953 118.936 90.1877L119.045 85.2787C132.387 85.5812 145.51 79.7955 154.309 69.7732Z" fill="#E8428D"/>
<path d="M150.694 43.6448C151.385 43.6448 151.944 44.385 151.944 45.2989C151.944 46.2129 151.385 46.9531 150.694 46.9531C150.003 46.9531 149.44 46.2129 149.44 45.2989C149.44 44.385 150.003 43.6448 150.694 43.6448Z" fill="black"/>
<path d="M143.098 79.9276C142.701 79.3499 142.24 78.7986 141.727 78.2847C139.578 76.1358 136.818 74.9651 134.008 74.7802C131.712 74.6253 129.382 75.124 127.32 76.2754L121.112 70.0709L120.27 69.2288L121.112 68.3867L124.439 65.0595L119.787 60.4073L115.618 64.5765L113.541 62.4995L117.71 58.3303L113.058 53.678L110.928 55.808L108.889 57.8472L106.536 55.4946L101.887 60.1469L110.928 69.1875L121.113 79.3723L122.668 80.9282C121.653 82.752 121.143 84.7801 121.143 86.8077C121.143 89.8929 122.317 92.9781 124.674 95.3348C127.234 97.8952 130.659 99.0619 134.009 98.8356C136.584 98.6655 139.114 97.6726 141.173 95.8523C141.361 95.6862 141.546 95.5125 141.724 95.3312C142.241 94.8136 142.702 94.2624 143.098 93.6846C145.972 89.5648 145.972 84.0475 143.098 79.9276ZM137.637 91.249C137.456 91.4303 137.271 91.5928 137.067 91.7472C136.161 92.4646 135.096 92.8915 134.008 93.0351C132.15 93.2694 130.205 92.6764 128.782 91.249C126.512 88.983 126.346 85.4107 128.28 82.9598C128.434 82.7596 128.601 82.5711 128.782 82.3897C130.209 80.9623 132.15 80.3657 134.008 80.6072C135.337 80.7773 136.622 81.3699 137.641 82.3897C140.088 84.8366 140.084 88.8016 137.637 91.249Z" fill="#FFD05A"/>
<path d="M143.098 79.9275V93.6846C142.702 94.2623 142.241 94.8136 141.724 95.3311C141.546 95.5125 141.361 95.6862 141.173 95.8523C139.114 97.6725 136.584 98.6655 134.009 98.8356V93.0351C135.096 92.8914 136.161 92.465 137.067 91.7472C137.271 91.5923 137.457 91.4298 137.638 91.2489C140.084 88.8021 140.088 84.8366 137.641 82.3897C136.622 81.3703 135.337 80.7773 134.008 80.6072V74.7802C136.818 74.9651 139.579 76.1358 141.727 78.2846C142.241 78.7981 142.701 79.3498 143.098 79.9275Z" fill="#FFE888"/>
<path d="M121.113 70.0714V79.3723L110.928 69.1875V55.808L113.058 53.678L117.71 58.3307L113.541 62.4995L115.618 64.5765L119.787 60.4077L121.113 61.7333V68.3871L120.27 69.2292L121.113 70.0714Z" fill="#FFE888"/>
<path d="M128.28 82.9599C128.435 82.7597 128.601 82.5711 128.782 82.3898C130.21 80.9623 132.151 80.3658 134.008 80.6073C135.338 80.7774 136.622 81.3699 137.641 82.3898C140.088 84.8367 140.085 88.8022 137.638 91.249C137.456 91.4304 137.271 91.5929 137.068 91.7473C139.005 89.2928 138.839 85.7241 136.573 83.4582C135.829 82.7143 134.945 82.1968 134.009 81.9059C132.086 81.3057 129.93 81.6572 128.28 82.9599Z" fill="#F7991E"/>
<path d="M141.172 95.8523C141.006 96.0373 140.832 96.2222 140.654 96.4C138.778 98.2768 136.44 99.4057 134.008 99.7837C130.33 100.365 126.437 99.236 123.604 96.404C122.524 95.324 121.69 94.0891 121.112 92.7711C119.726 89.6595 119.73 86.0872 121.112 82.9755C121.259 82.6433 121.422 82.3184 121.599 81.9974L100.818 61.2161L101.887 60.1473L110.927 69.1879L121.112 79.3728L122.668 80.9286C121.652 82.7524 121.142 84.7805 121.142 86.8081C121.142 89.8933 122.316 92.9785 124.673 95.3352C127.234 97.8957 130.659 99.0623 134.008 98.8361C136.584 98.6655 139.114 97.6726 141.172 95.8523Z" fill="#F7991E"/>
<path d="M140.82 92.046C141.722 93.258 142.625 94.4741 143.527 95.6865C143.49 95.6789 143.455 95.6712 143.418 95.6641L142.436 100.086L142.266 100.048C140.144 99.6102 138.082 98.8929 136.148 97.9184C135.457 97.5674 134.713 97.1028 134.532 96.3473C134.441 95.9545 134.524 95.524 134.759 95.1954C134.997 94.8709 135.374 94.6518 135.778 94.6137C135.344 94.2775 135.174 93.6468 135.382 93.1409C135.586 92.635 136.152 92.2988 136.696 92.3629C136.356 92.095 136.205 91.6151 136.33 91.1999C136.455 90.7882 136.847 90.4709 137.274 90.4296C137.701 90.3919 138.139 90.6334 138.339 91.0149L138.406 90.9732C138.312 90.1764 138.217 89.3756 138.12 88.5752C138.078 88.2314 138.067 87.8126 138.35 87.6124C138.372 87.5971 138.399 87.5823 138.425 87.567C138.595 87.4876 138.807 87.5028 138.98 87.5823C139.184 87.6766 139.343 87.8391 139.486 88.0051C140.438 89.1045 140.929 90.5921 140.82 92.046Z" fill="#FFBE5F"/>
<path d="M119.1 84.9877C119.011 84.4306 118.923 83.8785 118.838 83.3187C118.767 82.8851 118.703 82.4421 118.789 82.0107L118.871 81.7279C119.014 81.384 119.28 81.0918 119.635 81.0061C120.015 80.9158 120.426 81.0864 120.702 81.367C120.98 81.6439 121.143 82.0143 121.267 82.3882C121.511 83.1316 121.621 83.9185 121.578 84.7004C122.026 84.5788 122.488 84.4531 122.951 84.4975C123.414 84.5415 123.887 84.7929 124.061 85.2247C124.233 85.648 124.076 86.1454 123.789 86.4987C123.503 86.8479 123.1 87.0849 122.706 87.3165C123.125 87.1868 123.565 87.0548 124 87.1141C124.434 87.1774 124.868 87.4961 124.91 87.9329C124.931 88.1712 124.838 88.4114 124.702 88.608C124.33 89.1449 123.687 89.4101 123.078 89.6503C123.465 89.6328 123.856 89.6126 124.221 89.7347C124.587 89.8568 124.92 90.1459 124.974 90.5274C125.045 91.0158 124.652 91.4481 124.252 91.7412C123.251 92.4805 122.007 92.8904 120.76 92.894C120.26 92.8944 119.748 92.8284 119.301 92.608C118.853 92.3912 118.47 92.0047 118.338 91.5222C118.207 91.0396 118.369 90.4691 118.787 90.1935C118.148 90.2123 117.551 89.6575 117.524 89.0205C117.495 88.3871 118.045 87.7798 118.681 87.7443C118.117 87.4112 117.728 86.7599 117.818 86.1135C117.9 85.4923 118.482 84.9496 119.1 84.9877Z" fill="#FFBE5F"/>
<path d="M159.69 106.626C159.683 106.384 159.435 106.198 159.204 106.218C158.95 106.24 158.788 106.461 158.796 106.705C158.834 107.973 158.873 109.242 158.911 110.511C158.918 110.753 159.166 110.939 159.397 110.919C159.651 110.897 159.813 110.676 159.805 110.433C159.767 109.164 159.728 107.895 159.69 106.626Z" fill="#211E5E"/>
<path d="M161.991 107.54C161.981 107.493 161.974 107.43 161.95 107.383C161.929 107.341 161.904 107.282 161.87 107.243C161.84 107.209 161.811 107.175 161.779 107.145C161.772 107.139 161.765 107.134 161.759 107.128C161.74 107.115 161.719 107.103 161.7 107.091C161.682 107.079 161.662 107.064 161.642 107.053C161.634 107.049 161.626 107.045 161.619 107.042C161.615 107.04 161.61 107.039 161.606 107.038C161.577 107.028 161.547 107.018 161.518 107.009C161.493 106.989 161.472 106.964 161.441 106.95C161.405 106.938 161.368 106.927 161.331 106.915C161.249 106.9 161.17 106.907 161.093 106.935C161.058 106.953 161.024 106.972 160.99 106.99C160.926 107.035 160.877 107.093 160.843 107.164C160.84 107.172 160.837 107.18 160.834 107.188C160.821 107.227 160.807 107.266 160.796 107.306C160.795 107.31 160.794 107.315 160.793 107.319C160.792 107.328 160.791 107.336 160.791 107.344C160.788 107.386 160.785 107.43 160.785 107.473C160.785 107.477 160.785 107.481 160.785 107.485C160.789 107.54 160.804 107.596 160.82 107.648C160.835 107.698 160.87 107.754 160.892 107.794C160.9 107.809 160.91 107.823 160.921 107.836C160.949 107.871 160.981 107.903 161.012 107.936C161.018 107.942 161.025 107.949 161.032 107.955C161.072 107.99 161.121 108.017 161.166 108.044C161.181 108.053 161.197 108.061 161.213 108.066C161.255 108.081 161.299 108.096 161.342 108.107C161.351 108.109 161.359 108.11 161.368 108.111C161.421 108.117 161.479 108.124 161.533 108.116C161.557 108.112 161.581 108.105 161.603 108.101C161.624 108.096 161.648 108.091 161.67 108.085C161.674 108.084 161.678 108.083 161.682 108.082C161.684 108.081 161.686 108.08 161.689 108.079C161.69 108.079 161.691 108.078 161.692 108.078C161.726 108.06 161.761 108.041 161.795 108.023C161.809 108.01 161.823 107.997 161.837 107.984C161.869 107.961 161.893 107.932 161.91 107.897C161.923 107.877 161.936 107.863 161.944 107.844C161.959 107.806 161.975 107.75 161.982 107.725C161.985 107.718 161.986 107.71 161.987 107.702C161.99 107.68 161.99 107.652 161.991 107.632C161.992 107.613 161.994 107.585 161.994 107.562C161.994 107.556 161.992 107.548 161.991 107.54Z" fill="#211E5E"/>
</svg>
